<svg width="14" height="14" viewBox="0 0 14 14" fill="none" xmlns="http://www.w3.org/2000/svg">
<g clip-path="url(#clip0_1_3)">
<path fill-rule="evenodd" clip-rule="evenodd" d="M1.78285 6.19218C2.40746 5.96962 3.06476 5.67381 3.57163 5.24556C4.17363 4.73689 4.41845 4.08177 4.58287 3.39218C4.79394 2.50624 4.87828 1.56248 5.13423 0.675096C5.229 0.345558 5.41138 0.220992 5.48963 0.165709C5.68743 0.0260685 5.88736 -0.0112575 6.07547 0.00274249C6.29839 0.0188963 6.60461 0.10325 6.80599 0.476942C6.83471 0.530429 6.87203 0.61192 6.89716 0.723561C6.91547 0.805408 6.92731 1.06135 6.9467 1.16689C6.99516 1.42679 7.03572 1.68669 7.07378 1.94803C7.20049 2.81782 7.27337 3.55658 7.67363 4.35566C8.21676 5.44048 8.76097 6.10422 9.49902 6.39822C10.2127 6.68253 11.0659 6.62906 12.1561 6.40613C12.2599 6.381 12.3625 6.35946 12.4641 6.34187C12.9448 6.25787 13.4043 6.57341 13.4987 7.05228C13.5931 7.53079 13.2876 7.9971 12.8113 8.10228C12.7118 8.12417 12.6138 8.14499 12.5169 8.16402C11.0437 8.52874 9.33818 9.83038 8.34706 10.9701C8.04157 11.3216 7.59429 12.3041 7.13804 12.9308C6.80132 13.3932 6.42296 13.698 6.10526 13.8057C5.89239 13.8782 5.71291 13.8671 5.56465 13.8304C5.34927 13.7773 5.17051 13.6606 5.03338 13.475C4.95871 13.3735 4.88942 13.2374 4.85639 13.0637C4.8406 12.98 4.83881 12.7675 4.83917 12.6713C4.74619 12.3515 4.6324 12.0391 4.54947 11.7164C4.35168 10.9464 3.96362 10.4589 3.5027 9.81494C3.07157 9.21222 2.60851 8.83351 1.92969 8.53125C1.84138 8.50972 1.12881 8.33525 0.877173 8.2351C0.509584 8.08827 0.334395 7.84237 0.270856 7.70991C0.162805 7.48519 0.151687 7.28885 0.173225 7.12515C0.205174 6.88356 0.313585 6.6768 0.505995 6.50988C0.625175 6.40613 0.803227 6.30525 1.04159 6.25607C1.22574 6.21766 1.71428 6.19541 1.78285 6.19218ZM5.96311 4.93719C5.99614 5.01078 6.03132 5.08474 6.06865 5.15941C6.86414 6.74823 7.75367 7.63525 8.83491 8.06567L8.87117 8.07967C8.14783 8.61669 7.49305 9.2169 6.99264 9.79233C6.78659 10.0293 6.51378 10.5214 6.21906 11.0261C5.95127 10.1556 5.51332 9.54034 4.96265 8.77034C4.54194 8.1827 4.10112 7.74044 3.55942 7.38003C3.97978 7.16429 4.38075 6.91157 4.73003 6.61649C5.31157 6.12505 5.69603 5.55571 5.96311 4.93719Z" fill="black"/>
</g>
<defs>
<clipPath id="clip0_1_3">
<rect width="14" height="14" fill="white"/>
</clipPath>
</defs>
</svg>
