<!-- <svg width="30" height="30" viewBox="0 0 24 24" fill="none" xmlns="http://www.w3.org/2000/svg">
<g clip-path="url(#clip0_50_17)">
<path d="M12 0.674805C5.625 0.674805 0.375 5.8498 0.375 12.2998C0.375 17.3998 3.7125 21.7498 8.3625 23.3248C8.9625 23.4373 9.15 23.0623 9.15 22.7998C9.15 22.5373 9.15 21.7873 9.1125 20.7748C5.8875 21.5248 5.2125 19.1998 5.2125 19.1998C4.6875 17.8873 3.9 17.5123 3.9 17.5123C2.85 16.7623 3.9375 16.7623 3.9375 16.7623C5.1 16.7998 5.7375 17.9623 5.7375 17.9623C6.75 19.7623 8.475 19.2373 9.1125 18.8998C9.225 18.1498 9.525 17.6248 9.8625 17.3248C7.3125 17.0623 4.575 16.0498 4.575 11.6248C4.575 10.3498 5.0625 9.33731 5.775 8.54981C5.6625 8.28731 5.25 7.08731 5.8875 5.47481C5.8875 5.47481 6.9 5.1748 9.1125 6.6748C10.05 6.4123 11.025 6.26231 12.0375 6.26231C13.05 6.26231 14.0625 6.3748 14.9625 6.6748C17.175 5.2123 18.15 5.47481 18.15 5.47481C18.7875 7.04981 18.4125 8.28731 18.2625 8.54981C19.0125 9.33731 19.4625 10.3873 19.4625 11.6248C19.4625 16.0498 16.725 17.0623 14.175 17.3248C14.5875 17.6998 14.9625 18.4498 14.9625 19.4998C14.9625 21.0748 14.925 22.3123 14.925 22.6873C14.925 22.9873 15.15 23.3248 15.7125 23.2123C20.2875 21.6748 23.625 17.3623 23.625 12.2248C23.5875 5.8498 18.375 0.674805 12 0.674805Z" fill="black"/>
</g>
<defs>
<clipPath id="clip0_50_17">
<rect width="24" height="24" fill="black"/>
</clipPath>
</defs>
</svg> -->

<svg xmlns="http://www.w3.org/2000/svg" xmlns:xlink="http://www.w3.org/1999/xlink" version="1.1" width="256" height="256" viewBox="0 0 256 256" xml:space="preserve">
<g style="stroke: none; stroke-width: 0; stroke-dasharray: none; stroke-linecap: butt; stroke-linejoin: miter; stroke-miterlimit: 10; fill: none; fill-rule: nonzero; opacity: 1;" transform="translate(1.4065934065934016 1.4065934065934016) scale(2.81 2.81)">
	<path d="M 5.46 63.31 c 0 0 3.998 1.875 6.773 8.925 c 0 0 3.581 10.887 20.55 7.197 c 0.017 3.237 0.046 6.354 0.064 8.571 C 32.857 89.112 33.758 90 34.867 90 h 26.238 c 1.11 0 2.012 -0.89 2.019 -2 c 0.02 -3.124 0.056 -8.131 0.056 -13.951 c 0 -5.691 -1.949 -9.403 -4.137 -11.296 c 13.583 -1.51 27.853 -6.668 27.853 -30.097 c 0 -6.659 -2.366 -12.101 -6.278 -16.373 c 0.633 -1.537 2.722 -7.741 -0.599 -16.143 c 0 0 -5.115 -1.638 -16.757 6.253 c -4.875 -1.352 -10.097 -2.029 -15.281 -2.053 C 42.798 4.365 37.58 5.043 32.714 6.394 C 21.058 -1.497 15.936 0.141 15.936 0.141 c -3.312 8.402 -1.224 14.606 -0.591 16.143 c -3.902 4.272 -6.286 9.713 -6.286 16.373 c 0 23.372 14.243 28.603 27.792 30.145 c -1.745 1.523 -3.325 4.215 -3.873 8.157 c -3.481 1.559 -12.311 4.254 -17.751 -5.07 c 0 0 -3.226 -5.856 -9.35 -6.287 C 5.877 59.602 -0.075 59.524 5.46 63.31 z" style="stroke: none; stroke-width: 1; stroke-dasharray: none; stroke-linecap: butt; stroke-linejoin: miter; stroke-miterlimit: 10; fill: black; fill-rule: nonzero; opacity: 1;" transform=" matrix(1 0 0 1 0 0) " stroke-linecap="round"/>
</g>
</svg>

