<svg width="3216" height="14" viewBox="0 0 3216 14" fill="none" xmlns="http://www.w3.org/2000/svg">
<path d="M248.841 13.8882C250.83 13.8704 258.834 13.9136 262.299 13.9061C258.371 14.0939 241.663 13.9527 248.841 13.8882ZM604.247 0.250828C601.373 0.297257 598.498 0.343686 595.623 0.390116C603.793 0.420284 614.774 0.386206 622.355 0.430278C623.595 0.437679 620.378 0.572109 623.312 0.578111C626.247 0.584076 625.681 0.400366 629.949 0.380716C634.737 0.359233 656.659 0.487218 664.251 0.484113C692.645 0.471712 721.284 0.366798 749.735 0.443096C720.362 0.57901 749.96 0.717338 758.187 0.658436C760.01 0.644798 759.719 0.303267 789.189 0.389261C807.918 0.443832 790.619 0.932098 821.871 0.68749C797.839 0.345914 821.472 0.369853 840.31 0.358498C843.558 0.356486 869.786 0.407806 881.372 0.392679C885.336 0.387418 891.375 0.208524 896.633 0.203829C900.252 0.200732 902.988 0.298535 908.361 0.293554C933.41 0.27151 958.043 0.263905 983.135 0.296972C968.472 0.756689 994.645 0.492898 995.821 0.514876C1001.8 0.639693 974.761 0.675222 985.454 0.753289C1000.4 0.739047 1015.34 0.724804 1030.28 0.710562C1018.02 0.654118 1046.52 0.323437 1051.76 0.473859C1049.45 0.0676365 1119.87 0.827419 1130.59 0.691763C1132.82 0.663108 1118.21 0.462339 1152.1 0.554184C1155.78 0.56439 1154.39 0.686952 1156.31 0.675527C1157.47 0.668657 1164.44 0.279109 1171.88 0.494368C1174.6 0.572934 1157.22 0.828781 1195.37 0.725944C1180.18 0.329461 1248.27 0.511224 1260.8 0.610583C1258.3 0.557318 1255.79 0.504052 1253.29 0.450787C1265.68 0.594478 1267.91 0.459676 1270.7 0.467023C1281.94 0.49653 1297.4 0.63238 1307.87 0.619983C1320.13 0.605719 1320.17 0.359145 1334.46 0.455059C1331.07 0.400655 1327.68 0.34625 1324.29 0.291845C1334.15 0.304948 1344.02 0.318051 1353.89 0.331153C1331.04 0.65755 1358.82 0.346726 1360.65 0.339699C1363.57 0.32782 1359.37 0.461444 1364.26 0.444805C1364.76 0.442067 1364.03 0.316232 1371.56 0.3021C1387.28 0.273001 1384.79 0.431213 1391.39 0.429424C1392 0.428608 1389.88 0.315246 1401.28 0.288427C1437.52 0.203051 1401.1 0.3753 1399.71 0.39097C1397.89 0.411637 1410.31 0.885381 1379.53 0.717399C1389.86 0.770876 1390.9 0.980515 1392.07 0.985719C1393.1 0.989998 1411 0.960468 1411.99 0.953247C1420.79 0.882058 1413.05 0.738798 1414.76 0.713126C1416.17 0.69243 1437.74 0.879125 1442.8 0.448223C1453.12 0.84568 1436.86 0.809266 1419.55 0.870358C1417.02 0.951919 1436.03 1.03123 1437.03 1.03101C1461.55 1.03028 1447.97 0.703352 1453.33 0.494368C1456.15 0.385022 1466.14 0.608066 1456.92 0.314917C1479.17 0.283974 1465.67 0.453846 1467.11 0.478986C1469.28 0.515922 1477.07 0.431904 1478.04 0.443096C1479.47 0.459664 1474.5 0.56116 1480.14 0.596911C1481.08 0.602109 1490.17 0.427453 1478.45 0.343971C1494.1 0.3688 1492.82 0.219871 1498.13 0.520003C1508.91 -0.0478107 1505.95 0.855634 1510.2 0.887449C1521.49 0.971315 1518.21 0.525507 1518.81 0.503767C1522.92 0.364455 1554.18 0.517599 1561.92 0.45335C1558.87 0.774448 1537.14 0.456856 1532.28 0.519149C1516.08 0.726394 1555.11 0.679686 1543.35 1.08314C1548.28 0.972332 1553.21 0.861528 1558.14 0.750725C1567.18 1.01013 1554.36 1.12324 1578.69 1.02845C1582.67 0.804547 1561.49 1.06381 1565.74 0.887449C1568.24 0.783944 1582.35 0.761713 1582.63 0.707144C1582.91 0.641457 1570.15 0.719305 1572.16 0.618274C1576.55 0.400249 1623.07 0.607808 1587.66 0.726798C1597.53 0.723072 1602.62 1.15673 1611.19 1.02161C1616.73 0.933905 1585.57 0.334976 1632.31 0.444805C1633.31 0.649581 1613.62 0.505274 1613.11 0.520858C1612.4 0.543542 1615.96 1.00564 1616.57 1.02845C1618.75 1.10354 1666.49 0.856099 1676.58 1.08826C1672.58 0.821189 1712.65 1.04061 1717.01 0.959229C1718.17 0.936762 1713.83 0.773168 1715.07 0.755852C1722.82 0.652793 1743.78 0.944826 1753.5 0.952393C1764.38 0.960967 1763 0.819674 1763.61 0.819942C1768.39 0.827823 1764.57 0.923609 1767.5 0.923339C1771.92 0.922879 1802.3 0.94247 1803.82 0.922484C1804.27 0.916256 1799.31 0.754852 1805.93 0.724235C1807.08 0.71893 1806.35 0.910293 1825.97 0.827632C1849.59 0.728214 1809.56 0.589661 1819.38 0.389261C1834.55 0.674598 1834.06 0.39184 1838.17 0.414042C1839.6 0.422129 1850.2 0.662536 1861.72 0.647328C1853.45 0.686351 1845.19 0.725374 1836.92 0.764397C1845.05 0.806551 1860.82 0.754375 1867.52 0.801996C1870.78 0.825177 1868.09 1.02267 1875.19 1.01734C1876.69 1.01513 1882.67 0.533973 1864.08 0.74987C1862.6 0.578064 1871.44 0.689943 1875.54 0.641346C1876.16 0.633773 1878.61 0.346751 1883.85 0.525131C1885.1 0.569017 1871.41 1.40628 1906.73 0.800287C1907.86 0.780757 1903.91 0.6759 1905.02 0.654164C1905.78 0.639443 1914.8 0.681858 1915.79 0.666982C1916.81 0.65102 1912.46 0.536546 1913.67 0.514022C1919.89 0.397953 1928.05 0.851971 1915.23 0.817378C1919.51 0.873492 1923.8 0.929605 1928.09 0.985719C1923.5 0.64354 1934.82 0.889443 1940.75 0.878904C1978.75 0.811555 1953.3 0.589005 1959.84 0.473859C1970.34 0.28898 1962.32 0.87455 1977.92 0.698599C1979.36 0.682148 1960.5 0.433583 1997.33 0.573838C1991.89 0.583523 1986.46 0.593208 1981.02 0.602892C1984.16 0.933856 2000.65 0.580189 2001.91 0.575547C2016.37 0.530104 2006.6 0.649416 2028.07 0.478986C2029.99 0.463685 2034.17 0.545365 2038.27 0.504622C2055.26 0.336767 2015.84 0.402765 2014.76 0.268773C2014.25 0.203118 2056.65 0.219653 2058.1 0.250828C2064.28 0.389022 2038.88 0.311695 2043.72 0.483259C2045.49 0.544176 2105.92 0.41906 2118.04 0.485822C2132.03 0.563511 2138.33 1.01224 2138.42 0.50804C2142.37 1.00295 2145.86 0.665282 2147.65 0.668691C2169.28 0.714505 2169.32 0.719499 2187.87 0.672109C2191.97 0.661808 2195.43 0.811971 2196.88 0.786615C2197.72 0.771301 2196.15 0.610602 2200.28 0.561021C2206.02 0.493191 2240.51 0.658475 2243.07 0.747307C2245.63 0.83614 2228.5 0.785831 2231.57 0.931884C2243.97 0.946648 2255.86 0.910511 2268.34 0.925903C2273.53 0.932734 2270.86 1.03496 2273.1 1.03699C2274.05 1.03825 2291.95 0.948228 2291.2 0.910521C2289.42 0.822841 2234.14 0.881779 2248.7 0.702872C2251.51 0.668302 2261.43 0.903869 2259.85 0.617419C2309.23 0.682363 2358.62 0.747307 2408 0.812251C2379.63 1.0265 2347.7 0.834889 2317.98 0.854977C2313.9 0.857457 2300.13 0.829829 2301.81 0.97461C2327.08 1.01209 2358.5 0.936657 2382.77 1.03101C2383.54 1.03413 2380.69 1.16421 2383.6 1.18482C2389.04 1.2233 2406.74 1.0135 2409.72 1.06775C2410.23 1.08039 2400.15 1.25188 2403.22 1.36086C2411.08 1.64052 2413.08 1.02111 2419.84 1.02845C2425.07 1.03438 2460.21 1.33388 2468.96 1.14466C2478.27 0.942973 2443.06 1.02757 2445.66 0.862668C2469.48 0.69695 2493.6 0.873913 2516.11 0.853268C2516.5 0.852742 2513.06 0.723516 2518.08 0.705435C2526.82 0.67397 2529.12 0.857271 2533.37 0.886594C2537.96 0.91781 2554.18 0.891542 2556.35 0.958374C2556.62 0.967138 2553.34 1.14895 2552.84 1.15406C2545.77 1.22899 2543.26 0.99302 2542.62 0.989992C2540.2 0.981044 2537.83 1.07143 2535.63 1.06604C2532 1.05707 2530 0.973447 2525.21 0.966065C2521.91 0.960662 2525.09 1.12124 2521.91 1.1139C2520.74 1.11055 2508.13 0.743881 2506.96 1.11817C2506.59 1.23618 2609.71 1.38773 2620.02 1.29335C2611.18 1.24834 2602.34 1.20334 2593.49 1.15833C2611.45 1.26788 2633.02 0.968824 2634.54 1.41127C2701.12 1.44745 2767.7 1.48362 2834.28 1.5198C2846.17 1.55749 2839.65 1.84181 2859.21 1.75906C2854.16 1.66848 2849.1 1.5779 2844.05 1.48733C2854.07 1.55087 2898.49 1.67501 2905.68 1.61636C2906.61 1.60867 2907.9 1.35135 2919 1.32924C2928.85 1.30972 2930.44 1.50252 2935.7 1.53945C2940.12 1.56992 2945.09 1.51941 2946.4 1.53005C2947.41 1.53857 2947.81 1.65647 2950.23 1.67703C2957.87 1.74059 2951.68 1.40864 2959.27 1.78983C2957.42 1.80435 2955.57 1.81888 2953.72 1.83341C2962.95 1.88858 2975.56 2.06164 2961.97 2.14702C2959.63 2.16176 2961.64 2.0477 2959.89 2.04789C2891.62 2.06909 2946.14 2.29081 2970.06 2.11369C2976.21 2.2827 3010.64 2.17951 3011.79 2.21282C3013.38 2.26106 3007.49 2.39613 3015.21 2.51275C3016.84 2.53745 3062.88 2.44281 3046.3 2.66742C3042.88 2.71376 3020.8 2.66508 3015.48 2.6717C3028 3.02991 3057.35 2.51669 3060.65 2.52985C3073.97 2.58567 3035.08 2.84029 3065.07 2.88191C3088.13 2.91385 3066.48 2.67467 3075.35 2.57257C3080.33 2.51528 3106.43 2.77878 3105.72 2.43756C3114.68 2.40112 3109.44 2.5818 3110.55 2.59479C3111.63 2.60621 3129.24 2.50407 3134.96 2.57599C3135.65 2.58493 3133.47 2.76229 3134.19 2.7768C3135.58 2.80165 3152.57 2.76619 3153.25 2.75117C3153.69 2.74073 3149.64 2.58545 3151.3 2.54779C3153.24 2.50437 3169.59 2.54091 3170.49 2.49652C3171.76 2.42941 3151.58 2.47362 3154.94 2.29998C3164.25 2.3437 3179.4 2.22784 3185.54 2.08806C3184.04 2.12802 3175.02 2.13376 3171.89 2.11967C3173.36 1.86536 3192.73 1.86883 3186.11 2.07011C3190.31 1.96201 3187.44 1.90466 3189.81 1.80264C3190.43 1.7768 3196.41 1.77148 3197.56 1.72745C3197.71 1.71867 3191.54 1.62272 3192.78 1.57107C3195.02 1.47773 3213.15 1.49873 3214.63 1.52322C3218.8 1.59261 3204.02 1.67658 3202.79 1.78385C3202.62 1.80032 3215.19 2.01053 3215.38 2.02909C3216.11 2.22828 3202.12 2.08474 3203.72 2.26409C3207.18 2.30197 3210.64 2.33986 3214.1 2.37774C3200.76 2.55936 3176.07 2.46597 3169.7 2.67255C3189.49 2.61108 3210.19 2.61835 3210.15 3.08358C3210.14 3.27951 3201.6 3.39437 3201.93 3.44419C3203.19 3.62244 3215.04 3.42879 3215.48 3.43821C3215.84 3.44907 3216 3.45965 3216 3.46994C3216 3.46994 3216 3.46995 3216 3.46995C3216 3.57432 3199.11 3.64947 3198.26 3.69713C3196.84 3.78178 3204.36 4.13021 3204.35 4.20728C3204.09 4.22276 3192.06 4.30522 3196.12 4.43971C3200.22 4.57555 3210.75 4.57855 3211.12 4.59267C3213.13 4.67393 3194.71 4.74805 3194.17 4.79604C3193.88 4.82031 3203.77 4.96938 3204.05 5.01224C3204.3 5.05525 3196.78 5.14909 3193.82 5.28483C3191.61 5.38568 3198.04 5.463 3196.91 5.47881C3196.11 5.48929 3178.7 5.48757 3177.85 5.5053C3176.57 5.53152 3180.65 5.65205 3180.06 5.68219C3179.22 5.72553 3173.6 5.68203 3174.33 5.72662C3174.88 5.75986 3196.66 6.17535 3196.52 6.28634C3196.27 6.47563 3173.2 6.04009 3194.67 6.78709C3194.82 6.79199 3200.04 6.7389 3200.19 6.74351C3203.41 6.88095 3186.66 7.09236 3207.15 7.05541C3169.04 7.29412 3202.4 7.33997 3196.77 7.6587C3194.59 7.78121 3179.82 7.83173 3179.75 7.85012C3181.19 8.00554 3185.89 7.885 3187.49 7.9612C3188.37 8.00379 3175.16 8.16811 3178.13 8.27481C3179.67 8.3298 3193.7 8.31023 3194.28 8.32096C3199.83 8.42213 3193.02 8.5311 3194.24 8.60295C3195.05 8.65113 3203.51 8.65495 3203.73 8.66362C3204.09 8.68167 3192.6 8.87633 3190.2 8.94476C3188.38 8.99741 3195.21 9.07989 3193.94 9.10285C3186.29 9.2401 3170.01 8.89005 3185.7 9.38057C3186.66 9.41065 3192.59 9.3985 3192.77 9.4045C3196.43 9.54355 3185.51 9.55557 3183.55 9.6694C3180.2 9.86555 3195.9 9.75619 3182.84 9.89414C3192.64 10.0224 3198.1 10.0171 3209.56 9.9813C3177.82 10.0811 3166.62 10.5888 3201.86 10.576C3190.65 10.5681 3191.89 10.8547 3188.55 10.8598C3186.47 10.8625 3170.21 10.5776 3177.66 11.2169C3178.6 11.2968 3188.47 11.1953 3185.38 11.3588C3161.68 11.3171 3184.88 11.4628 3184.9 11.4844C3184.6 11.861 3126.69 11.5526 3116.74 11.5955C3105.2 11.6453 3094.94 11.9421 3092.43 11.9424C3084.17 11.9426 3091.02 11.7919 3089.18 11.7365C3087.3 11.6816 3063.82 11.9703 3062.65 11.9544C3058.1 11.8907 3062.72 11.7122 3062.25 11.7032C3056.62 11.5938 3025.08 11.7336 3016.25 11.6921C3016.53 11.8079 3034.25 11.8171 3023.19 12.0031C3010.3 12.22 3009.56 11.7094 3009.22 11.6869C2950.18 11.6918 2891.14 11.6966 2832.1 11.7015C2832.83 11.9731 2871.43 11.7682 2872.31 11.804C2877.47 12.0158 2812.26 12.0119 2804.26 11.9159C2810.34 11.9746 2816.41 12.0333 2822.49 12.092C2812.11 12.4043 2789.15 11.9985 2774.14 12.1364C2769.29 12.1811 2778.61 12.3016 2778.41 12.3099C2772.96 12.4312 2764.22 12.3377 2770.76 12.1749C2757.45 12.3309 2759.4 12.1587 2749.19 12.1458C2748.66 12.1453 2753.05 12.2713 2744.97 12.3236C2741.18 12.3479 2721 12.3483 2718.3 12.4586C2717.19 12.505 2727.43 12.9937 2728.69 12.5731C2750.64 12.7781 2735.7 12.3814 2744.23 12.3911C2745.54 12.3933 2742.53 12.628 2764.01 12.5175C2759.92 12.9409 2735.19 12.6243 2730.95 12.6756C2722.2 12.781 2758.23 12.9997 2764.84 12.6696C2761.75 13 2767.4 12.7142 2775.43 12.7277C2784.22 12.7425 2780.39 12.8409 2785.15 12.8414C2798.16 12.8439 2792.76 12.6106 2803.49 12.8209C2793.03 12.17 2821.85 12.735 2830.24 12.9055C2816.58 12.9385 2802.92 12.9716 2789.26 13.0046C2790.04 13.0388 2790.82 13.073 2791.6 13.1072C2788 13.1023 2784.4 13.0975 2780.8 13.0926C2781.38 13.0599 2781.96 13.0271 2782.53 12.9944C2763.98 13.2073 2759.45 12.968 2757.94 12.9653C2738.46 12.9375 2715.96 12.9396 2696.26 12.9388C2693.31 12.9387 2695.34 13.1517 2673.8 12.985C2666.93 12.9318 2673.42 12.7661 2665.63 12.791C2655.89 13.2413 2656.08 12.8821 2653.18 12.8816C2644.87 12.8816 2639.79 12.9932 2639.02 12.9944C2628.76 13.0118 2613.72 12.9931 2602.44 13.0097C2602.23 13.0114 2608.1 13.1498 2600.77 13.1089C2598.2 13.0942 2575.12 12.5036 2554.95 12.6961C2560.19 12.736 2565.44 12.7759 2570.69 12.8158C2564.52 12.76 2521.29 12.9089 2531.86 13.067C2538.34 13.1636 2554.16 12.7829 2555.89 13.149C2541.51 13.0394 2462.06 13.2033 2455.87 13.1183C2455.02 13.1061 2460.28 12.9873 2459.1 12.9721C2458.18 12.9606 2439.98 12.9887 2437.57 12.9431C2436.13 12.916 2444.17 12.8432 2443.52 12.8004C2442.94 12.7699 2420.22 12.719 2418.92 12.8679C2424.5 12.8081 2440.19 12.8603 2431.96 12.9858C2430.9 13.0014 2425.42 12.9054 2424.13 12.9251C2412.2 13.1076 2447.85 13.0638 2453.37 13.0653C2430.98 13.255 2396.34 13.0314 2370.4 13.155C2359.92 13.0311 2385.94 12.9654 2374.08 12.8628C2349.47 12.6499 2367.53 13.0341 2366.77 13.0499C2360.66 13.1749 2339.84 12.5049 2339.83 13.0149C2330.91 12.9381 2333.79 12.8738 2321.2 12.9405C2322.86 12.9758 2324.52 13.0112 2326.17 13.0465C2312.2 13.3419 2282.61 12.5966 2284.83 12.5397C2290.79 12.3876 2306.2 12.6249 2307.51 12.6192C2309.46 12.6108 2314.84 12.0933 2336.16 12.556C2344.89 12.2089 2302.38 12.3217 2321.72 12.0851C2308.66 12.124 2254.92 11.8824 2247.18 12.0347C2246.26 12.0546 2250.56 12.4004 2237.28 12.2244C2230.98 12.1406 2246.17 12.1366 2243.29 12.0578C2234.42 11.816 2113.71 11.9707 2090.79 11.9835C2089.3 11.9838 2089.84 11.8765 2088.38 11.8775C2083.89 11.8805 2067.52 12.0405 2059.48 11.9911C2076.14 12.1898 2043.78 12.2053 2035.55 12.1834C2023.06 12.1501 2023.84 11.9612 2018.44 11.9211C1997.64 11.7662 1965.42 12.2147 1949.26 11.7955C1950.14 12.2115 1921.31 11.5915 1908.2 11.5878C1897.93 11.5848 1883.02 11.8602 1896.89 12.0279C1879.15 12.0087 1860.49 12.0864 1843.85 12.1116C1841.1 12.1159 1844.89 11.9928 1840.2 12.004C1839.77 12.0059 1839.18 12.1264 1835.15 12.139C1801.9 12.2441 1818.08 11.9878 1811.86 11.9125C1808.38 11.8703 1805.81 11.8494 1803.92 11.8425C1823.3 11.8189 1845.66 11.7715 1851.64 11.7681C1846.54 11.5019 1808.68 11.8192 1797.59 11.7476C1797.21 11.745 1798.54 11.5982 1798.15 11.5972C1798.15 11.5972 1798.14 11.5972 1798.13 11.5972C1793.97 11.586 1767.51 11.6401 1772.96 11.8151C1774.42 11.8619 1786.6 11.8618 1801.05 11.8459C1797.14 11.8787 1800.06 12.0431 1799.37 12.0501C1791 12.1314 1770.5 11.9709 1763.23 11.9493C1761.56 11.9445 1761.68 12.0498 1761.41 12.0501C1754.8 12.0262 1757.51 11.7254 1750.73 12.0356C1738.75 11.6608 1773.17 11.9799 1770.75 11.7365C1768.88 11.5491 1692.42 11.6497 1692.65 11.945C1692.38 11.9134 1691.33 11.8742 1689.18 11.8296C1684.39 11.7306 1663.11 11.7616 1659.44 11.816C1658.82 11.8267 1659.07 12.1133 1658.3 12.1159C1656.38 12.1225 1630.36 11.8978 1620.65 12.0672C1625.89 12.1074 1631.14 12.1475 1636.39 12.1877C1604.7 12.1902 1609.6 12.2755 1620.16 12.3612C1620.68 12.3619 1621.2 12.3728 1621.7 12.374C1629.88 12.4373 1640.37 12.4983 1640.53 12.5209C1641.13 12.6072 1587.38 12.6552 1597.72 12.3894C1599.16 12.353 1624.03 12.4714 1611.72 12.2817C1609.56 12.2484 1593.59 12.3026 1592.75 12.2817C1587.14 12.1427 1622.02 11.958 1617.75 11.7604C1609.29 11.9485 1598.42 11.8494 1588.71 11.898C1584.29 11.9199 1583.21 12.0636 1582.67 12.0663C1574.52 12.1038 1579.09 11.9532 1576.37 11.957C1574.91 11.9596 1558.86 12.2802 1561.9 11.8382C1509.01 12.1633 1547.27 12.163 1579.71 12.1381C1569.46 12.2991 1549.36 12.2212 1540.34 12.2586C1537.1 12.2722 1539.02 12.4197 1533.56 12.4492C1522.31 12.5098 1468.59 12.3404 1454.6 12.3005C1463.19 12.2484 1460.68 12.0877 1454.05 12.0988C1447.41 12.11 1452.98 12.3244 1451.69 12.3475C1450.3 12.3713 1419.18 12.2701 1414 12.2979C1437.43 12.2202 1432.15 12.06 1412.26 12.0433C1415.14 11.9971 1418.01 11.951 1420.89 11.9048C1409.23 11.9697 1384.72 11.7253 1377.98 11.798C1376.93 11.8097 1380.72 11.9444 1380.13 11.951C1374.22 12.0082 1354.11 11.8708 1353.18 11.9168C1352.38 11.9551 1360.96 12.068 1357.78 12.1236C1357.11 12.1353 1348.85 11.9532 1340.7 11.998C1337.68 12.0144 1339.5 12.1418 1338.74 12.1492C1332.39 12.2105 1336.14 11.996 1324.54 12.0304C1316.05 12.056 1309.72 12.2657 1297.98 12.1962C1336.53 12.4636 1304.13 12.3519 1288.01 12.4329C1285.43 12.4459 1287.64 12.6771 1272.21 12.5645C1305.05 12.1463 1262.84 12.3435 1254.21 12.3389C1253.74 12.3375 1253.58 12.185 1249.34 12.1826C1248.98 12.1827 1249.5 12.2858 1245.56 12.2936C1208.24 12.3682 1232.1 12.2517 1225.01 12.1501C1221.99 12.1068 1203.84 12.2525 1198.96 12.256C1197.83 12.2564 1198.35 12.1493 1194 12.1535C1186.31 12.1612 1179.41 12.2752 1174.33 12.2842C1173.74 12.2848 1173.72 12.1158 1164.09 12.1706C1161.38 12.1859 1158.34 12.2459 1162.19 12.2945C1174.94 12.4543 1199.12 12.1777 1213.53 12.3372C1226.67 12.4825 1185.24 12.4962 1183.08 12.497C1182.29 12.4976 1190.38 12.4136 1182.16 12.397C1175.14 12.3832 1162.31 12.6751 1151.85 12.6115C1151.05 12.6068 1142.69 12.3593 1143.07 12.3449C1143.42 12.3344 1156.26 12.2807 1154.4 12.209C1154.18 12.2009 1146.02 12.2025 1144.95 12.1492C1143.65 12.0843 1140.13 11.4474 1138.39 11.4314C1133.92 11.392 1136.83 11.5372 1133.93 11.5271C1127.73 11.5058 1106.22 11.3175 1105.52 11.5382C1109.08 11.5513 1112.63 11.5644 1116.18 11.5776C1096.41 11.6003 1104.84 11.6942 1102.04 11.7356C1099.02 11.7804 1099.87 11.5864 1093.2 11.5682C1091.75 11.5641 1063.87 11.6047 1064.37 11.6861C1079.8 11.5565 1074.08 11.7963 1074.79 11.8006C1077.49 11.8162 1080.94 11.6817 1084.57 11.6844C1110.07 11.7054 1084.35 11.9177 1090.37 11.9723C1092.44 11.9907 1096.57 11.8759 1097.45 11.8818C1100.31 11.9008 1100.35 12.0512 1102.26 12.039C1106.71 12.0108 1101.51 11.798 1101.87 11.7869C1105.84 11.6537 1121.41 11.8194 1111.72 12.051C1117.54 12.1344 1118.22 11.853 1122.83 11.9655C1132.01 12.1883 1118.26 12.131 1114.54 12.168C1101.18 12.3014 1097.22 12.1934 1078.31 12.2304C1071.5 12.2434 1063.44 12.3801 1060.28 12.3876C1058.29 12.3924 1039.5 11.9168 1038.94 12.6611C1031.64 12.5891 1020.18 12.0986 1012.65 12.121C1005.9 12.1415 1008.04 12.4048 1007.41 12.415C1006.45 12.431 998.278 12.4102 995.514 12.4475C992.276 12.4914 993.892 12.5919 988.754 12.6329C975.969 12.7346 976.304 12.4658 974.989 12.4483C959.733 12.2464 966.413 12.6287 963.028 12.6594C959.88 12.6876 915.718 12.5404 906.423 12.6372C910.205 12.5833 913.988 12.5295 917.771 12.4757C911.002 12.308 903.826 12.5815 903.7 12.2808C902.326 12.7662 888.353 12.4418 884.156 12.4543C882.502 12.4595 882.632 12.5422 880.562 12.5457C872.475 12.5602 854.241 12.4944 849.855 12.5363C830.884 12.7169 879.392 13.0172 883.212 13.0354C875.567 13.03 832.318 13.1387 852.198 13.3721C855.271 13.4081 860.716 13.1909 862.442 13.1823C874.124 13.1264 864.937 13.3211 865.852 13.3396C867.41 13.3695 875.098 13.1813 877.127 13.2037C877.804 13.2109 873.445 13.3871 884.586 13.3909C879.106 13.5617 847.792 13.4225 843.684 13.4626C842.22 13.477 851.394 13.8421 824.595 13.4874C824.906 13.5213 825.216 13.5552 825.527 13.5891C810.605 13.6031 795.683 13.617 780.761 13.631C782.382 13.5529 790.761 13.396 780.209 13.4293C774.133 13.4486 778.628 13.6225 778.074 13.6276C772.622 13.6754 676.13 13.6176 657.43 13.637C651.069 13.6433 633.338 13.783 631.986 13.7856C623.901 13.7996 595.273 13.7086 589.562 13.7284C585.996 13.7411 589.387 13.8865 586.201 13.8796C583.24 13.8731 586.307 13.7326 585.428 13.7267C578.143 13.6758 522.802 13.8601 509.66 13.7275C517.692 13.7673 557.772 13.4865 556.966 13.3874C556.792 13.3738 547.051 13.2669 545.042 13.3191C541.722 13.1974 530.324 13.5679 524.124 13.4951C523.423 13.4868 526.184 13.279 515.12 13.2413C511.308 13.2284 501.328 13.3904 491.283 13.2088C476.741 13.2961 400.285 13.0266 395.04 13.2499C394.884 13.2616 405.65 13.3385 398.376 13.4302C388.706 13.552 397.391 13.1417 386.121 13.1063C384.422 13.1009 353.066 13.1424 352.04 13.1678C342.543 13.3981 369.942 13.4914 369.559 13.5182C368.603 13.5856 345.837 13.6264 344.912 13.6105C344.031 13.5939 362.598 13.2888 340.287 13.4045C342.843 13.441 345.399 13.4774 347.955 13.5139C337.462 13.5849 336.462 13.3738 333.92 13.3609C326.018 13.3201 317.469 13.6407 304.808 13.2447C301.46 13.1396 307.018 13.0229 306.599 13.0072C302.577 12.8657 297.446 13.2441 291.399 12.9619C290.943 12.9408 305.017 12.7718 280.419 12.7713C282.112 12.7984 283.805 12.8254 285.498 12.8525C282.029 12.9129 257.123 12.9488 253.772 12.9345C243.984 12.8928 252.52 12.6985 242.682 12.7218C248.992 12.988 219.075 13.0227 220.796 12.7935C216.617 13.0814 191.203 12.8593 179.256 12.8525C171.718 12.8484 156.342 12.974 153.947 12.9593C151.029 12.9413 151.916 12.745 146.647 12.7013C145.145 12.6888 129.461 12.8327 115.695 12.6295C113.027 12.5903 107.424 12.2573 112.383 12.174C120.87 12.0316 136.927 12.2999 136.722 12.1031C136.482 11.8926 114.855 12.0178 109.033 11.9903C82.1585 11.8632 97.6773 11.6394 96.9861 11.5716C95.1938 11.4069 80.5094 11.412 79.8966 11.3972C77.3572 11.3315 87.7629 11.2012 87.92 11.1007C88.1096 10.9699 73.9553 10.7338 77.1731 10.6897C81.7793 10.6271 94.7873 10.8239 95.6121 10.8145C106.348 10.6875 91.6322 10.3853 87.5765 10.2368C86.347 10.1911 91.2457 10.116 90.2264 10.1026C74.666 9.89934 86.9463 10.5274 76.5965 10.4855C67.3624 10.4481 79.2434 10.2495 78.8906 10.2385C78.4347 10.2265 67.394 10.2156 65.6656 10.1454C64.8138 10.1102 93.5104 9.72384 92.3119 9.55062C83.1559 9.58879 73.9998 9.62696 64.8437 9.66513C64.1259 9.43927 77.2954 9.60553 78.6576 9.58224C81.3997 9.53551 73.7533 9.42121 74.0816 9.34981C74.2576 9.30438 83.2319 9.14231 75.1243 9.0755C72.3379 9.05243 66.4903 9.21079 56.3419 9.04901C91.6599 8.84239 67.1851 8.71543 66.1441 8.63542C65.1243 8.55543 81.9854 8.36713 61.519 8.40043C60.6317 7.96088 61.9602 8.26149 67.7757 8.18423C74.9 8.08927 58.4345 7.94454 84.4726 8.05435C82.9913 7.84856 62.0627 7.86312 60.9547 7.8467C59.9979 7.83182 64.65 7.73059 62.9912 7.6963C43.3713 7.29866 56.8472 7.48024 51.1647 7.22631C50.6594 7.20362 32.1154 7.10948 46.233 7.0725C71.9529 7.00527 82.7022 7.29689 87.0244 6.67344C68.0001 6.40262 44.9496 6.80504 39.1665 6.81187C30.3148 6.82169 39.4844 6.69454 38.3937 6.65891C38.0148 6.6474 30.3869 6.6579 30.2844 6.6478C24.8453 6.17229 64.242 6.63991 76.6456 6.55722C73.3209 6.48601 69.9963 6.4148 66.6716 6.34359C71.1822 6.34074 75.6928 6.33789 80.2033 6.33504C58.715 6.1919 79.4457 6.28085 84.8039 5.89582C86.0068 5.80931 71.8898 5.95767 87.9936 5.71722C76.1162 5.66172 79.9046 5.58305 69.1498 5.69159C69.4273 5.53726 93.6251 5.36317 103.169 5.28398C69.4522 5.11055 88.6798 5.67663 59.5316 5.37712C54.1264 5.56822 68.0392 5.53101 66.9047 5.56255C62.8343 5.67597 53.2922 5.49588 41.7797 5.89325C39.9051 5.9585 47.837 6.15931 36.0995 6.14961C34.8013 6.14824 27.3223 5.97662 27.426 5.96418C28.4175 5.82977 35.8185 5.88014 36.1241 5.82404C36.4108 5.77093 28.1538 5.80287 28.1253 5.78815C27.8715 5.61976 35.0146 5.72379 33.9771 5.67108C31.7367 5.55643 2.03614 5.19408 40.7982 5.30021C8.60218 5.49058 36.6761 5.48614 49.2141 5.41301C52.4115 5.39468 53.2213 5.2941 57.7772 5.2592C63.6377 5.21399 70.497 5.26227 73.5295 5.24382C76.7909 5.22347 58.2595 4.98573 85.0615 5.05667C71.4211 4.82019 47.3271 5.07232 33.9281 4.90628C6.89498 4.57075 52.7767 4.49871 57.5564 4.4662C58.8298 4.45739 54.5607 4.32156 55.4095 4.31324C56.7976 4.30047 82.8374 4.36326 85.405 4.25086C87.9657 4.13856 75.8672 4.25603 75.063 4.13892C74.5179 4.06007 105.931 3.92021 88.9259 3.86632C77.2053 3.82938 55.6012 4.14629 51.9622 3.80565C69.1988 3.77745 86.4356 3.74925 103.672 3.72105C94.2381 3.59145 84.8039 3.46185 75.3697 3.33224C94.716 3.29114 111.441 3.43746 129.816 3.25192C85.6622 2.83662 144.152 2.92049 144.795 2.86995C145.01 2.83972 127.631 2.50263 124.835 2.44097C140.235 2.3113 187.029 2.24793 159.652 1.8317C164.621 1.92568 176.654 1.69369 176.496 1.67618C174.968 1.49229 148.722 1.61153 153.002 1.44545C157.963 1.25272 164.914 1.51419 172.545 1.49331C211.706 1.38445 200.962 0.424502 240.228 0.576402C239.447 0.542221 238.666 0.50804 237.885 0.473859C280.566 0.528264 323.247 0.582669 365.927 0.637073C382.626 0.343923 427.068 0.165415 448.897 0.197848C453.292 0.204164 474.872 0.358016 476.5 0.384988C479.515 0.436682 462.934 0.456407 470.427 0.55333C472.009 0.573224 508.543 0.637869 505.931 0.473859C501.837 0.454843 489.025 0.537286 486.928 0.49864C472.197 0.222801 584.829 0.443167 590.409 0.332008C587.914 0.278743 585.42 0.225477 582.925 0.172212C590.033 0.198417 597.14 0.224623 604.247 0.250828ZM277.658 13.4233C273.393 13.5879 262.702 13.4643 256.386 13.5105C247.658 13.5752 232.823 14.2089 239.21 13.5737C252.026 13.5236 264.842 13.4735 277.658 13.4233ZM464.968 13.6686C456.374 13.5802 463.039 13.2254 470.083 13.3729C470.865 13.3897 476.595 13.7875 464.968 13.6686ZM374.871 13.5002C375.233 13.4955 382.659 13.5049 382.919 13.5105C389.579 13.6529 367.188 13.6238 374.871 13.5002ZM810.106 13.3182C800.637 13.3335 807.494 13.656 813.382 13.5233C813.752 13.5149 810.729 13.3175 810.106 13.3182ZM803.371 13.3097C796.017 13.0209 781.205 13.6062 792.98 13.5472C794.122 13.5413 803.711 13.3237 803.371 13.3097ZM434.334 13.5276C435.301 13.4169 444.166 13.4703 447.952 13.4968C447.849 13.5979 438.047 13.5152 434.334 13.5276ZM659.098 13.4968C659.474 13.4098 628.662 13.4146 626.563 13.5293C631.426 13.4806 658.744 13.575 659.098 13.4968ZM738.117 13.3746C737.336 13.3596 726.691 13.3824 727.002 13.4592C732.198 13.5599 741.634 13.4427 738.117 13.3746ZM895.173 13.3797C895.751 13.3605 887.78 12.8719 906.668 13.1935C909.441 13.2405 899.537 13.3682 900.522 13.3857C902.586 13.4199 904.217 13.4359 905.527 13.4387C896.73 13.4792 887.592 13.4983 886.708 13.4686C882.557 13.3286 894.917 13.3878 895.173 13.3797ZM977.627 13.0157C979.44 12.936 991.015 12.9786 993.649 13.0114C994.102 13.0176 992.13 13.2271 997.342 13.2114C1001.53 13.1985 995.275 12.984 1003.43 13.0183C1011.66 13.0527 1000.66 13.2056 1001.38 13.2165C1002.34 13.2308 1015.09 13.1345 1014.69 13.2593C1014.39 13.3517 1000.74 13.2892 997.366 13.3088C993.044 13.3341 998.285 13.488 991.061 13.4549C986.521 13.4343 989.038 13.1636 988.079 13.1499C987.276 13.1389 971.408 13.2947 977.652 13.0166C977.644 13.0163 977.635 13.016 977.627 13.0157ZM907.907 13.4267C907.245 13.4359 906.468 13.4408 905.527 13.4387C906.326 13.435 907.121 13.4308 907.907 13.4267ZM302.489 13.3045C306.956 13.388 293.697 13.4951 288.675 13.3857C288.588 13.2975 301.778 13.2915 302.489 13.3045ZM916.066 13.2063C929.134 13.2741 919.522 13.3674 907.907 13.4267C911.595 13.3758 911.678 13.1836 916.066 13.2063ZM545.042 13.3191C545.592 13.3393 545.942 13.3707 545.986 13.4225C544.537 13.3659 544.408 13.3355 545.042 13.3191ZM575.528 13.4114C585.979 13.2538 564.745 13.2602 564.879 13.3729C564.942 13.4155 575.109 13.4176 575.528 13.4114ZM822.252 13.3336C821.296 13.3182 836.148 12.8424 814.584 13.1994C826.093 13.2555 813.95 13.3073 814.13 13.349C814.6 13.4687 833.932 13.3536 838.212 13.4054C841.564 13.1911 825.408 13.3844 822.276 13.3336C822.268 13.3336 822.26 13.3336 822.252 13.3336ZM1126.23 13.1311C1123.61 13.2566 1115.3 13.2162 1109.69 13.2088C1112.31 13.0833 1120.62 13.1237 1126.23 13.1311ZM2593.65 13.149C2555.23 13.2651 2550.25 12.7538 2585.41 12.9559C2586.1 12.9601 2595.99 13.0972 2593.65 13.149ZM2263.89 13.0166C2260.27 12.7937 2272.25 12.7579 2280.12 12.8499C2281.9 12.8706 2288.48 13.0963 2280.97 13.1405C2281.21 12.8704 2269.58 12.7672 2263.89 13.0166ZM923.451 13.0636C927.257 12.915 938.969 13.0207 945.141 13.0431C941.375 13.1654 928.909 13.1101 923.451 13.0636ZM2467.39 12.8824C2463.34 12.8655 2460.61 13.0594 2461.31 13.0755C2464.44 13.1495 2472.01 12.9928 2467.39 12.8824ZM885.641 13.0405C885.105 12.9517 900.619 12.8662 901.7 13.0858C898.383 13.0699 886.025 13.0962 885.641 13.0405ZM1115.66 13.0644C1113.25 13.0193 1125.72 12.9384 1129.49 12.9832C1129.19 13.0778 1117.23 13.0938 1115.66 13.0644ZM2402.19 12.9482C2398.56 12.9314 2389.5 12.9262 2388.5 13.0046C2387.25 13.1026 2400.53 13.0692 2402.19 12.9482ZM3077.01 12.779C3077.46 12.8142 3063.43 13.068 3057.19 13.0038C3045.35 12.8809 3076.51 12.7541 3077.01 12.779ZM2505.73 12.7824C2517.17 12.9668 2504.47 12.7882 2504.97 12.9824C2512.67 12.9894 2531.81 12.999 2518.65 12.8081C2516.08 12.7711 2509.32 12.795 2505.73 12.7824ZM2495.18 12.7175C2493.95 12.7804 2485.71 12.9787 2492.84 12.9644C2496.13 12.9576 2501.44 12.7373 2495.18 12.7175ZM2990.06 12.8653C2979.81 12.6934 3026.8 12.7857 3028.15 12.8158C3028.87 12.8317 3029.34 12.8466 3029.6 12.8593C3031.33 12.8049 3040.2 12.795 3041.23 12.9328C3038.57 12.9215 3031.3 12.9336 3030.46 12.9183C3030.1 12.9118 3029.82 12.9057 3029.64 12.8995C3026.51 13.0191 2992.03 12.8979 2990.06 12.8653ZM2912.2 12.6884C2923.93 12.4349 2926 12.866 2924.99 12.8798C2912.22 13.0563 2920.55 12.7384 2920.16 12.7235C2919.27 12.6987 2910.19 12.8462 2912.23 12.6884C2912.22 12.6884 2912.21 12.6884 2912.2 12.6884ZM2974.1 12.7944C2974.58 12.7888 2984.43 12.8021 2984.83 12.8089C2992.91 12.9538 2965.04 12.9167 2974.1 12.7944ZM1039.78 12.7141C1046.83 12.7569 1039.91 12.9155 1035.23 12.8585C1034.84 12.8529 1033.56 12.6762 1039.78 12.7141ZM2489.55 12.7602C2487.91 12.7302 2446.1 12.6172 2448.61 12.8568C2452.16 12.8285 2499.69 12.9518 2489.55 12.7602ZM2177.04 12.7021C2184.42 12.704 2176.38 12.9299 2172.44 12.8457C2170.98 12.8144 2175.18 12.7018 2177.04 12.7021ZM864.724 12.8354C857.067 12.9595 858.65 12.5431 865.288 12.6859C865.549 12.6915 865.024 12.8306 864.724 12.8354ZM2235.95 12.832C2210.52 12.9689 2216.54 12.2527 2249.61 12.4945C2248.57 12.5264 2247.54 12.5583 2246.5 12.5902C2284.67 12.6976 2249.11 12.6406 2239.77 12.6807C2236.22 12.696 2239.2 12.8155 2235.98 12.8328C2235.97 12.8326 2235.96 12.8323 2235.95 12.832ZM2138.26 12.6884C2113.77 12.1801 2160.53 12.5111 2173.94 12.4449C2160.94 12.6548 2144.01 12.6231 2167.03 12.838C2133.37 12.8795 2147.38 12.6771 2146.04 12.6602C2144.45 12.6414 2139.31 12.7103 2138.26 12.6884ZM2202.87 12.685C2204.28 12.6702 2214.95 12.7737 2218.79 12.7568C2213.42 12.9305 2193.47 12.7859 2202.87 12.685ZM2830.56 12.8064C2831.45 12.6703 2833.64 12.5701 2842.06 12.6209C2839.46 12.6893 2834.08 12.7481 2830.56 12.8064ZM269.561 12.7072C263.764 12.6975 252.22 12.6462 255.76 12.7893C256.147 12.8015 269.544 12.7875 269.561 12.7072ZM2368.09 12.65C2366.86 12.6333 2334.97 12.622 2345.99 12.7722C2349.31 12.8175 2378.32 12.7982 2368.09 12.65ZM2533.22 12.6671C2530.55 12.6656 2519.71 12.6913 2519.48 12.7235C2518.75 12.8347 2532.06 12.7736 2533.22 12.6671ZM240.314 12.5679C239.551 12.5538 221.843 12.5788 223.789 12.6449C227.484 12.7697 242.931 12.6166 240.314 12.5679ZM1065.43 12.3953C1066.91 12.3903 1068.87 12.5381 1069.38 12.5397C1070.58 12.5419 1097.68 12.485 1087.33 12.6748C1085.6 12.7066 1046.61 12.6337 1041.54 12.6149C1039.58 12.412 1056.24 12.6051 1060.29 12.5842C1061 12.5802 1061.46 12.4105 1065.42 12.3962C1065.42 12.3959 1065.43 12.3956 1065.43 12.3953ZM2874.42 12.6628C2875.62 12.5338 2907.47 12.4484 2907.1 12.6047C2896.21 12.6241 2885.32 12.6434 2874.42 12.6628ZM2858.24 12.6414C2851.44 12.5502 2867.36 12.52 2872.05 12.5603C2872.1 12.647 2859.23 12.6548 2858.24 12.6414ZM2472.8 12.1851C2469.6 12.2167 2479.44 12.4049 2477.24 12.4415C2475.83 12.4643 2468.68 12.3937 2466.4 12.4526C2465.75 12.4713 2473.05 12.6482 2475.16 12.6406C2478.15 12.6304 2475.25 12.4911 2478.52 12.4902C2489.38 12.4872 2499.01 12.5865 2509.19 12.5842C2510.11 12.5837 2502.98 12.4854 2510.82 12.4868C2512.03 12.4868 2519.31 12.6332 2528.69 12.6115C2549.41 12.158 2564.63 12.6033 2590.92 12.4398C2589.93 12.3971 2570.26 12.2825 2569.11 12.2783C2547.13 12.2037 2507.76 12.1955 2484.74 12.1945C2478.83 12.1941 2481.7 12.2901 2479.16 12.2936C2477.15 12.2962 2479.54 12.1185 2472.8 12.1851ZM272.641 12.609C269.878 12.4314 260.184 12.5438 253.993 12.5346C256.173 12.6948 266.591 12.5696 272.641 12.609ZM2715.22 12.5039C2712.12 12.5107 2702.49 12.4572 2701.7 12.5107C2700.68 12.5805 2714.56 12.6245 2715.22 12.5039ZM1218.22 12.4457C1218.52 12.4409 1225.98 12.4504 1226.26 12.456C1232.93 12.5985 1210.54 12.5693 1218.22 12.4457ZM1396.8 12.4799C1402.46 12.458 1408.18 12.4025 1410.08 12.5466C1406.47 12.5245 1396.14 12.5803 1396.8 12.4799ZM1643.18 12.4757C1642.01 12.287 1659.05 12.4092 1662.27 12.4261C1661.08 12.5099 1644.04 12.6116 1643.18 12.4757ZM2829.34 12.2142C2839.75 12.2253 2837.55 11.9396 2844.17 12.0689C2845.25 12.0908 2848.74 12.6858 2837.29 12.4628C2835.23 12.4228 2843.29 12.2814 2829.34 12.2142ZM2254.99 12.5004C2257.64 12.3756 2265.92 12.4127 2271.52 12.4227C2270.26 12.5154 2258.97 12.4915 2254.99 12.5004ZM208.331 12.4252C203.446 12.2491 180.871 12.3798 186.457 12.4962C187.252 12.5114 205.165 12.4186 208.331 12.4252ZM949.938 12.4945C959.226 12.3557 939.988 12.3127 933.916 12.4483C936.665 12.4394 949.312 12.5036 949.938 12.4945ZM1584 12.3731C1584.45 12.3674 1594.3 12.3808 1594.74 12.3876C1602.81 12.5325 1574.94 12.4954 1584 12.3731ZM1338.08 12.2509C1341.62 12.1367 1364.95 12.2289 1370.18 12.3432C1365.15 12.5101 1333.67 12.3935 1338.08 12.2509ZM2786.47 12.2954C2793.9 12.2894 2800.95 12.3246 2807.78 12.374C2806.34 12.4701 2787.26 12.3672 2786.47 12.2954ZM1620.16 12.3612C1620.68 12.3619 1621.2 12.3728 1621.7 12.374C1621.18 12.3699 1620.66 12.3652 1620.16 12.3612ZM2620.13 12.2278C2613.9 12.1899 2615.19 12.366 2615.58 12.3714C2620.26 12.4284 2627.18 12.2707 2620.13 12.2278ZM265.525 12.3475C263.366 12.1885 252.891 12.3118 246.865 12.274C248.614 12.3995 260.671 12.3642 265.525 12.3475ZM2112.03 12.3629C2104.21 12.1905 2136.04 11.9903 2142.75 12.1014C2143.25 12.2079 2113.18 12.3864 2112.03 12.3629ZM921.096 12.256C920.471 12.1315 907.104 12.2818 909.944 12.3406C911.743 12.3781 921.469 12.3334 921.096 12.256ZM2158.76 12.174C2161.75 12.136 2168.73 12.2589 2166.27 12.3338C2163.12 12.4298 2157.99 12.1849 2158.76 12.174ZM2427.13 12.074C2425.82 12.055 2408.23 12.1828 2415.5 12.3099C2420.54 12.3982 2421.34 12.2181 2422.53 12.2176C2423.85 12.2182 2452.09 12.4385 2427.13 12.074ZM1933.73 12.2543C1940.36 12.2064 1948.39 12.262 1955.33 12.2586C1952.5 12.3356 1936.55 12.3566 1933.73 12.2543ZM972.646 12.2227C971.035 12.1724 927.133 12.142 952.073 12.2971C953.527 12.3058 977.541 12.3753 972.646 12.2227ZM2829.34 12.2142C2828.02 12.2128 2826.51 12.2068 2824.75 12.1945C2826.49 12.1994 2828.01 12.2078 2829.34 12.2142ZM2711.02 12.1954C2713.42 12.1047 2701.34 12.0805 2697.77 12.1287C2696.68 12.2395 2710.69 12.208 2711.02 12.1954ZM1955.86 12.1321C1959.86 12.0803 1967.12 12.1356 1972.08 12.1296C1971.24 12.2139 1957.59 12.2178 1955.86 12.1321ZM1674.86 12.0373C1682.81 12.0874 1692.58 12.0643 1692.73 11.9612C1692.9 11.9773 1693.28 11.9945 1693.92 12.0117C1694.57 12.0287 1703.08 11.9807 1706.78 12.0159C1728.92 12.225 1621.28 12.1387 1683.67 11.8476C1680.73 11.9108 1677.8 11.9741 1674.86 12.0373ZM1306.51 12.0082C1302 11.8827 1289.37 12.04 1292.65 12.0894C1294.93 12.1233 1311.03 12.1346 1306.51 12.0082ZM1480.05 11.9339C1478.71 11.9115 1466.37 11.9994 1466.06 12.0655C1473.15 12.1351 1486.2 12.0379 1480.05 11.9339ZM1271.84 11.8613C1269.01 11.8423 1265.4 12.0447 1265.73 12.0535C1268.61 12.1274 1276.59 11.9739 1271.84 11.8613ZM2807.76 11.669C2803.55 11.611 2790.12 11.7575 2787.2 11.8912C2786.65 11.8653 2785.19 11.8316 2782.5 11.7912C2782.51 11.7912 2782.51 11.7912 2782.52 11.7912C2778.89 11.7372 2670.38 11.6782 2743.17 11.9356C2745.44 11.9438 2742.33 11.8239 2751.61 11.845C2752.22 11.8466 2752.52 11.9445 2754.42 11.9493C2758.77 11.9596 2781.97 12.0213 2786.63 11.9424C2786.67 11.9606 2786.97 11.9779 2787.61 11.9937C2793.33 12.135 2811.03 11.7137 2807.76 11.669ZM1504.5 11.9159C1502.02 11.8797 1494.17 11.9141 1493.35 12.0005C1497.25 12.0429 1510.27 12.0006 1504.5 11.9159ZM971.284 11.8681C966.228 11.797 953.414 11.9299 957.287 12.0005C959.661 12.044 977.116 11.9497 971.284 11.8681ZM1425.82 11.9621C1454.81 12.0643 1432.74 11.9538 1437.18 11.8271C1433.39 11.8721 1429.6 11.9171 1425.82 11.9621ZM2941.95 11.9963C2937.32 11.9671 2942.76 11.717 2947.85 11.8527C2949.44 11.8958 2944.53 12.0121 2941.95 11.9963ZM3150.71 11.9185C3146.77 11.6967 3166.04 11.827 3158.53 11.9792C3158.18 11.9843 3150.99 11.9269 3150.71 11.9185ZM3004.83 11.8279C3001.69 11.9789 2999.65 11.9968 2990.81 11.9595C3003.9 11.917 2991.76 11.7834 3004.83 11.8279ZM1692.65 11.945C1692.7 11.9511 1692.74 11.9556 1692.73 11.9612C1692.68 11.9557 1692.65 11.9504 1692.65 11.945ZM1244.58 11.9006C1240.95 11.7726 1230.78 11.7821 1233.81 11.9108C1234.1 11.9227 1243.09 11.9951 1244.58 11.9006ZM2787.2 11.8912C2787.68 11.9141 2787.43 11.9289 2786.63 11.9424C2786.59 11.9253 2786.8 11.9092 2787.2 11.8912ZM1299.2 11.7963C1298.83 11.8917 1314.32 11.9289 1314.94 11.9177C1323.82 11.7521 1305.59 11.7906 1299.2 11.7963ZM868.919 11.7339C868.12 11.7439 873.27 11.9902 876.428 11.8937C878.872 11.8188 871.91 11.696 868.919 11.7339ZM3034.85 11.7664C3039.75 11.7666 3046.66 11.7665 3047.93 11.8835C3044.64 11.8655 3034.75 11.8523 3034.85 11.7664ZM3143.17 11.7579C3137.37 11.8954 3124.14 11.895 3115.69 11.8724C3115.53 11.6913 3137.73 11.8004 3143.17 11.7579ZM2821.06 11.7365C2820.65 11.7291 2808.36 11.6751 2810.04 11.7963C2812.49 11.9741 2824.52 11.8024 2821.06 11.7365ZM892.793 11.8647C898.29 11.7812 885.639 11.5247 879.838 11.7228C876.859 11.8243 891.866 11.8787 892.793 11.8647ZM1212.82 11.7331C1205.56 11.8032 1223.54 11.9282 1226.06 11.8014C1222.71 11.7913 1215.4 11.7082 1212.82 11.7331ZM1459.67 11.6049C1436.8 11.2394 1449.26 11.9062 1453.31 11.8476C1453.88 11.8392 1460.22 11.6135 1459.67 11.6049ZM151.604 11.6946C148.367 11.7454 160.433 11.9294 161.995 11.8083C162.96 11.7325 153.673 11.6623 151.604 11.6946ZM1803.92 11.8425C1802.96 11.8436 1802 11.8448 1801.05 11.8459C1801.76 11.8399 1802.7 11.838 1803.92 11.8425ZM1146.96 11.2434C1163.06 11.7595 1161.37 11.3618 1162.76 11.3639C1165.79 11.3695 1172.81 11.509 1178.5 11.4861C1171.98 11.5442 1165.46 11.6023 1158.94 11.6604C1164.09 11.6977 1208.85 11.8877 1209.79 11.804C1211.13 11.6848 1197.05 11.7222 1196.64 11.7117C1196.05 11.6968 1193.85 11.3654 1192.54 11.3528C1190.39 11.3327 1152.96 11.3258 1146.96 11.2434ZM1411.86 11.6621C1415.53 11.7015 1416.58 11.8328 1418.28 11.8014C1418.87 11.7907 1418.96 11.6655 1420.95 11.6331C1417.92 11.6428 1414.89 11.6525 1411.86 11.6621ZM1118.15 11.7074C1113.59 11.5544 1134.02 11.6125 1134.67 11.6297C1138.16 11.7334 1121.87 11.8324 1118.15 11.7074ZM1291.47 11.6852C1290.72 11.6763 1275.04 11.6285 1275.17 11.7134C1279.31 11.7781 1300.29 11.797 1291.47 11.6852ZM1423.4 11.6246C1428.91 11.6392 1439.33 11.7652 1438.13 11.5767C1438.13 11.5767 1438.12 11.5767 1438.11 11.5767C1433.21 11.5926 1428.3 11.6086 1423.4 11.6246ZM911.612 11.4665C901.4 11.1662 906.238 11.5456 915.281 11.6425C918.02 11.5077 913.287 11.5153 911.612 11.4665ZM878.93 11.2426C876.089 11.1885 846.811 11.2478 851.278 11.4066C852.866 11.4633 869.702 11.3205 870.477 11.3314C871.653 11.3477 866.283 11.5235 875.262 11.4887C874.737 11.4291 879.903 11.2606 878.93 11.2426ZM903.16 11.2742C893.011 11.0458 890.731 11.467 898.363 11.4682C901.345 11.4689 904.607 11.3071 903.16 11.2742ZM944.614 11.3101C940.962 11.2701 931.235 11.2119 924.531 11.352C933.503 11.3639 942.475 11.3759 951.447 11.3878C952.481 11.3085 947.808 11.3452 944.589 11.3101C944.597 11.3101 944.605 11.3101 944.614 11.3101ZM3204.15 10.6786C3196.09 10.5591 3214.67 10.5134 3215.45 10.5427C3217.78 10.6401 3207.76 10.7319 3204.15 10.6786ZM88.6192 7.86806C86.3787 7.82044 84.914 7.66378 79.9825 7.74586C84.9429 7.86151 89.9033 7.97715 94.8637 8.0928C98.7186 7.82782 91.0681 7.92058 88.6192 7.86806ZM69.6773 6.89988C70.378 6.89347 66.5504 6.48601 75.6028 6.75803C81.7191 6.94171 48.4583 7.12072 42.4544 6.94005C49.0884 6.85609 63.6456 6.9522 69.6773 6.89988ZM11.4161 5.13615C11.0326 5.10365 23.6692 5.05599 25.1318 5.07889C32.812 5.19964 13.491 5.31023 11.4161 5.13615ZM51.7291 5.21391C45.8028 5.13478 58.9314 5.08377 62.844 5.12931C63.2235 5.20515 52.6446 5.22543 51.7291 5.21391ZM3122.5 4.77724C3116.08 4.50032 3110.35 5.09646 3120.21 4.97635C3120.68 4.9707 3122.77 4.79081 3122.5 4.77724ZM23.7701 4.72512C29.6964 4.80425 16.5678 4.85525 12.6552 4.80972C12.2913 4.73396 22.8677 4.71355 23.7701 4.72512ZM3117.98 4.11755C3109.46 3.91828 3112.46 4.58708 3113.53 4.61403C3117.91 4.72047 3132.94 4.45797 3136.01 4.39271C3113.52 4.49307 3121.99 4.21146 3117.98 4.11755ZM3078.7 4.51918C3070.8 4.59053 3090.99 4.72699 3094.84 4.54054C3090.92 4.54946 3080.95 4.49855 3078.7 4.51918ZM3030.74 4.30469C3026.49 4.28074 3013.86 4.22339 3011.74 4.32862C3016.38 4.30957 3028.95 4.41297 3030.74 4.30469ZM3021.12 3.98937C3014.48 3.84639 3012.89 4.263 3020.55 4.13892C3020.85 4.13411 3021.37 3.99732 3021.12 3.98937ZM2983.79 3.83898C2979.44 3.6733 2974.46 4.07677 2981.52 4.08764C2983.62 4.09013 2984.25 3.85797 2983.79 3.83898ZM3107.32 3.39804C3101.08 3.3269 3093.04 3.61583 3106.36 3.64756C3101.69 3.69171 3097.01 3.73586 3092.33 3.78001C3109.77 3.94197 3108.49 3.54127 3113.5 3.55784C3120.5 3.58138 3119.95 3.91203 3118.54 4.01586C3124.28 3.81329 3148.67 3.81004 3162.76 3.77147C3150.37 3.68645 3130.28 3.53907 3118.05 3.4852C3114.56 3.46961 3111.18 3.56029 3108.2 3.55015C3103.43 3.5334 3107.67 3.40283 3107.34 3.39804C3107.34 3.39804 3107.33 3.39804 3107.32 3.39804ZM2934.72 3.833C2921.92 3.64531 2930.01 4.05053 2937.25 3.97826C2937.56 3.9727 2935.04 3.83758 2934.72 3.833ZM6.79103 3.49375C23.8983 3.66312 11.4634 3.8876 47.2512 3.54673C32.2159 3.78805 46.4197 3.72028 43.4849 3.81761C41.1306 3.89462 32.3089 3.83085 37.4367 3.98596C30.6966 3.81713 1.43404 3.86383 0.129457 3.83641C0.141725 3.83641 0.153993 3.83641 0.166261 3.83641C-0.61728 3.82017 1.33214 3.43988 6.79103 3.49375ZM3030.68 3.24508C3026.41 2.75341 3024.74 3.5338 3016.34 3.1263C3005.16 3.71804 3047.22 3.12639 3052.31 3.6262C3006.64 3.56813 3082.49 4.12145 3050.6 3.37326C3076.87 3.64481 3059.21 3.2806 3063.26 3.18527C3067.6 3.08371 3082.46 3.19408 3081.7 3.01094C3081.7 3.01094 3081.69 3.01094 3081.68 3.01094C3072.59 3.02376 3063.51 3.03658 3054.42 3.0494C3063.31 3.44445 3044.75 3.32599 3038.45 3.00411C3035.86 3.08443 3033.27 3.16476 3030.68 3.24508ZM3082.11 3.61595C3081.21 3.6069 3061.45 3.66227 3062.73 3.74156C3065.37 3.79213 3093.41 3.7315 3082.11 3.61595ZM3169.09 3.52964C3161.99 3.52868 3151.02 3.45161 3147.15 3.60056C3154.25 3.60157 3165.23 3.67868 3169.09 3.52964ZM2803.68 3.50144C2794.64 3.62368 2822.49 3.65989 2814.43 3.51511C2814.03 3.5083 2804.13 3.49573 2803.68 3.50144ZM3010.11 3.31943C3000.91 3.16917 3005.26 3.64743 3012.07 3.5228C3012.46 3.51546 3010.53 3.32628 3010.11 3.31943ZM20.654 3.43564C21.2692 3.31846 46.0902 3.40077 50.49 3.39975C47.9902 3.50867 19.9483 3.56997 20.654 3.43564ZM3181.58 3.09127C3167.46 2.66993 3148.3 3.15659 3146.2 3.14596C3144.11 3.13512 3147.38 2.95094 3146.91 2.946C3145.82 2.93567 3123.57 2.95112 3122.5 2.96394C3121.73 2.97394 3125.75 3.23277 3121.16 3.3143C3130.12 3.16723 3170.79 3.25924 3172.9 3.23056C3174.54 3.20765 3162.21 2.93585 3181.55 3.09127C3181.56 3.09127 3181.57 3.09127 3181.58 3.09127ZM3140.95 3.08956C3146.51 3.19805 3130.92 3.21163 3127.15 3.17159C3118.76 3.082 3140.23 3.0767 3140.95 3.08956ZM3103.46 2.98958C3101.67 2.96525 3085.61 2.94314 3084.24 3.06392C3091.85 3.22061 3107.49 3.04628 3103.46 2.98958ZM2924.68 3.00582C2920.51 3.02129 2909.04 2.92847 2908.38 3.03401C2912.56 3.01862 2924.03 3.11137 2924.68 3.00582ZM105.341 2.51446C98.4088 2.42615 114.469 2.39007 119.155 2.43243C119.409 2.50283 105.931 2.52205 105.341 2.51446ZM3008.55 2.31023C3006.08 2.27814 2955.68 2.35822 2948.61 2.40765C2955.52 2.48746 3005.47 2.4936 3007.74 2.45465C3008.4 2.44298 3008.86 2.31528 3008.55 2.31023ZM3117.55 2.26152C3122.17 2.1061 3125.19 2.29251 3125.77 2.29485C3131.49 2.31863 3143.34 2.28359 3140.74 2.43328C3130.65 2.37289 3108.35 2.57017 3117.55 2.26152ZM2921.1 2.30254C2903.99 2.36022 2936.86 2.52396 2932.55 2.3615C2932.27 2.35168 2922.87 2.29649 2921.1 2.30254ZM3014.18 2.26494C3017.95 2.13936 3068.37 2.24766 3076.47 2.24785C3069.22 2.47949 3063.37 2.30355 3053.63 2.31536C3051.01 2.31882 3051.71 2.41519 3051.43 2.41534C3046.88 2.4198 3050.28 2.3085 3047.48 2.30681C3045.7 2.30605 3008.87 2.44189 3014.18 2.26494ZM3120.19 2.15385C3123.01 2.06476 3154.49 2.02678 3155.75 2.05046C3165.23 2.22655 3122.64 2.18487 3120.19 2.15385ZM3009.56 2.059C3014.98 1.78979 3040.01 1.97008 3022.88 2.10429C3021.24 2.1165 3014.31 1.9998 3009.56 2.059ZM2922.93 2.04618C2922.09 2.03827 2904.25 1.98446 2903.93 2.07011C2906.5 2.1034 2932.51 2.13326 2922.93 2.04618ZM2932.18 1.7565C2931.75 1.75855 2935.93 1.92353 2927.57 1.90262C2926.87 1.90066 2925.57 1.71504 2915.05 1.78299C2912.92 1.79698 2909.61 1.91977 2909.85 1.92741C2920.8 2.2187 2953.78 1.6608 2932.18 1.7565ZM3120.77 2.00346C3119.07 1.92511 3123.16 1.69257 3126.85 1.81034C3128.43 1.86118 3125.48 2.00074 3120.77 2.00346ZM2866.35 1.97099C2876.72 1.82996 2844.16 1.8033 2842.5 1.83939C2843.55 1.92724 2865.31 1.98476 2866.35 1.97099ZM121.571 1.4258C121.563 1.4258 121.555 1.4258 121.547 1.4258C130.272 1.45776 124.868 1.57507 125.276 1.57876C143.862 1.75108 138.932 1.48536 141.838 1.454C148.07 1.38618 147.066 1.70931 157.578 1.57534C140.202 1.77318 156.019 1.69025 156.511 1.80521C158.458 2.27436 133.376 1.58553 124.712 1.68387C123.505 1.69748 132.418 1.84721 129.325 1.88981C119.269 2.02782 88.0907 1.3036 121.571 1.4258ZM3129.7 1.78983C3133.74 1.65202 3164.45 1.78568 3156.31 1.89921C3155 1.91741 3123.75 1.99069 3129.7 1.78983ZM1695.43 1.58645C1702.81 1.46719 1685.71 1.327 1682.54 1.41982C1680.97 1.46606 1692.19 1.63879 1695.43 1.58645ZM1575.52 1.0763C1566.76 1.10051 1557.51 1.59783 1568.42 1.52065C1569.58 1.51222 1576.53 1.14528 1575.52 1.0763ZM2151.29 1.3318C2142.14 1.15408 2142.68 1.48429 2149.4 1.47963C2151.78 1.47804 2151.58 1.33743 2151.29 1.3318ZM1801.85 1.37453C1800.93 1.363 1790.35 1.38409 1790.73 1.45998C1794.64 1.50551 1807.77 1.45365 1801.85 1.37453ZM2154.2 1.2848C2148.77 1.34432 2158.11 1.58316 2164.75 1.34975C2161.38 1.36889 2154.76 1.27872 2154.2 1.2848ZM2990.64 1.32924C2986.09 1.46483 2973.23 1.42386 2965.84 1.44716C2965.05 1.27149 2985.36 1.36109 2990.64 1.32924ZM1612.75 1.27626C1604.45 1.40007 1622.23 1.50143 1620.6 1.33778C1620.37 1.32889 1613.07 1.27098 1612.75 1.27626ZM2446.68 1.26686C2440.65 1.37165 2459.81 1.51257 2454.53 1.32838C2454.27 1.32087 2447.01 1.26103 2446.68 1.26686ZM2530.34 1.32753C2525.76 1.29218 2506.24 1.30306 2513.84 1.40529C2515.02 1.421 2529.99 1.42351 2530.34 1.32753ZM142.354 1.32753C139.887 1.14707 154.204 1.19003 156.253 1.22157C157.058 1.23469 145.57 1.56232 142.354 1.32753ZM2091.83 1.3036C2087.09 1.32618 2074.8 1.28328 2072.64 1.37795C2078.44 1.35835 2093.39 1.49219 2091.83 1.3036ZM1650.59 1.2754C1643.37 1.07931 1631.01 1.09866 1634.07 1.35487C1647.71 1.3377 1632.38 1.12459 1650.59 1.2754ZM2184.71 1.07374C2180.91 1.05878 2178 1.30483 2178.43 1.31642C2182.54 1.42671 2188.48 1.16947 2184.71 1.07374ZM1899.64 1.27626C1899.42 1.17111 1887.24 1.21883 1888.86 1.28651C1889.4 1.30923 1899.81 1.36135 1899.64 1.27626ZM2831.15 1.26942C2825.57 1.17345 2842.61 1.07962 2847.65 1.19166C2850.1 1.35311 2831.86 1.28045 2831.15 1.26942ZM2290.06 1.13526C2290.62 0.979214 2271.59 1.06744 2279.09 1.19679C2280.97 1.22915 2289.86 1.18744 2290.06 1.13526ZM2472.27 0.94812C2459.51 1.13421 2513.12 1.26632 2499.03 1.03443C2498.02 1.0179 2473.39 0.932405 2472.27 0.94812ZM2559.83 1.06434C2557.63 1.04383 2558.73 0.519471 2567.84 0.721671C2569.04 0.747894 2563.44 0.886508 2564.42 0.918212C2564.99 0.93628 2584.82 1.00992 2585.73 0.997683C2586.71 0.983783 2585.56 0.81572 2586.55 0.796869C2587.67 0.775801 2599.88 0.923435 2606.27 0.925048C2618.31 0.927816 2619.61 0.787933 2620.6 0.78747C2623.47 0.786543 2628.31 0.885863 2634.14 0.88574C2663.53 0.884624 2708.49 0.766052 2731.79 1.06263C2711.06 0.94353 2691.29 1.06989 2670.66 1.10877C2676.7 0.816783 2640.31 1.33375 2661.6 0.996828C2651.79 1.06991 2567.05 1.12835 2559.86 1.06434C2559.85 1.06434 2559.84 1.06434 2559.83 1.06434ZM1540.92 0.929321C1546.3 0.750287 1518.66 0.790559 1516.32 0.997683C1519.97 1.02643 1540.25 0.949613 1540.92 0.929321ZM1668.43 0.492659C1671 0.461755 1673.43 0.111802 1686.89 0.289282C1686.91 0.289282 1686.92 0.289282 1686.93 0.289282C1690.87 0.341113 1686.38 0.426384 1687.1 0.456769C1687.37 0.469176 1699.64 0.643258 1689.45 0.671254C1673.9 0.714206 1687.98 0.410911 1679.69 0.407206C1678.68 0.406919 1662.99 0.596347 1663.9 0.637928C1664 0.642771 1668.72 0.602699 1669.5 0.619983C1672.44 0.68495 1671.01 0.794232 1671.42 0.799433C1672.78 0.812759 1697.59 0.626583 1701.2 0.789179C1702.37 0.84161 1661.65 0.962562 1660.06 0.935302C1659.06 0.918124 1659.48 0.614781 1658.45 0.584947C1657.91 0.570087 1641.53 0.683759 1639.4 0.655873C1638.79 0.647807 1638.32 0.639112 1637.97 0.631946C1640.45 0.725796 1625.61 0.719039 1626.07 0.613147C1626.33 0.571527 1636.54 0.595617 1636.9 0.602892C1637.06 0.605972 1637.2 0.610218 1637.33 0.613147C1635.22 0.498773 1669.78 0.503932 1662.32 0.333717C1672.34 0.240471 1660.9 0.583417 1668.43 0.492659ZM1716.6 0.305518C1715.56 0.33742 1714.53 0.369322 1713.49 0.401224C1731.03 0.32314 1751.28 0.476713 1771.48 0.475568C1776.61 0.47551 1770.71 0.280401 1777.43 0.333717C1782.82 0.376445 1788.78 0.557415 1785.85 0.597765C1785.13 0.607833 1774.17 0.489962 1768.69 0.502058C1752.49 0.53787 1756.58 0.705188 1755.63 0.709708C1754.59 0.714464 1744.39 0.596798 1738.83 0.602038C1724.83 0.615581 1718.43 0.718306 1699.31 0.584093C1710.35 0.47382 1704.3 0.234262 1716.6 0.305518ZM2370.45 0.661854C2371.12 0.55654 2382.59 0.649977 2386.77 0.63451C2386.11 0.740084 2374.62 0.646379 2370.45 0.661854ZM659.834 0.525131C656.308 0.69795 682.735 0.740742 675.77 0.596911C674.229 0.56499 663.155 0.52636 659.834 0.525131ZM778.553 0.630237C782.088 0.582457 767.853 0.458029 767.879 0.591783C767.9 0.634675 778.097 0.636451 778.553 0.630237ZM1943.35 0.475568C1944.02 0.470157 1953.74 0.508648 1954.04 0.51744C1960.49 0.700941 1928.48 0.594882 1943.35 0.475568ZM922.874 0.41746C910.553 0.530736 947.641 0.579832 936.308 0.435405C935.743 0.428371 923.467 0.411955 922.874 0.41746ZM974.425 0.385843C971.472 0.391914 958.355 0.335671 958.182 0.388407C957.92 0.473485 972.934 0.531617 974.425 0.385843ZM2187.27 0.420879C2185.85 0.226156 2203.15 0.373619 2209.16 0.349098C2210.59 0.543956 2193.28 0.396288 2187.27 0.420879ZM2078.1 0.277318C2151.02 0.123817 2134.94 0.539851 2073.76 0.372171C2073.67 0.24725 2073.5 0.286986 2078.1 0.277318ZM2171.47 0.300391C2168.82 0.425136 2160.54 0.388146 2154.95 0.378152C2155.95 0.291422 2167.44 0.32281 2171.47 0.300391ZM628.366 0.257664C632.94 0.100081 653.191 0.294354 649.59 0.359353C648.752 0.37339 626.687 0.344324 628.366 0.257664ZM1949.46 0.308936C1947.76 0.119562 1969.65 0.196808 1971.33 0.238865C1978.09 0.408028 1951.23 0.267139 1949.46 0.308936ZM2290.77 0.254246C2294.63 0.105913 2305.61 0.182206 2312.68 0.184175C2309.46 0.311011 2296.76 0.256915 2290.77 0.254246ZM2239.78 0.138031C2240.22 0.132337 2250.08 0.145729 2250.52 0.152558C2258.59 0.297438 2230.72 0.260334 2239.78 0.138031ZM109.475 0.00130694C109.803 -0.00347309 117.263 0.00598516 117.523 0.0115612C124.181 0.153975 101.792 0.124875 109.475 0.00130694Z" fill="black"/>
</svg>
