<!-- <svg width="30" height="30" viewBox="0 0 24 24" fill="none" xmlns="http://www.w3.org/2000/svg">
<g clip-path="url(#clip0_50_12)">
<path d="M21.9375 0.375H2.09998C1.16248 0.375 0.412476 1.125 0.412476 2.0625V21.9375C0.412476 22.8375 1.16248 23.625 2.09998 23.625H21.8625C22.8 23.625 23.55 22.875 23.55 21.9375V2.025C23.625 1.125 22.875 0.375 21.9375 0.375ZM7.27497 20.1375H3.86248V9.075H7.27497V20.1375ZM5.54998 7.5375C4.42498 7.5375 3.56248 6.6375 3.56248 5.55C3.56248 4.4625 4.46248 3.5625 5.54998 3.5625C6.63748 3.5625 7.53748 4.4625 7.53748 5.55C7.53748 6.6375 6.71247 7.5375 5.54998 7.5375ZM20.2125 20.1375H16.8V14.775C16.8 13.5 16.7625 11.8125 15 11.8125C13.2 11.8125 12.9375 13.2375 12.9375 14.6625V20.1375H9.52497V9.075H12.8625V10.6125H12.9C13.3875 9.7125 14.475 8.8125 16.1625 8.8125C19.65 8.8125 20.2875 11.0625 20.2875 14.1375V20.1375H20.2125Z" fill="black"/>
</g>
<defs>
<clipPath id="clip0_50_12">
<rect width="24" height="24" fill="black"/>
</clipPath>
</defs>
</svg> -->


<svg xmlns="http://www.w3.org/2000/svg" xmlns:xlink="http://www.w3.org/1999/xlink" version="1.1" width="256" height="256" viewBox="0 0 256 256" xml:space="preserve">
<g style="stroke: none; stroke-width: 0; stroke-dasharray: none; stroke-linecap: butt; stroke-linejoin: miter; stroke-miterlimit: 10; fill: none; fill-rule: nonzero; opacity: 1;" transform="translate(1.4065934065934016 1.4065934065934016) scale(2.81 2.81)">
	<path d="M 1.48 29.91 h 18.657 v 60.01 H 1.48 V 29.91 z M 10.809 0.08 c 5.963 0 10.809 4.846 10.809 10.819 c 0 5.967 -4.846 10.813 -10.809 10.813 C 4.832 21.712 0 16.866 0 10.899 C 0 4.926 4.832 0.08 10.809 0.08" style="stroke: none; stroke-width: 1; stroke-dasharray: none; stroke-linecap: butt; stroke-linejoin: miter; stroke-miterlimit: 10; fill: rgb(0,0,0); fill-rule: nonzero; opacity: 1;" transform=" matrix(1 0 0 1 0 0) " stroke-linecap="round"/>
	<path d="M 31.835 29.91 h 17.89 v 8.206 h 0.255 c 2.49 -4.72 8.576 -9.692 17.647 -9.692 C 86.514 28.424 90 40.849 90 57.007 V 89.92 H 71.357 V 60.737 c 0 -6.961 -0.121 -15.912 -9.692 -15.912 c -9.706 0 -11.187 7.587 -11.187 15.412 V 89.92 H 31.835 V 29.91 z" style="stroke: none; stroke-width: 1; stroke-dasharray: none; stroke-linecap: butt; stroke-linejoin: miter; stroke-miterlimit: 10; fill: rgb(0,0,0); fill-rule: nonzero; opacity: 1;" transform=" matrix(1 0 0 1 0 0) " stroke-linecap="round"/>
</g>
</svg>