<svg width="30" height="30" viewBox="0 0 24 24" fill="none" xmlns="http://www.w3.org/2000/svg">
<g clip-path="url(#clip0_50_12)">
<path d="M21.9375 0.375H2.09998C1.16248 0.375 0.412476 1.125 0.412476 2.0625V21.9375C0.412476 22.8375 1.16248 23.625 2.09998 23.625H21.8625C22.8 23.625 23.55 22.875 23.55 21.9375V2.025C23.625 1.125 22.875 0.375 21.9375 0.375ZM7.27497 20.1375H3.86248V9.075H7.27497V20.1375ZM5.54998 7.5375C4.42498 7.5375 3.56248 6.6375 3.56248 5.55C3.56248 4.4625 4.46248 3.5625 5.54998 3.5625C6.63748 3.5625 7.53748 4.4625 7.53748 5.55C7.53748 6.6375 6.71247 7.5375 5.54998 7.5375ZM20.2125 20.1375H16.8V14.775C16.8 13.5 16.7625 11.8125 15 11.8125C13.2 11.8125 12.9375 13.2375 12.9375 14.6625V20.1375H9.52497V9.075H12.8625V10.6125H12.9C13.3875 9.7125 14.475 8.8125 16.1625 8.8125C19.65 8.8125 20.2875 11.0625 20.2875 14.1375V20.1375H20.2125Z" fill="#6649d1"/>
</g>
<defs>
<clipPath id="clip0_50_12">
<rect width="24" height="24" fill="#6649d1"/>
</clipPath>
</defs>
</svg>
