<svg width="30" height="30" viewBox="0 0 24 24" fill="none" xmlns="http://www.w3.org/2000/svg">
<g clip-path="url(#clip0_50_9)">
<path d="M0.674975 12.0377C0.749975 15.5252 2.36248 19.0127 5.09998 21.1127C5.96248 21.7502 6.89998 22.1252 7.87498 22.5377C7.46248 19.8752 8.47498 17.2127 9.03748 14.5877C9.11248 14.3252 9.14998 14.0252 9.14998 13.7252C9.14998 13.3127 8.99998 12.9002 8.88748 12.4877C8.77498 11.8127 8.84997 11.1002 9.14998 10.4627C9.56248 9.60024 10.5375 8.92524 11.4 9.26274C12.1875 9.56274 12.4875 10.6127 12.3375 11.4377C12.1875 12.3002 11.7375 13.0502 11.5125 13.8752C11.25 14.7002 11.2875 15.7127 11.8875 16.2752C12.45 16.8002 13.35 16.8377 14.0625 16.5377C15.1125 16.0877 15.7875 15.0377 16.2 13.9877C16.95 12.0377 16.8 9.56274 15.2625 8.13774C14.625 7.50024 13.725 7.08774 12.75 6.93774C11.1 6.67524 9.29998 7.16274 8.13748 8.36274C6.97498 9.56274 6.44997 11.4002 6.93747 12.9752C7.08748 13.5002 7.38748 14.0252 7.49998 14.5502C7.61248 15.0752 7.57498 15.7502 7.19998 16.1252C7.16248 16.1627 7.12497 16.2002 7.04997 16.2377C6.97497 16.2752 6.86248 16.2002 6.78748 16.1627C6.07498 15.7127 5.51248 15.0002 5.17498 14.2502C4.12498 11.9627 4.64997 9.11274 6.29998 7.23774C7.94998 5.36274 10.6125 4.46274 13.0875 4.80024C15.4125 5.10024 17.7 6.48774 18.675 8.62524C19.275 9.90024 19.3875 11.3627 19.1625 12.7502C18.9375 14.1752 18.375 15.5252 17.4375 16.6127C16.5 17.7002 15.15 18.4502 13.725 18.5252C12.5625 18.6002 11.325 18.1877 10.725 17.2127C10.35 19.2377 9.63748 21.2252 8.58747 22.9877C8.54997 23.0627 10.9875 23.5877 11.2125 23.5877C13.9875 23.8127 16.95 22.7252 19.125 21.0002C25.125 16.2377 24.4875 7.12524 18.5625 2.62524C15.4875 0.26274 11.85 -0.18726 8.24998 1.08774C7.16247 1.46274 6.14998 2.10024 5.21248 2.77524C3.71247 3.90024 2.51247 5.36274 1.72497 7.05024C0.937475 8.58774 0.637475 10.3127 0.674975 12.0377Z" fill="#6649d1"/>
</g>
<defs>
<clipPath id="clip0_50_9">
<rect width="24" height="24" fill="#6649d1"/>
</clipPath>
</defs>
</svg>
