<svg width="1237" height="1000" viewBox="0 0 1237 1000" fill="none" xmlns="http://www.w3.org/2000/svg">
<path d="M320.877 142.35C344.171 156.351 375.409 176.475 402.84 196.14C395.411 178.49 388.98 154.707 394.777 123.24C398.447 103.32 403.76 84.0355 418.527 70.6302C433.167 57.3402 457.586 43.1866 487.597 33.3402C509.847 26.0402 532.688 21.3643 558.607 22.0702C583.207 22.7402 617.483 28.7252 650.597 45.8202C671.827 56.7802 691.543 71.291 705.497 92.5102C714.447 106.12 725.801 127.163 730.107 162.36C731.965 177.551 732.464 194.335 730.874 210.929C736.673 201.168 743.722 190.858 752.177 180.62C763.127 167.36 779.391 149.936 808.277 140.33C833.207 132.04 858.951 128.033 884.947 132.43C910.547 136.76 944.206 144.755 975.597 162.16C997.167 174.12 1015.89 184.831 1029.89 205.59C1047.85 232.22 1058.95 250.153 1058.08 260.2C1056.41 279.52 1051.22 300.206 1035.24 321.3C1024.77 335.12 1008.93 354.26 971.087 385.25C950.112 402.428 922.918 422.86 896.046 442.128C911.391 439.424 922.158 439.599 939.417 441.1C958.967 442.8 986.027 446.1 1019.96 455.23C1053.89 464.36 1093.49 478.88 1118.05 489.2C1142.61 499.52 1152.16 505.086 1163.27 514.55C1187.89 535.52 1206.72 552.743 1212.47 566.17C1218.45 580.14 1221.74 591.474 1216.36 600.51C1207.03 616.16 1197.36 628.889 1177.47 637.52C1161.89 644.28 1135.49 654.84 1110.39 663.52C1085.29 672.2 1062.19 678.8 1037.04 684.48C1011.89 690.16 985.487 694.78 962.087 697.43C938.687 700.08 918.887 700.74 893.007 699.71C867.127 698.68 836.034 696.608 815.497 693.7C784.987 689.38 744.937 670.8 746.507 684.58C747.407 692.48 763.808 712.556 772.527 725.89C784.447 744.12 790.945 760.093 792.097 780.2C793.087 797.48 790.646 822.279 777.287 858.74C769.527 879.92 758.307 905.66 748.957 923.63C739.607 941.6 732.601 951.712 727.017 958.15C718.387 968.1 704.255 982.988 681.567 979.38C656.287 975.36 636.033 968.444 624.997 958.32C613.027 947.34 596.512 925.845 581.637 889.76C573.607 870.28 566.347 847.84 558.297 809.08C550.247 770.32 542.398 716.72 536.017 685.37C527.727 644.64 527.121 623.299 523.077 626.4C521.747 627.42 527.387 654.13 497.327 722.29C485.027 750.18 472.441 772.937 453.917 795.6C443.487 808.36 430.287 822.88 412.127 839.66C393.967 856.44 371.527 874.92 350.107 890.62C328.687 906.32 308.887 918.86 292.527 926.49C276.167 934.12 263.683 937.18 255.317 938.08C243.047 939.4 228.613 938.297 218.027 927.68C211.067 920.7 205.746 907.265 206.087 887.25C206.427 867.3 210.016 845.315 225.607 812.69C236.087 790.76 252.587 759.08 274.437 723.86C296.287 688.64 322.687 651.02 300.527 631.19C278.367 611.36 209.727 609.38 167.587 606.69C125.447 604 110.048 601.35 96.2169 596.33L95.8213 596.187C69.4335 586.61 50.0826 579.588 41.0069 569.65C30.3669 558 23.066 547.95 24.0969 538.29C25.7669 522.64 29.8505 505.034 39.1469 492.65C47.1269 482.02 65.2397 465.826 94.9669 449.29C109.367 441.28 123.227 435.34 148.517 428.97C173.807 422.6 209.447 416 232.707 412.36C255.967 408.72 266.527 408.06 289.827 408.41C313.127 408.76 348.107 410.08 337.037 399.18C325.967 388.28 270.527 365.84 227.167 343.4C183.807 320.96 152.835 299.939 136.227 285.91C115.047 268.02 96.7986 248.295 85.3569 218.25C78.4069 200 75.8888 180.611 81.4469 160.96C85.1069 148.02 98.1165 127.907 124.227 113.65C141.827 104.04 159.903 97.99 179.547 98.4002C195.827 98.7402 224.132 101.257 261.007 113.16C278.727 118.88 293.907 126.14 320.877 142.35Z" fill="#FA3A2B"/>
<path d="M136.931 80.9986C133.026 82.2554 119.398 87.9815 112.405 91.9997C111.576 92.4518 110.824 92.8742 110.165 93.2533C110.737 92.8666 111.472 92.4019 112.341 91.8829C121.304 85.4758 151.061 75.9327 136.931 80.9986ZM154.984 452.199C159.865 450.806 164.856 449.475 169.879 448.189C165.038 449.227 159.644 450.464 154.271 451.813C143.627 454.461 133.114 457.711 125.567 460.617C123.695 461.331 128.356 458.964 123.936 460.701C119.562 462.515 120.655 462.679 114.501 465.713C112.938 466.503 110.117 467.921 106.45 469.934C93.4304 476.722 73.1888 490.661 66.7879 497.05C63.2074 500.321 59.8593 503.838 57.7777 506.637C52.494 513.535 48.7365 526.998 47.392 540.776C47.5354 539.569 47.2435 538.884 47.4154 539.363C47.5673 539.796 48.1775 541.06 49.1903 542.585C51.2239 545.697 54.6153 549.712 58.3641 553.798C61.9275 558.256 82.5452 566.478 99.1443 572.479C58.0773 557.368 84.6608 568.193 103.926 575.087C107.019 576.215 109.732 576.977 111.732 577.455C115.174 577.58 111.076 578.729 164.856 582.852C166.389 582.963 167.771 583.065 169.089 583.164C196.773 585.303 169.265 584.508 226.117 588.107C180.528 583.627 224.705 585.207 262.344 591.767C266.778 593.729 288.553 592.564 316.272 613.595C324.248 620.404 330.356 631.84 331.742 641.476C333.323 651.202 332.103 658.582 331.035 664.005C328.955 674.542 324.063 687.277 318.952 696.859C315.437 703.468 312.379 708.069 306.978 716.935C302.847 723.69 298.731 730.18 294.819 736.505C277.477 764.586 261.518 793.408 247.236 823.027C245.256 827.148 243.388 831.283 241.666 835.414C249.919 811.923 233.421 853.096 234.034 854.815C232.584 859.364 234.479 851.212 237.036 843.875C239.56 836.539 242.243 830.116 238.701 838.412C232.226 854.955 228.639 870.668 228.5 887.632C228.393 894.203 229.112 900.441 230.619 905.21C229.464 900.818 229.785 900.949 230.594 903.644C231.301 906.195 233.738 910.851 234.56 911.195C236.691 913.259 239.736 914.159 241.544 914.698C241.223 914.131 244.028 915.321 252.779 914.487C259.34 913.894 270.811 910.711 282.651 905.316C301.336 896.891 322.538 882.674 336.779 872.437C344.526 866.862 350.382 862.336 353.178 860.042C356.097 857.246 335.708 873.938 382.855 834.971C387.856 830.651 386.26 832.622 388.825 830.297C389.638 829.554 392.436 826.535 396.343 822.578C399.761 819.117 404.018 814.929 408.622 810.863C411.708 807.303 392.921 831.103 436.571 781.422C436.716 781.242 436.862 781.061 437.008 780.879C436.844 781.06 436.687 781.232 436.537 781.394C433.513 784.666 433.707 784.141 436.095 781.033C443.273 772.643 464.145 741.773 476.165 712.957C482.695 698.445 487.297 686.064 489.295 680.439C487.732 684.441 486.036 688.558 484.303 692.554C492.357 672.442 492.413 668.58 493.805 664.047C495.415 658.269 496.992 651.869 498.126 645.457C498.693 642.257 499.154 639.006 499.447 635.912C499.596 634.344 499.702 632.851 499.773 631.292C499.809 630.479 499.833 629.756 499.862 628.744C499.865 628.622 499.869 628.499 499.872 628.374C499.876 628.234 499.881 628.074 499.886 627.918C499.896 627.591 499.905 627.315 499.929 626.787C499.94 626.541 499.955 626.274 499.975 625.971C499.996 625.651 500.034 625.138 500.098 624.565C500.131 624.269 500.17 623.957 500.228 623.563C500.309 623.017 500.418 622.373 500.609 621.548C500.704 621.135 500.821 620.676 500.975 620.155C501.052 619.894 501.138 619.618 501.236 619.323C501.289 619.165 501.325 619.061 501.405 618.836C501.499 618.576 501.602 618.302 501.717 618.015C502.677 615.801 504.188 612.147 509.135 608.221C510.513 607.17 512.262 606.037 514.562 605.068C517.226 603.942 520.792 603.053 524.773 603.221C533.415 603.58 538.995 608.41 541.065 610.608C545.621 615.768 545.686 617.486 546.589 619.301C547.832 622.493 548.148 624.08 548.552 625.689C549.27 628.786 549.662 631.112 550.054 633.366C550.806 637.808 551.404 641.72 551.988 645.281C554.967 663.35 556.131 666.44 558.998 680.693C559.72 684.203 560.498 688.308 561.363 693.319C560.715 689.129 560.037 684.91 559.298 680.632C558.94 678.541 558.603 676.505 558.269 674.435C558.663 676.494 559.06 678.517 559.477 680.595C562.769 697.149 565.405 713.193 568.105 729.23C559.736 687.287 569.623 738.37 570.182 741.642C571.134 746.98 569.356 739.386 570.937 748.307C571.108 749.224 571.309 747.838 573.734 761.536C578.877 790.049 577.591 785.591 579.87 797.393C580.041 798.212 579.852 796.186 581.66 804.228C582.226 806.721 582.974 810.101 584.036 814.793C599.834 877.471 583.297 814.844 583.071 812.108C582.499 809.678 584.082 821.79 580.184 804.535C578.945 798.924 577.177 790.042 574.839 776.271C578.059 794.988 577.782 796.875 578.162 798.989C578.247 799.429 578.691 801.647 579.335 804.711C581.316 814.522 585.752 832.782 586.161 834.052C590.384 849.134 587.367 835.691 588.233 838.614C588.684 840.896 596.684 869.696 602.859 881.012C603.607 882.503 604.262 883.673 604.818 884.528C607.953 893.497 606.142 890.459 602.126 881.314C598.611 873.254 593.921 860.607 589.944 846.932C588.192 842.889 598.059 874.614 599.101 876.046C599.891 878.068 600.644 879.925 601.354 881.632C615.348 912.755 607.961 893.342 612.304 900.905C614.737 905.062 622.415 919.87 615.698 905.951C634.824 937.394 622.874 918.514 623.911 920.727C625.684 923.898 633.475 933.513 634.465 934.473C635.862 936.142 630.578 930.731 636.17 937.19C636.729 937.868 640.409 941.202 640.758 941.138C640.775 941.134 640.785 941.123 640.788 941.105C640.772 940.838 639.357 939.588 635.137 934.703C637.442 937.335 639.436 939.324 641.062 940.807C643.876 943.293 647.138 944.818 648.974 945.784C650.979 946.794 652.259 947.551 655.222 949.158C671.487 952.421 666.643 953.857 673.346 955.654C679.288 957.022 682.928 957.478 685.025 957.635C687.526 957.584 686.271 956.651 686.658 956.65C689.462 956.435 696.841 957.939 709.372 942.847C715.582 935.729 721.217 925.802 723.582 921.436C722.762 924.191 716.154 935.935 709.672 943.106C703.422 950.333 698.786 953.301 697.08 954.343C694.407 955.993 693.79 956.116 694.183 956.124C694.6 956.069 696.116 955.62 698.239 954.393C702.407 952.311 709.388 944.791 710.62 943.929C710.723 943.88 710.764 943.908 710.731 944.025C710.615 944.345 709.94 945.356 708.693 946.97C709.412 946.093 710.146 945.172 710.921 944.189C714.454 939.604 717.978 933.736 721.294 927.521C727.945 917.402 722.985 927.235 730.142 913.841C732.043 910.166 734.814 904.605 738.697 896.047C740.277 891.316 733.511 906.685 729.799 913.662C728.149 916.839 727.197 918.482 728.105 916.38C728.362 915.778 728.837 914.777 729.46 913.486C732.991 906.384 740.6 889.612 740.582 889.138C740.651 888.669 731.194 909.345 732.373 905.915C736.035 899.187 767.9 821.807 744.287 880.885C749.634 868.396 753.614 860.747 757.286 851.412C758.4 848.556 759.455 845.564 760.451 842.206C761.823 837.583 757.726 847.953 756.437 849.813C754.541 851.738 759.516 844.98 767.186 807.163C768.816 805.564 760.593 837.613 759.782 838.487C759.49 839.696 762.908 834.317 763.264 833.332C763.874 831.503 772.278 804.693 770.673 781.428C770.015 763.99 761.663 749.145 758.087 742.576C758.677 744.031 757.327 741.892 754.499 737.678C751.868 733.739 747.163 727.292 741.875 719.838C739.232 716.088 736.455 712.103 733.666 707.642C732.268 705.391 730.863 703.037 729.429 700.214C728.054 697.148 726.306 694.802 725.124 687.016C724.541 682.751 725.007 674.13 730.962 667.294C736.87 660.709 742.525 659.561 745.729 658.774C752.372 657.571 755.212 658.16 757.982 658.336C763.06 658.886 765.813 659.548 767.172 659.769C768.417 659.998 766.824 659.47 765.016 658.955C763.295 658.453 761.293 657.981 762.867 658.205C777.764 660.347 802.508 669.783 818.543 672.19C823.238 672.925 827.674 673.479 831.247 673.866C850.696 675.824 848.385 674.926 849.451 675.058C858.127 675.753 851.164 675.568 856.479 675.958C860.682 676.276 877.972 677.435 893.869 678.051C908.079 678.668 920.811 678.473 922.091 678.402C922.873 678.361 914.141 677.958 925.787 677.608C927.801 677.288 926.491 679.12 959.608 675.538C960.078 675.481 960.557 675.422 961.045 675.361C985.146 672.052 971.816 673.629 959.52 674.764C950.431 675.571 941.986 675.924 949.264 675.01C953.214 674.803 956.585 674.551 959.467 674.298C976.061 672.731 976.289 671.787 982.511 670.947C985.03 670.598 1004.07 668.497 1024.43 664.027C1009.85 667.299 995.16 670.161 980.476 672.524C993.978 670.735 1019.25 665.756 1032.15 662.859C1033.1 662.654 1033.98 662.465 1034.78 662.291C1040.53 661.024 1035.99 662.888 1048.4 659.806C1050.91 659.083 1060.39 655.374 1032.1 662.634C1031.02 662.9 1029.88 663.181 1028.69 663.474C1027.64 663.465 1029.25 663.026 1032.04 662.368C1036.61 661.301 1044.29 659.583 1048.7 658.347C1049.77 658.038 1053.78 656.013 1063.01 654.121C1065.14 653.285 1042.61 664.416 1102.63 642.775C1104.55 642.041 1097.66 644.007 1099.54 643.281C1099.88 643.151 1101.19 642.706 1102.98 642.095C1107.99 640.398 1116.73 637.311 1117.97 636.806C1119.69 636.119 1112.11 638.443 1114.16 637.613C1124.62 633.368 1139.13 629.621 1117.19 637.663C1124.58 635.175 1131.97 632.589 1139.33 629.929C1131.08 631.83 1150.69 625.176 1160.58 620.944C1163.55 619.693 1166.29 618.512 1168.75 617.431C1178.55 613.002 1181.98 609.126 1184.11 607.046C1186.1 604.9 1186.18 604.524 1185.6 604.97C1184.46 605.897 1180.49 609.148 1183.18 606.374C1187.3 601.806 1188.17 600.706 1189.41 599.709C1190.64 598.534 1192.09 597.621 1197.1 589.033C1196.95 589.24 1196.75 589.634 1196.63 589.935C1196.6 590.004 1196.58 589.895 1196.61 589.65C1196.63 589.407 1196.73 589.045 1196.78 588.839C1196.01 589.946 1195.63 590.415 1196.57 588.716C1196.48 588.838 1196.31 589.091 1196.16 589.471C1196.01 589.827 1195.96 590.353 1195.98 590.1C1196.11 589.767 1195.5 584.871 1191.33 575.217C1191.18 574.818 1190.84 574.111 1190.31 573.221C1190.83 574.062 1191.2 574.78 1191.39 575.194C1194.41 581.898 1196.41 588.769 1196.23 590.042C1196.56 589.866 1196.74 588.782 1196 585.951C1195.28 583.191 1193.61 579.05 1191.75 575.039C1190.84 573.151 1187.42 569.051 1187.03 568.62C1171.74 552.098 1183.79 563.056 1154.89 538.041C1153.42 536.813 1151.05 534.675 1148.23 532.208C1146.23 530.451 1144.09 528.711 1141.92 527.233C1131.39 520.883 1138.59 524.606 1147.92 532.568C1158.92 541.921 1171.65 553.622 1172.04 554.42C1172.31 554.772 1161.22 544.484 1147.57 532.974C1135.74 522.023 1114.7 514.294 1113.31 513.376C1108.3 510.991 1116.42 514.273 1124.09 517.79C1131.85 521.287 1138.13 525.111 1135.23 523.02C1134.61 522.511 1125.22 517.262 1109.05 510.614C1078.72 497.7 1030.34 481.907 1013.91 477.717C1013.04 477.477 1012.27 477.264 1011.58 477.076C987.693 470.605 976.89 467.611 976.443 469.257C969.876 466.299 963.57 466.609 960.44 466.17C950.765 464.811 943.486 464.083 937.466 463.531C919.838 462.301 916.297 461.112 894.282 465.481C894.105 465.518 893.927 465.557 893.746 465.596C886.956 467.072 880.862 468.117 878.409 468.851C876.975 469.294 879.826 469.097 872.797 471.2C867.958 472.65 850.225 477.611 834.439 483.371C819.602 488.632 807.025 496.414 805.249 497.425C801.323 499.026 825.6 485.695 821.119 487.756C803.013 496.445 787.159 508.542 775.321 523.381C770.741 529.463 772.784 526.144 771.032 528.7C770.927 528.864 770.595 529.389 770.156 530.158C769.958 530.505 769.715 530.951 769.536 531.31C769.444 531.495 769.374 531.645 769.333 531.744C769.298 531.825 769.3 531.856 769.426 531.541C769.967 529.758 771.48 526.624 769.821 519.98C768.967 516.773 766.779 513.217 764.368 511.034C761.958 508.794 759.713 507.733 758.094 507.116C754.862 505.977 753.545 506.107 752.724 506.05C751.929 506.044 751.682 506.089 751.613 506.087C751.523 506.107 753.541 505.551 755.189 504.882C759.334 503.266 762.993 501.406 762.527 501.58C762.053 501.726 759.015 503.141 755.075 504.573C753.639 505.102 751.879 505.599 751.537 505.632C751.486 505.641 751.557 505.612 752.016 505.578C752.507 505.57 753.284 505.434 755.577 505.856C756.766 506.11 758.405 506.492 760.792 507.782C763.112 509.022 766.437 511.656 768.575 515.557C772.934 524.015 770.604 529.67 769.961 531.742C769.733 532.324 769.881 531.937 770.06 531.617C770.255 531.247 770.537 530.749 770.851 530.228C771.486 529.172 772.306 527.931 773.165 526.724C774.923 524.25 776.955 521.725 779.097 519.307C783.377 514.466 788.057 510.144 791.973 506.918C799.883 500.516 804.284 497.944 797.944 502.714C794.242 505.277 782.231 515.326 784.811 514.415C781.606 517.578 778.59 520.924 775.961 524.286C774.656 525.953 773.419 527.666 772.387 529.251C771.856 530.065 771.401 530.811 771.037 531.456C770.865 531.761 770.707 532.06 770.627 532.219C770.54 532.384 770.511 532.49 770.692 532.017C771.324 529.934 773.213 525.713 770.541 517.932C769.19 514.215 766.342 510.713 763.779 508.807C761.198 506.837 759.023 506.02 757.526 505.546C754.471 504.663 753.297 504.801 752.503 504.774C751.748 504.79 751.501 504.843 751.415 504.854C751.259 504.917 753.087 504.468 754.799 503.822C775.846 495.533 800.31 479.887 822.913 465.278C862.208 439.427 901.169 411.731 938.433 383.019C903.701 410.798 862.795 439.659 823.2 465.716C816.561 470.062 809.989 474.282 803.468 478.362C797.207 482.46 775.926 494.619 778.76 493.505C792.83 485.754 808.051 476.217 823.449 466.095C850.811 448.063 878.702 428.29 901.898 411.551C903.06 410.713 899.097 414.196 903.462 411.084C911.691 405.316 937.14 385.073 941.479 381.799C942.26 381.282 928.019 393.051 932.704 389.927C944.728 381.91 946.247 377.893 955.811 370.19C956.256 369.829 956.856 369.347 957.583 368.762C969.798 359.946 1010.87 322.415 1017.59 309.963C1017.97 309.412 1018.27 308.967 1018.5 308.622C1019.28 307.419 1019.12 307.509 1018.31 308.477C1014.36 314.568 988.23 342.275 990.042 339.259C1000.11 329.197 1009.16 319.099 1017.56 307.91C1028.81 293.191 1034.64 276.974 1036.2 258.309C1036.1 259.665 1036.26 259.895 1036.19 259.662C1036.15 259.42 1035.97 258.73 1035.66 257.888C1035.05 256.171 1033.99 253.866 1032.76 251.498C1032.46 250.951 1034.54 255.865 1030.84 249.024C1023.62 236.597 1021.37 232.512 1017.33 226.077C1016.16 224.262 1014.18 221.275 1011.83 217.768C1006.8 209.652 996.392 200.731 994.327 199.116C994.029 198.817 998.362 201.451 998.912 201.951C1007.03 208.789 1008.19 212.458 1008.84 213.132C1009.98 214.602 1011.13 216.044 1012.21 217.51C1013.4 219.146 1014.54 220.732 1015.57 222.289C1019.23 227.833 1021.01 231.013 1025.5 238.188C1028.51 243.099 1026.11 238.078 1028.93 242.786C1029.42 243.626 1032.26 248.973 1034.25 253.518C1035.26 255.788 1035.99 257.782 1036.35 258.768C1036.72 259.818 1036.8 259.672 1037.14 259.553C1037.15 259.508 1037.33 259.933 1037.07 258.792C1036.81 257.691 1035.86 254.985 1033.86 251.046C1029.91 243.125 1022.13 230.918 1012.86 217.076C1003.72 202.555 986.506 191.195 965.738 179.941C934.968 162.733 902.369 156.553 895.493 155.143C910.684 158.459 925.467 162.759 939.508 168.348C919.885 160.319 895.544 155.439 881.48 152.927C875.942 151.893 872.192 151.442 871.484 150.887C852.944 149.473 833.623 152.868 814.553 159.205C795.788 165.354 780.909 176.566 767.458 193.239C753.392 210.253 741.661 229.704 733.464 249.942C726.861 266.364 724.217 285.207 723.416 305.132C723.389 305.717 723.381 306.25 723.387 306.597C723.39 306.77 723.396 306.893 723.397 306.909C723.396 306.918 723.397 306.838 723.334 306.442C723.226 305.99 723.268 305.452 722.341 303.16C721.763 301.995 721.22 300.211 718.053 297.098C715.365 293.816 705.939 290.745 700.952 292.446C695.898 293.735 694.423 295.341 693.219 296.217C692.078 297.183 691.64 297.718 691.276 298.135C690.601 298.947 690.474 299.2 690.38 299.337C700.114 281.449 705.206 248.315 709.969 220.115C709.998 219.944 710.026 219.775 710.054 219.608C712.313 200.578 713.723 211.199 712.739 178.044C712.924 186.706 712.593 195.356 711.7 203.835C712.264 197.34 712.913 181.789 710.873 164.713C708.552 137.453 695.336 111.011 690.832 105.241C690.528 104.782 690.093 104.323 689.19 103.234C687.58 101.455 684.923 97.5519 677.244 89.5327C666.234 78.8144 664.066 77.131 657.094 72.1126C651.118 68.0131 643.631 64.2313 641.635 63.1793C641.63 63.1766 641.625 63.1738 641.62 63.1711C640.122 62.3743 639.731 61.671 636.072 59.8455C624.358 54.3522 633.574 59.5461 622.128 53.502C625.083 54.5613 628.013 55.6921 630.913 56.8949C616.677 50.3681 595.889 44.059 618.234 50.7273C622.027 52.0246 618.652 51.242 621.45 52.2642C629.764 55.3457 636.698 58.5336 642.497 61.5102C667.105 74.6207 671.502 80.9037 669.711 78.7327C667.64 76.8498 657.17 68.4441 642.703 61.1107C630.531 54.7475 615.988 49.4942 604.952 46.6991C599.164 44.537 576.222 39.3523 558.141 39.1621C545.572 38.8041 535.374 40.1295 534.578 40.1504C531.868 40.3127 541.784 38.578 528.668 39.831C527.319 39.856 508.44 43.1086 492.591 48.5617C475.859 54.0624 463.149 60.2234 476.619 53.854C478.631 52.9636 484.797 50.4554 492.398 47.9747C505.497 43.4919 522.428 40.0412 528.128 39.3364C519.247 40.0493 505.553 43.0894 492.309 47.7027C473.637 53.9444 457.242 63.3827 454.408 65.005C434.162 75.7927 492.909 43.2921 447.234 67.7292C415.417 89.8188 445.294 69.4188 433.724 78.4566C432.754 79.2739 431.09 80.6308 429.171 82.3559C419.239 88.4397 410.93 118.07 412.512 117.693C411.465 122.667 411.002 125.159 410.727 126.179C410.441 127.264 410.417 126.663 410.41 126.12C410.41 125.663 410.419 125.249 410.3 125.819C410.287 125.88 410.269 125.971 410.247 126.09C408.861 129.485 407.592 156.664 409.943 165.381C410.104 166.496 408.878 163.11 409.023 164.267C408.399 166.654 417.277 193.231 418.571 194.247C418.881 194.905 416.656 188.379 417.897 190.916C418.684 192.786 423.246 202.154 427.872 211.553C429.353 214.75 431.879 217.506 432.217 217.795C432.8 218.263 429.666 214.974 428.115 211.438C423.584 202.047 419.532 193.476 421.259 196.227C423.146 200.392 425.667 205.191 428.581 211.219C431.851 218.883 444.365 226.805 450.588 229.321C448.197 228.59 436.713 221.261 434.421 218.183C435.301 218.549 440.566 223.085 446.158 226.23C451.619 229.405 456.288 231.536 451.404 229.657C457.542 232.132 453.535 230.039 457.095 231.209C457.971 231.592 466.984 234.853 468.866 235.142C469.055 235.263 459.824 231.717 461.772 232.175C463.267 232.587 469.348 234.71 476.195 236.287L475.901 236.219C481.353 237.43 487.125 238.844 492.947 241.146C496.073 242.337 499.855 244.457 501.803 245.857C503.843 247.278 504.822 248.111 505.232 248.441C507.205 250.11 506.746 249.823 504.892 248.442C503.927 247.741 502.518 246.673 500.314 245.309C498.136 243.94 495.085 242.477 492.758 241.622C484.869 238.73 478.266 237.649 477.008 237.489C476.899 237.569 484.032 239.08 492.395 242.536C495.908 243.923 500.409 246.745 502.314 248.319C504.395 249.951 505.34 250.836 505.423 250.913C505.574 251.259 504.629 250.563 502.515 249.038C500.612 247.593 495.852 244.636 492.095 243.289C483.781 240.149 476.939 238.955 478.485 239.596C482.668 240.7 486.863 241.853 491.856 243.89C495.21 245.172 499.876 248.002 502.345 250.062C500.008 248.261 495.368 245.471 491.737 244.19C485.874 241.987 480.606 240.781 475.153 239.594L475.395 239.65C454.039 235.462 434.275 221.949 431.086 217.447C441.523 229.735 462.898 237.365 475.186 240.532L474.957 240.479C483.176 242.452 489.412 244.945 490.96 246.144C491.208 246.33 491.316 246.467 491.276 246.548C491.251 246.602 491.084 246.594 490.802 246.541C487.888 245.72 476.617 243.112 474.418 242.915L474.609 242.959C474.339 242.921 474.213 242.914 474.269 242.948C474.345 242.992 474.448 243.04 474.577 243.092L474.388 243.049C476.411 243.819 483.158 245.084 490.32 247.753C493.568 248.909 497.409 251.182 499.253 252.556C501.221 253.969 502.227 254.8 502.398 254.94C502.947 255.441 503.169 255.677 503.148 255.707C503.148 255.707 503.148 255.707 503.148 255.707C503.079 255.754 502.08 254.977 500.083 253.51C498.275 252.137 494.104 249.408 490.208 248.035C484.4 245.861 478.715 244.636 474.244 243.698L474.424 243.739C470.942 242.978 468.398 242.283 467.99 242.218C466.46 241.967 470.688 243.827 474.102 245.091L473.944 245.055C476.207 245.829 478.109 246.543 478.078 246.639C477.938 246.62 476.15 246.207 473.793 245.735L473.941 245.769C468.227 244.647 458.89 241.717 463.674 243.672C466.018 244.609 469.755 245.827 473.688 246.833L473.557 246.803C479.297 248.152 485.42 249.919 488.884 251.366C490.273 251.927 491.239 252.408 491.386 252.489C492.356 253.053 491.091 252.408 488.806 251.56C485.205 250.192 479.157 248.59 473.419 247.424L473.541 247.452C466.756 245.981 460.461 243.867 460.039 243.795C459.642 243.772 468.293 246.964 473.342 248.289L473.233 248.264C475.251 248.793 476.692 249.217 476.83 249.293C476.974 249.383 475.442 249.075 473.145 248.66L473.248 248.684C469.089 247.925 462.269 246.145 458.886 245.239C455.039 244.297 465.815 248.252 463.901 247.635C462.101 248.113 434.015 235.086 433.54 233.251C431.663 232.053 437.25 236.464 436.365 235.949C434.905 235.408 427.33 229.219 428.277 230.082C428.52 230.466 435.775 237.1 444.539 241.827C453.163 246.716 462.561 250.018 462.363 250.176C461.395 251.534 423.255 233.004 458.567 250.811C458.804 250.996 468.115 253.609 468.391 253.617C473.495 255.515 449.404 249.468 471.608 255.587C474.059 256.138 477.06 256.821 480.653 257.869C477.373 256.94 474.347 256.264 471.588 255.689C418.279 238.7 471.048 257.367 461.334 254.99C457.005 254.98 431.424 242.952 431.657 242.122C433.625 244.218 441.779 248.225 444.476 249.669C445.211 250.087 439.746 247.827 434.931 245.191C430.103 242.61 425.947 239.694 428.198 241.593C430.147 244.4 454.829 255.988 456.078 255.746C466.119 259.457 453.53 255.708 455.679 256.674C456.711 257.23 465.469 260.052 470.289 261.137C470.306 261.142 470.36 261.154 470.377 261.158C471.99 261.524 473.091 261.798 473.191 261.83C473.339 261.883 472.214 261.662 470.34 261.326C470.322 261.322 470.267 261.309 470.249 261.305C464.156 260.277 451.181 256.35 447.881 255.005C444.471 253.882 456.887 259.021 454.544 258.167C439.828 254.48 412.768 234.809 439.103 252.698C440.727 253.809 451.646 258.361 451.991 258.386C458.624 261.5 438.328 253.673 434.779 251.584C428.323 249.168 457.079 263.193 433.116 251.571C446.307 259.23 455.75 262.479 469.179 265.806C469.211 265.814 469.307 265.835 469.34 265.843C473.127 266.678 477.374 267.669 481.218 269.063C477.611 267.748 473.309 266.728 469.329 265.889C469.297 265.882 469.2 265.86 469.168 265.852C443.987 260.166 429.314 250.652 427.504 250.092C425.78 248.896 436.426 259.597 468.174 267.679C446.297 261.706 448.54 262.426 442.101 259.962C440.112 259.131 431.573 254.79 425.473 250.662C419.381 246.574 415.348 243.499 421.259 249.543C422.63 251.582 441.415 261.338 435.323 258.703C391.824 229.825 433.816 259.789 434.206 258.632C434.383 258.142 413.723 253.529 398.292 225.464C391.484 212.012 381.596 191.448 378.508 173.082C374.947 154.634 376.281 138.889 376.855 132.734C377.261 128.395 377.806 124.269 378.47 120.236C380.966 103.081 385.948 87.4184 388.152 83.201C397.047 66.2627 390.025 80.5591 392.231 76.8825C393.166 75.4594 398.05 66.2419 407.013 57.9464C418.472 47.087 433.304 38.2665 434.55 37.5731C442.675 33.2289 434.855 38.3767 435.708 37.9411C441.341 34.7922 461.687 24.1055 482.388 17.4632C498.062 12.1489 514.18 8.74925 521.863 7.70323C521.094 6.83697 486.427 14.9358 507.91 9.20341C533.363 3.30179 535.388 6.26087 535.993 6.01171C543.659 5.34911 551.376 5.12489 559.063 5.33407C593.739 6.49475 627.437 15.1328 658.284 30.93C681.402 42.7582 704.168 59.7685 719.508 83.2966C734.982 106.186 743.665 133.839 746.763 160.322C749.343 181.811 749.391 203.526 745.956 225.353C745.711 226.888 745.468 228.396 745.218 229.928C745.39 229.746 745.763 228.113 746.274 225.404C749.347 212.47 749.979 177.637 747.15 160.275C746.38 154.225 745.641 150.209 745.611 149.831C745.358 147.574 746.384 151.877 747.521 160.23C749.508 174.395 751.059 200.417 746.936 225.51C742.96 251.237 737.636 276.007 735.738 282.348C738.849 270.773 741.286 259.406 743.541 248.067C740.951 263.304 738.43 290.123 722.544 319.44C721.977 320.326 721.364 321.288 720.126 322.748C719.508 323.456 718.715 324.356 717.245 325.554C715.671 326.684 713.674 328.629 707.966 329.689C702.056 331.082 693.618 327.045 691.349 323.993C688.585 320.966 687.924 319.043 687.314 317.67C686.25 314.904 686.111 313.616 685.889 312.379C685.284 307.936 685.48 305.894 685.533 303.51C685.701 299.339 685.901 295.264 686.136 291.403C686.739 281.77 684.882 300.211 684.983 299.779C684.938 289.104 687.562 271.44 686.603 284.652C689.6 257.869 689.654 261.691 696.019 241.224C696.412 240.241 693.183 247.675 697.526 235.545C697.842 234.717 698.215 233.764 698.632 232.729C700.75 225.111 720.591 189.795 724.046 185.512C725.078 183.465 712.291 199.844 712.486 202.935C691.168 241.789 706.376 215.671 698.99 231.256C698.487 232.452 698.588 231.618 696.921 235.303C695.297 239.325 690.792 248.659 687.187 270.896C687.098 266.455 689.811 250.28 696.131 234.986C701.408 221.937 707.996 210.296 709.915 206.707C714.922 197.79 703.836 214.641 695.762 234.838C689.424 250.371 686.742 266.829 686.38 272.505C686.326 265.993 684.947 277.816 683.844 293.811C683.499 298.715 683.349 301.578 683.219 303.411C683.04 306.513 683.018 307.688 683.044 309.353C683.084 310.255 683.058 311.106 683.47 313.594C683.584 314.226 683.73 314.995 684.053 316.152C684.419 317.325 684.72 318.708 686.349 321.626C687.226 323.077 688.444 325.124 691.46 327.65C694.31 330.209 700.651 332.948 706.146 332.494C717.224 331.139 718.854 327.249 720.887 325.769C723.355 323.178 723.976 321.979 724.747 320.817C732.546 307.057 732.185 304.1 733.492 300.745C734.429 297.558 735.484 294.702 738.49 284.639C731.372 304.146 746.58 249.361 748.895 234.073C744.298 259.86 741.676 284.462 729.249 313.76C730.186 312.078 731.041 310.424 731.828 308.829C730.197 312.75 728.306 316.854 725.53 321.306C724.972 322.187 724.352 323.144 723.241 324.517C721.86 325.916 721.248 327.775 714.841 331.215C711.801 332.818 704.219 334.86 696.984 331.923C689.969 329.032 687.401 324.916 685.916 322.696C683.265 318.132 683.185 316.349 682.733 314.703C681.664 308.972 681.989 307.183 681.974 304.634C682.055 306.192 682.156 307.833 682.436 310.047C682.199 307.141 682.239 305.23 682.282 303.371C683.259 270.268 687.703 260.997 688.057 258.19C689.85 250.536 692.211 242.633 695.403 234.695C705.185 210.491 719.268 187.151 735.821 167.114C740.664 161.231 746.08 155.199 751.903 149.767C754.272 147.591 754.483 147.061 758.733 143.376C763.089 139.996 771.291 131.976 793.431 123.019C802.047 119.813 800.599 120.81 801.705 120.567C802.378 120.473 804.011 119.94 809.974 118.125C828.79 111.239 829.073 113.169 834.944 112.007C852.135 109.179 863.232 109.277 864.856 109.224C871.885 109.277 880.022 109.852 888.522 111.294C904.841 113.998 923.095 118.262 937.778 122.921C938.183 123.041 927.116 119.05 941.07 123.61C944.169 124.744 963.503 131.566 985.515 144.272C996.592 150.729 1009.88 158.106 1022.3 167.793C1013.46 160.491 1004.23 154.686 995.445 149.482C1001.08 152.534 1034.06 171.988 1047.35 193.815C1054.81 204.561 1059.35 211.266 1055.17 204.446C1053.38 201.553 1050.75 197.658 1047.84 193.481C1038.8 179.701 1023.23 167.472 1021.69 165.241C1026.91 169.462 1038 178.517 1047.98 193.387C1053 200.864 1058.68 209.27 1064.58 218.93C1067.53 223.793 1070.53 228.909 1073.47 235.011C1076.1 241.489 1080.27 247.038 1079.86 262.083C1078.26 289.924 1065.54 318.632 1052.73 334.55C1043.92 346.243 1036.6 354.102 1034.69 356.111C1033.52 357.368 1040.26 349.203 1038.63 350.934C1037.65 352.734 1012.36 378.353 1008.6 380.994C1006.49 382.842 1017.81 372.007 1016.75 372.731C1016.09 373.526 993.064 394.035 984.233 401.303C982.547 402.751 981.399 403.768 981.136 404.095C982.048 403.325 983.139 402.412 984.329 401.42C994.077 393.431 1010.92 378.681 1000.59 388.323C999.083 389.742 990.825 396.322 988.98 397.919C971.875 413.251 1024.2 368.899 1031.15 359.644C1018.79 373.16 1002.59 387.868 984.987 402.223C959.705 422.814 931.931 443.106 908.675 460.121C892.403 471.263 931.988 442.477 913.684 455.233C875.598 481.493 904.027 462.901 902.903 463.784C893.853 470.911 860.238 491.133 861.167 492.596C852.924 497.95 850.949 499.063 846.851 501.71C843.88 503.616 839.877 506.289 831.515 511.714C834.252 510.129 836.947 508.554 839.687 506.933C821.575 520.054 782.722 540.677 769.545 543.907C767.192 544.63 766.062 544.869 766.892 544.569C767.685 544.271 768.53 543.948 769.43 543.593C783.491 538.247 806.422 525.673 808.539 524.4C811.429 522.591 818.597 517.04 845.945 500.331C848.581 498.713 851.447 496.958 854.512 495.088C859.208 491.397 853.505 494.975 845.683 499.933C831.932 508.714 811.076 521.506 830.715 508.603C820.66 514.685 798.488 530.103 768.824 541.945C765.601 543.083 762.388 544.222 757.463 545.006C754.759 545.228 752.323 546.163 745.331 544.269C742.104 543.393 735.097 539.573 732.503 532.108C730.101 524.916 731.794 520.443 732.706 517.707C749.657 485.009 770.547 473.758 776.253 468.434C777.917 467.519 769.27 470.583 793.166 456.86C804.652 450.639 777.481 466.496 782.848 463.808C786.395 461.785 799.503 453.109 820.181 445.413C838.227 438.838 860.314 431.762 886.076 426.149C902.868 422.155 924.14 421.744 940.942 423.56C971.173 426.013 1000.96 431.731 1024.56 438.12C1046.34 443.989 1063.02 449.695 1071.79 452.673C1074.47 453.594 1073.36 453.614 1075.98 454.525C1083.61 457.1 1110.13 466.302 1124.96 472.746C1125.85 473.123 1126.66 473.476 1127.44 473.817C1126.54 473.413 1125.73 473.047 1124.98 472.707C1116.33 468.858 1118.43 469.549 1125.17 472.247C1136.1 476.335 1162.48 488.925 1170.95 496.907C1172.56 498.192 1173.98 499.385 1175.25 500.485C1189.13 512.615 1188.35 512.798 1195.39 519.316C1205.23 529.31 1217.77 537.98 1228.6 559.263C1231.14 565.192 1233.84 571.508 1235.63 579.656C1237.42 587.438 1237.76 599.615 1231.62 609.609C1222.28 626.945 1205.23 644.012 1191.51 649.755C1192.08 649.82 1189.4 651.534 1184.49 653.7C1170.43 660.005 1136 672.088 1117.84 678.278C1117.15 678.517 1116.45 678.761 1115.74 679.008C1097.53 685.444 1073.34 693.49 1097.9 686.584C1079.4 692.44 1060.02 697.753 1041.02 702.116C1026.89 705.372 1012.95 708.186 999.603 710.495C994.428 711.376 1001.49 709.769 992.655 711.252C991.85 711.38 990.822 712.016 983.199 713.188C975.608 714.341 969.328 715.153 964.161 715.75C926.223 719.424 949.01 716.478 938.414 717.068C931.642 717.295 926.648 717.346 922.989 717.392C936.558 717.134 950.934 716.047 964.02 714.503C987.227 711.79 1006.84 708.01 1013.99 706.658C1008.89 707.117 987.091 711.33 963.972 714.076C943.039 716.729 920.846 717.398 910.745 717.112C910.005 717.098 912.589 716.592 911.836 716.583C911.821 716.583 911.805 716.583 911.789 716.583C909.001 716.558 901.043 716.473 892.352 716.167C876.229 715.653 857.324 714.609 863.996 715.448C865.853 715.672 876.925 716.428 892.317 717.037C899.805 717.332 908.345 717.544 917.427 717.472C909.862 717.604 915.511 718.181 914.176 718.209C908.81 718.304 900.903 718.178 892.288 717.786C875.099 717.042 854.799 715.444 845.59 714.624C842.443 714.353 842.637 714.742 842.119 714.7C829.56 713.492 834.872 712.961 821.744 712.634C798.992 708.911 864.538 716.622 859.849 714.9C858.518 714.477 838.758 713.518 813.173 710.115C799.407 708.133 786.075 704.235 773.771 700.913C767.682 699.265 761.746 697.696 757.062 696.885C754.859 696.468 752.529 696.391 752.94 696.445C753.181 696.283 754.786 696.866 758.89 693.579C760.847 691.925 762.498 689.02 762.986 686.938C763.541 684.749 763.426 683.509 763.356 682.661C763.178 681.273 763.078 681.287 763.149 681.384C763.212 681.523 763.392 681.918 763.619 682.354C764.085 683.257 764.742 684.381 765.419 685.464C766.794 687.662 768.242 689.741 769.474 691.457C771.96 694.903 773.581 696.922 773.656 696.787C773.843 697.246 774.812 698.858 777.015 702.202C778.631 704.697 782.294 709.722 786.785 716.567C795.95 729.639 804.596 750.892 805.643 756.288C806.028 757.602 806.886 756.815 807.308 758.479C807.662 759.942 809.66 768.279 810.149 779.166C811.48 798.694 806.243 824.715 803.26 836.692C806.067 826.632 808.365 816.211 809.743 805.428C805.32 837.826 799.649 849.653 799.252 852.502C798.471 855.172 801.119 848.087 804.021 837.914C804.301 836.882 804.593 835.92 804.851 834.93C809.482 819.219 811.796 797.283 811.698 796.879C812.998 796.443 806.127 842.205 795.952 865.579C791.045 878.585 787.585 886.205 789.919 879.575C790.244 878.63 792.821 872.241 795.358 865.361C799.93 853.068 803.988 839.172 798.944 853.888C798.44 855.29 796.916 859.878 794.966 865.218C791.425 875.027 786.431 887.311 785.976 888.255C783.572 893.286 789.32 879.147 794.164 864.924C798.785 851.633 802.094 838.124 800.675 841.946C798.941 849.064 796.519 856.81 793.647 864.734C789.981 874.857 785.742 885.178 781.717 894.835C778.458 902.617 778.04 904.709 777.63 905.667C771.286 919.932 774.418 911.733 772.235 916.47C771.648 917.728 768.365 925.332 764.999 931.977C761.625 938.695 758.226 944.384 759.033 941.348C752.471 953.383 746.29 962.755 740.373 969.734C730.541 981.578 723.653 985.992 724.928 985.323C725.861 984.824 733.573 978.846 740.883 970.177C749.713 960.066 757.814 946.433 765.26 932.113C768.897 925.1 772.311 917.958 775.524 910.934C773.065 916.726 769.657 924.198 765.529 932.253C758.878 945.18 750.6 959.551 741.176 970.431C738.62 973.397 735.969 976.29 733.582 978.65C727.977 983.757 732.393 981.456 721.164 989.548C715.295 993.623 698.447 1002.18 678.507 998.623C659.614 994.931 635.382 992.057 611.996 972.494C591.384 952.731 581.194 932.038 575.94 922.375C584.399 937.428 582.338 932.706 576.07 921.067C570.085 909.298 574.377 919.537 573.148 917.276C572.667 916.372 568.449 907.927 564.022 897.022C556.392 879.01 549.397 853.774 547.869 847.808C560.996 891.527 558.124 881.414 547.908 844.33C549.434 849.634 551.051 854.962 552.782 860.28C549.12 848.448 544.662 829.425 541.385 812.593C538.62 798.55 536.52 786.09 535.382 780.451C534.989 778.503 535.78 785.614 535.56 784.518C533.31 773.585 527.542 736.511 527.092 734.862C526.709 733.419 528.984 749.231 527.797 743.425C527.54 742.209 525.643 726.907 522.874 712.139C521.84 706.654 521.98 710.046 521.709 708.674C519.647 698.481 521.069 702.565 518.423 688.951C518.07 687.194 517.677 685.247 517.207 682.902C514.021 667.546 511.463 653.462 508.257 635.242C512.738 662.891 513.848 671.726 512.762 665.471C512.24 662.655 511.263 656.864 510.156 650.004C509.6 646.598 509.004 642.86 508.378 639.46C508.068 637.773 507.721 636.093 507.47 635.165C507.411 634.946 507.364 634.8 507.365 634.81C507.367 634.816 507.381 634.865 507.429 634.994C507.476 635.121 507.547 635.311 507.718 635.68C507.802 635.862 507.903 636.068 508.042 636.328C508.204 636.63 508.41 636.989 508.685 637.413C509.187 638.146 510.109 639.624 512.44 641.499C513.765 642.53 515.364 643.557 517.744 644.399C520.132 645.258 523.147 645.6 525.577 645.34C530.823 644.723 533.221 642.882 534.836 641.734C539.538 637.945 540.509 634.68 541.196 632.998C541.582 631.895 541.75 631.14 541.869 630.566C541.984 629.995 542.036 629.596 542.059 629.425C542.086 629.212 542.103 629.052 542.114 628.93C542.138 628.679 542.14 628.61 542.143 628.582C542.145 628.554 542.144 628.578 542.143 628.637C542.14 628.743 542.137 628.927 542.133 629.178C542.129 629.4 542.126 629.641 542.122 629.927C542.108 630.999 542.085 632.255 542.046 633.424C541.97 635.791 541.826 638.174 541.66 640.254C540.798 645.535 543.823 642.077 536.276 672.459C547.864 606.057 533.066 691.876 524.589 706.064C524.259 706.887 523.667 707.085 520.633 714.666C520.37 715.293 521.099 714.593 518.213 721.589C516.936 724.658 515.804 727.302 514.654 729.932C489.39 783.603 506.951 745.804 500.858 757.49C498.478 762.828 479.914 793.895 473.393 801.264C472.124 802.882 472.341 802.167 468.17 807.251C467.809 807.687 467.408 808.173 466.971 808.705C457.456 820.297 448.537 830.363 441.64 837.385C440.796 838.158 440.501 837.991 427.16 850.898C426.317 851.703 425.472 852.516 424.698 853.265C422.007 855.867 420.448 857.508 424.775 853.718C424.838 853.663 424.9 853.608 424.963 853.552C436.723 843.245 454.051 825.623 468.556 807.567C477.098 797.065 484.535 786.306 490.189 777.548C499.355 762.731 484.488 789.694 469.09 808.003C461.672 817.144 454.866 824.544 453.92 825.584C452.896 826.734 463.264 814.826 452.442 826.663C446.117 833.503 436.289 844.213 425.664 854.311C420.705 859.043 415.613 863.655 410.737 867.792C409.596 868.82 396.825 878.453 397.341 877.912C397.886 877.537 416.357 861.391 413.468 863.495C413.152 863.787 401.346 873.96 399.643 875.082C397.587 876.512 390.982 879.019 388.374 881.05C381.676 886.273 386.307 883.212 381.988 886.612C377.725 889.962 368.5 896.958 359.498 903.432C348.96 911.068 338.643 917.949 338.264 918.702C343.989 914.949 349.606 911.095 355.144 907.167C324.114 928.919 337.352 919.781 333.02 922.979C328.152 926.239 329.301 924.882 318.028 931.473C317.039 932.012 309.363 936.637 299.446 941.326C284.479 948.943 262.819 954.057 263.274 953.828C279.899 950.187 283.983 947.783 285.321 947.67C286.519 947.396 284.154 948.5 284.85 948.252C289.225 946.707 294.296 944.286 299.613 941.684C300.751 941.127 301.905 940.56 303.068 939.99C347.459 915.623 303.38 941.147 313.868 935.492C317.532 933.571 324.287 929.064 325.743 928.173C330.528 925.298 330.871 925.694 333.967 923.657C341.14 918.864 332.293 923.728 332.84 923.313C339.215 918.894 363.837 902.088 349.143 913.496C355.346 909.391 357.586 907.272 360.572 904.898C362.07 903.701 363.759 902.426 366.201 900.767C376.684 893.552 368.517 899.89 360.983 905.458C358.141 907.558 355.388 909.549 353.812 910.715C334.56 924.468 328.206 929.428 300.413 943.399C297.888 944.581 295.167 945.8 292.208 947.034C280.897 951.881 266.562 956.237 257.372 957.182C256.183 957.326 255.116 957.43 254.214 957.502C252.253 957.596 242.892 958.306 231.667 955.636C220.33 953.31 208.799 945.328 204.322 941.345C202.619 939.936 201.57 939.094 201.133 939.151C188.534 923.923 186.983 902.226 187.693 886.937C187.824 883.855 187.989 880.896 188.152 878.169C189.25 864.094 188.134 868.429 188.18 867.112C188.177 865.036 191.505 848.101 193.188 842.646C194.962 836.195 193.528 839.201 196.838 829.204C205.398 805.852 207.095 806.438 208.039 804.295C208.086 804.209 208.134 804.119 208.183 804.023C221.614 778.194 214.863 789.081 217.638 783.255C219.415 779.285 240.668 739.767 257.43 713.309C263.828 703.059 268.92 694.927 271.221 690.898C267.875 696.796 264.32 702.782 260.718 708.902C268.037 698.439 273.814 687.032 274.806 687.386C274.855 684.36 287.22 663.824 287.989 658.626C288.565 656.525 288.275 656.566 288.727 654.209C289.113 652.115 289.193 649.764 288.932 648.586C288.626 647.376 288.615 647.165 287.351 645.915C283.952 642.544 273.173 638.853 269.868 638.086C260.779 635.853 261.385 636.37 267.036 638.001C272.334 639.493 283.591 643.723 286.454 646.917C287.222 647.714 287.229 647.964 287.326 648.298C287.405 648.626 287.534 649.365 287.49 650.532C287.431 652.886 286.576 656.039 286.327 656.884C286.803 655.228 287.458 651.953 287.305 650.016C287.248 649.036 287.072 648.558 286.962 648.358C286.836 648.154 286.748 647.967 286.053 647.364C283.262 644.635 272.652 640.947 268.075 640.002C263.092 638.922 263.398 638.98 272.458 641.996C276.981 643.472 283.471 645.786 284.414 646.583C285.131 647.047 285.57 647.399 285.825 647.62C286.438 648.172 286.385 648.243 286.401 648.33C286.39 648.399 286.317 648.416 286.222 648.41C286.063 648.422 285.593 648.167 285.655 648.277C285.723 648.381 285.88 648.522 285.983 648.587C286.092 648.662 286.164 648.643 286.275 648.724C286.383 648.8 286.534 649.047 286.635 649.479C286.737 649.899 286.773 650.457 286.743 650.814C286.725 651.047 286.573 650.415 286.406 650.675C286.105 651.078 286.58 651.425 284.624 658.196C284.979 656.629 285.844 653.015 285.805 650.729C285.809 649.588 285.627 649.025 285.598 648.982C285.545 648.931 285.711 649.016 285.102 648.428C283.583 646.814 276.935 643.636 271.507 642.019C265.916 640.251 261.085 639.23 259.323 638.882C256.483 638.879 273.116 641.33 226.647 634.097C227.185 634.275 227.723 634.453 228.258 634.632C208.159 632.517 187.488 631.579 166.08 630.288C159.288 629.866 152.566 629.41 145.69 628.858C148.822 628.843 164.783 629.495 144.707 628.054C133.02 627.101 141.599 628.478 140.539 628.405C137.214 627.556 118.677 628.732 88.1182 618.646C70.6662 610.912 51.3337 610.302 23.4907 585.648C15.7246 575.106 0.331507 566.511 0.525496 535.775C2.75541 515.623 7.80217 495.12 20.2022 478.428C31.5393 464.049 40.7101 457.568 46.1508 453.041C53.9516 446.578 73.069 433.753 83.2249 428.181C86.5008 426.305 88.8889 425.034 89.493 424.717C98.308 419.594 123.197 409.997 142.634 405.614C155.586 402.417 166.629 400.175 170.885 399.248C177.531 397.827 171.1 398.619 177.05 397.43C182.579 396.341 176.956 397.984 178.6 397.675C184.214 396.626 204.648 392.465 228.983 388.562C247.687 385.168 272.713 383.596 290.19 384.211C305.104 384.515 316.472 384.574 321.741 384.282C317.455 384.613 305.178 384.755 290.185 384.6C263.646 383.539 230.28 389.371 232.056 389.378C232.268 389.322 251.33 387.068 255.596 386.69C261.273 386.409 278.324 385.054 290.175 385.204C292.619 385.21 294.868 385.25 296.815 385.326C297.989 385.328 293.423 386.201 312.906 386.333C315.425 386.313 319.7 386.175 323.969 385.725C325.022 385.611 326.044 385.475 326.87 385.331C327.656 385.204 328.391 384.992 328.033 385.088C327.819 385.174 327.39 385.238 325.872 386.101C324.612 387.008 321.04 388.567 318.049 395.527C315.068 402.847 317.743 410.102 318.95 411.996C320.285 414.332 320.972 414.826 321.29 415.173C321.578 415.435 321.442 415.27 321.14 415.023C320.843 414.774 320.354 414.401 319.833 414.026C318.718 413.224 317.368 412.329 315.904 411.394C305.098 404.597 257.434 383.718 217.041 362.966C185.823 346.873 160.05 330.239 156.131 328.028C155.816 327.956 173.328 339.352 161.221 332.084C145.24 322.152 160.101 330.413 142.012 317.799C140.917 316.973 132.216 311.036 122.127 302.603C107.523 290.914 91.296 272.437 90.6425 271.282C84.1419 263.479 89.4908 271.542 97.31 280.463C105.103 289.456 115.338 298.558 114.999 298.324C112.914 298.427 80.2813 262.817 80.3225 259.858C79.2735 258.35 102.907 290.546 75.656 250.957C78.3193 255.809 81.2301 260.523 84.3559 265.071C71.2513 246.491 71.9397 243.515 69.3978 238.711C67.5624 234.746 65.769 230.675 64.0539 226.363C59.1378 213.619 53.834 197.321 56.4179 174.89C57.4818 167.024 56.7865 180.159 57.0242 179.16C57.633 172.405 58.0127 164.118 60.5884 155.061C61.8121 150.772 63.5079 146.852 65.6221 143.177C65.8465 142.592 62.4818 150.644 62.39 151.839C62.691 153.448 62.653 143.749 80.7351 122.086C78.103 124.928 75.5928 127.935 73.2283 131.142C75.8095 125.709 96.6757 103.385 114.069 95.047C120.616 91.4434 126.156 88.9706 128.093 88.1458C147.996 80.6138 130.493 87.215 151.377 81.0721C143.122 82.7357 162.346 76.4211 179.99 77.1742C190.78 77.4139 200.029 78.6452 198.572 78.8183C205.907 78.1649 243.439 84.6469 267.444 93.2185C271.79 94.6498 275.81 96.1104 279.225 97.4326C294.301 102.765 320.754 117.371 324.508 119.75C328.168 121.963 327.954 122.326 331.462 124.738C332.526 125.474 333.975 126.426 335.972 127.683C338.423 129.18 363.959 144.286 385.125 159.433C389.244 162.352 397.324 169.306 389.408 164.28C375.905 155.63 350.895 138.545 350.81 139.382C350.869 140.159 385.335 161.931 394.268 168.385C435.669 197.951 411.112 181.801 412.082 182.677C413.248 183.86 419.151 188.272 424.96 192.709C431.102 197.389 437.189 202.039 437.654 202.431C441.327 205.506 425.413 194.03 424.962 194.18C424.42 194.285 445.106 211.1 440.192 207.566C436.504 204.86 429.517 199.377 423.481 194.691C417.97 190.404 413.225 186.811 412.616 186.389C396.825 175.658 415.456 190.038 422.469 196.047C422.905 196.415 423.296 196.748 423.632 197.038C424.369 197.675 423.462 197.105 422.268 196.316C420.638 195.238 418.453 193.752 419.335 194.439C420.328 195.211 421.239 195.92 422.078 196.571C440.863 211.286 425.868 197.354 440.609 208.81C454.289 219.652 436.145 206.383 436.644 206.87C437.319 207.37 453.715 220.285 456.057 222.667C456.977 223.356 433.116 205.433 421.297 197.618C417.244 194.874 414.625 193.232 415 193.698C417.003 195.139 419 196.589 420.98 198.043C432.82 206.744 444.608 215.551 456.168 224.986C456.755 226.368 437.682 210.383 435.566 208.997C431.374 205.981 442.522 215.085 441.855 214.918C441.505 214.822 427.817 204.995 439.711 214.488C443.74 217.821 452.927 223.883 466.974 237.258C415.238 194.961 450.555 224.942 451.927 226.252C453.227 227.683 428.266 208.144 458.068 232.495C458.305 234.798 457.167 232.253 448.533 225.56C437.844 217.581 461.918 236.743 423.595 206.755C425.474 208.845 456.252 232.984 457.589 234.691C458.92 235.888 452.044 230.518 454.331 232.619C480.866 258.132 462.452 240.823 469.613 248.724C470.06 249.091 479.101 258.836 481.297 262.312C482.12 263.478 482.268 263.751 481.19 262.393C480.322 261.31 478.629 259.137 475.577 255.764C441.589 221.928 424.155 211.389 416.834 207.846C441.746 227.27 471.417 250.517 480.341 263.037C481.473 264.48 482.377 265.672 483.057 266.597C492.581 279.972 482.413 266.339 483.456 268.075C483.918 268.607 491.848 280.305 491.829 280.54C493.376 284.495 488.27 275.75 479.313 263.817C466.879 247.182 442.607 227.973 431.952 219.85C436.676 223.827 441.362 227.85 445.976 231.957C439.502 226.671 432.893 221.528 426.227 216.453C457.357 241.378 427.33 217.334 418.466 212.542C416.511 211.447 437.722 226.804 413.346 209.502C430.824 222.929 425.122 218.847 440.945 230.873C440.5 230.916 426.416 220.196 412.092 209.952C403.658 203.876 395.119 198.005 389.665 194.324C399.916 201.647 406.836 206.756 411.772 210.382C431.18 225.043 421.467 215.069 453.801 243.081C461.731 249.044 442.31 232.509 443.877 233.843C449.773 238.392 463.653 249.554 477.551 264.704C477.655 264.822 477.736 264.908 477.797 264.967C477.992 265.158 477.997 265.085 477.911 264.881C477.604 264.121 475.837 261.394 478.426 264.49C479.54 265.863 481.447 268.305 484.424 272.583C485.886 274.486 492.713 286.401 492.489 286.301C491.249 284.928 484.01 273.506 483.444 273.211C483.083 272.83 491.419 285.391 491.292 285.525C491.096 286.191 484.371 275.049 485.206 276.752C487.323 280.394 514.393 326.635 476.935 267.402C504.091 307.11 490.487 284.876 476.491 265.958C473.57 262.155 470.315 258.639 467.524 255.821C463.439 251.77 462.157 250.983 455.923 245.518C447.868 238.512 438.065 230.493 433.623 227.098C428.786 223.498 455.408 245.03 416.284 214.651C432.414 227.835 460.864 248.211 475.11 267.006C478.141 271.051 480.788 274.89 482.988 278.348C498.441 305.164 487.569 285.74 473.883 267.936C466.556 258.511 456.628 249.95 454.332 247.895C452.615 246.383 457.976 251.895 456.822 250.896C455.583 248.857 418.364 218.902 414.048 216.571C410.041 214.029 428.103 227.186 428.967 228.467C429.29 228.877 417.64 220.127 409.07 214.002C400.81 208.106 395.665 204.574 408.015 213.772C408.274 213.968 408.536 214.165 408.8 214.364C426.555 227.331 456.868 250.861 460.013 256.418C444.563 241.599 426.512 228.101 408.546 214.704C401.049 209.147 393.418 203.713 385.707 198.368C393.258 203.943 400.723 209.602 408.045 215.377C414.354 220.352 420.607 225.344 426.752 230.394C420.278 225.401 413.924 220.602 407.652 215.902C386.952 200.454 366.891 186.657 344.716 172.97C411.822 218.993 322.107 159.26 320.634 159.457C320.275 159.257 346.712 177.305 350.841 180.386C341.98 174.797 326.365 164.992 312.235 156.728C288.165 142.565 269.134 133.944 295.49 148.906C287.872 143.947 268.932 135.991 269.157 136.398C271.186 136.792 312.064 159.067 305.162 156.079C297.086 152.135 286.738 145.015 274.982 139.667C267.261 136.165 260.742 133.9 254.878 132.147C218.283 122.548 218.271 123.895 179.067 121.388C174.912 121.321 170.236 121.579 164.823 122.545C165.936 122.458 167.041 122.399 168.14 122.367C157.408 123.834 146.412 127.997 135.346 134.014C120.295 141.813 106.843 156.306 103.619 167.231C99.7348 180.58 101.074 195.132 106.757 210.101C113.848 229.11 125.325 245.139 141.001 259.783C143.729 262.156 147.119 265.022 151.138 268.257C170.279 283.84 207.694 306.355 238.319 321.852C248.729 327.184 258.55 331.91 266.569 335.767C273.71 339.25 309.985 356.742 312.852 358.335C317.886 360.907 289.605 347.593 302.218 353.937C303.069 354.374 310.393 357.826 319.789 362.483C329.722 367.851 339.066 370.816 353.142 382.824C355.344 385.266 358.356 387.443 361.112 395.74C362.433 399.918 362.628 406.598 360.442 411.963C358.29 417.465 355.087 420.617 352.938 422.473C348.25 426.257 345.809 426.922 343.632 427.842C341.644 428.587 340.141 428.998 338.905 429.32C334.164 430.474 332.722 430.59 333.856 430.556C336.259 430.069 338.942 430.129 346.134 427.109C348.001 426.213 350.385 425.119 353.743 422.168C356.954 419.467 362.029 412.686 362.39 404.418C362.609 400.244 361.949 397.203 361.012 394.391C360.225 392.062 359.067 389.901 358.204 388.548C356.344 385.65 354.836 384.081 353.359 382.604C346.139 376.005 342.243 374.377 338.34 371.965C334.658 369.858 331.883 368.4 330.828 367.791C327.387 365.837 327.951 366.012 331.571 367.838C333.371 368.757 335.956 370.102 339.319 372.036C342.904 374.289 346.21 375.526 353.655 382.303C355.401 384.112 357.34 385.892 359.874 390.648C361.07 393.012 362.528 396.632 362.804 401.402C363.173 406.545 361.569 412.506 358.913 416.631C353.436 424.689 349.112 425.945 346.21 427.514C343.165 428.869 341.126 429.414 339.175 429.917C331.719 431.657 326.686 431.836 321.171 432.145C310.497 432.609 299.878 432.307 289.47 432.147C270.396 431.643 254.155 432.818 236.371 435.777C206.447 440.479 182.33 445.603 179.152 446.399C183.623 445.653 188.112 444.937 192.611 444.245C179.891 446.659 167.195 449.25 154.984 452.199ZM83.3649 115.851C88.3021 109.916 101.212 99.4897 113.102 93.2758C116.299 91.535 119.398 89.9537 122.127 88.611C138.19 79.0812 173.07 71.9243 158.525 76.5179C141.734 79.446 126.527 85.8742 113.123 93.3135C102.378 99.2696 92.2562 106.726 83.3649 115.851ZM273.087 392.002C258.725 384.936 270.565 389.059 282.105 395.071C283.349 395.732 292.373 401.533 273.087 392.002ZM123.188 305.265C123.773 305.863 135.62 315.04 136.035 315.267C144.01 321.6 124.797 307.583 121.085 303.837C120.34 303.149 120.248 303.001 121.189 303.714C121.619 304.04 122.275 304.553 123.188 305.265ZM200.621 631.318C183.291 630.261 195.812 632.165 206.524 632.47C207.203 632.488 201.762 631.389 200.621 631.318ZM188.283 630.502C181.906 629.625 172.232 629.294 166.147 629.24C160.018 629.183 157.612 629.49 166.096 630.041C166.91 630.092 167.833 630.146 168.878 630.2C171.094 630.325 188.927 630.583 188.283 630.502ZM221.209 366.544C223.049 367.078 238.113 374.744 244.516 377.869C244.192 378.137 227.585 369.789 221.209 366.544ZM43.732 455.612C43.3697 455.811 66.6664 438.255 83.7651 429.152C91.8823 424.539 98.9707 421.239 100.196 420.552C97.4561 421.823 90.869 424.924 83.6554 428.955C66.52 437.971 43.9334 454.839 43.732 455.612ZM62.4175 607.987C61.227 607.761 40.4825 598.227 40.6603 598.125C51.4806 604.861 68.791 610.674 62.4175 607.987ZM278.47 672.716C277.728 673.73 286.818 662.31 269.295 690.243C266.647 694.361 275.197 679.108 274.176 680.602C272.314 683.634 270.801 686.063 269.595 688.052C277.837 674.479 283.192 661.725 283.448 660.802C284.603 658.217 283.89 660.788 282.406 664.371C280.949 667.939 278.556 672.526 278.47 672.716ZM204.124 807.904C202.684 811.123 193.791 832.92 192.358 838.358C192.097 839.279 192.428 835.014 189.543 845.623C187.503 854.266 191.088 841.454 187.38 858.404C184.396 875.788 187.654 852.424 187.539 853.97C186.486 855.871 183.8 883.156 183.869 882.225C182.996 881.684 186.715 852.297 189.193 845.584C191.589 836.773 187.833 847.153 192.503 832.732C195.661 823.857 194.876 829.112 195.576 827.272C195.811 825.41 208.358 796.116 204.1 807.947C204.108 807.933 204.116 807.918 204.124 807.904ZM267.427 691.707C268.023 690.671 268.727 689.482 269.595 688.052C268.874 689.277 268.155 690.489 267.427 691.707ZM56.7792 169.381C55.9253 176.09 56.2147 165.776 59.3476 154.71C61.5733 146.801 65.0683 140.375 67.4985 136.521C67.731 136.594 62.6946 144.466 59.7811 154.832C57.7965 161.803 56.8929 168.631 56.7792 169.381ZM260.201 704.811C258.1 708.089 256.548 710.498 255.498 712.111C252.996 715.964 253.278 715.3 255.23 711.945C257.595 707.863 262.48 699.956 267.427 691.707C264.095 697.475 264.595 697.947 260.201 704.811ZM255.596 386.69C254.464 386.714 253.744 386.67 253.636 386.494C256.611 386.426 256.884 386.525 255.596 386.69ZM197.262 395.221C177.896 399.391 217.446 392.057 217.16 391.834C217.01 391.67 198.026 395.021 197.262 395.221ZM222.533 633.135C220.788 632.96 247.611 633.66 208.786 631.48C229.517 633.382 207.64 631.744 207.924 631.95C208.863 632.268 243.424 635.162 250.319 636.953C256.264 636.998 228.338 633.592 222.577 633.139C222.562 633.138 222.548 633.136 222.533 633.135ZM373.9 900.166C372.057 901.851 367.989 905.034 363.239 908.536C358.394 912.114 352.824 916.02 348.287 919.122C350.745 917.098 356.793 912.814 363.027 908.247C366.807 905.484 370.669 902.619 373.9 900.166ZM954.622 128.279C967.379 133.103 977.918 138.247 986.264 142.922C1002.19 151.699 1011.26 158.111 1011.24 158.382C1011.38 158.75 1002.48 152.875 985.844 143.68C981.19 141.069 975.841 138.265 969.765 135.399C968.564 134.614 950.183 126.667 954.622 128.279ZM747.607 489.29C750.201 487.003 748.181 489.356 744.346 494.099C740.372 499.396 735.468 504.394 729.975 516.679C729.172 518.877 728.254 521.763 728.385 526.203C728.401 530.523 730.647 536.991 734.524 540.882C742.67 548.558 747.689 547.731 750.689 548.298C757.228 548.755 762.988 547.166 765.405 546.715C766.635 546.459 767.063 546.439 766.086 546.853C764.812 547.224 763.434 548.309 755.445 549.285C755.519 549.036 754.42 549.276 749.703 548.785C747.256 548.164 743.414 548.874 735.556 542.502C731.712 539.264 728.406 532.738 728.103 527.654C727.657 522.493 728.72 519.102 729.657 516.559C735.408 503.841 742.616 495.929 747.607 489.29ZM253.259 716.946C249.876 723.368 238.218 742.35 232.486 752.604C235.536 746.095 247.624 725.669 253.259 716.946ZM1048.99 337.887C1043.98 344.224 1040.84 348.841 1041.81 347.809C1046.21 343.19 1054.89 330.859 1048.99 337.887ZM285.381 659.915C285.663 659.588 284.185 664.581 281.377 670.341C278.64 676.083 274.903 682.279 274.093 682.904C277.519 677.76 285.657 659.983 285.381 659.915ZM357.42 912.071C355.705 913.207 358.574 911.058 362.769 907.896C368.038 903.94 375.311 898.335 378.534 895.934C378.364 896.381 369.283 903.508 362.939 908.127C360.306 910.058 358.165 911.574 357.42 912.071ZM956.365 423.934C950.911 428.069 937.223 438.297 935.871 439.628C934.21 441.337 954.176 426.22 956.365 423.934ZM408.174 52.2719C407.157 52.2384 430.846 33.9179 442.517 28.9488C453.463 23.8131 444.594 28.0241 433.293 34.6629C421.941 41.1163 408.584 51.7931 408.174 52.2719ZM1078.75 260.502C1078.79 249.295 1076.87 246.935 1076.58 245.058C1076.1 243.473 1076.24 243.829 1076.71 245.23C1077.65 247.745 1079.71 256.074 1079.14 262.021C1079.14 262.736 1079.17 263.133 1079.28 262.995C1079.31 262.685 1079.34 262.366 1079.36 262.04C1079.63 241.725 1071.03 232.215 1067.38 224.664C1063.27 217.848 1061.8 215.541 1068.13 227.137C1070.31 232.276 1078.66 242.904 1078.75 260.502ZM1075.07 283.638C1074.92 286.306 1070.16 304.023 1074.67 288.851C1076.61 281.778 1077.85 270.305 1075.07 283.638ZM575.157 2.16942C583.142 3.38721 573.987 1.94546 559.167 1.48647C535.345 -0.076873 498.843 8.05442 497.475 8.7489C496.064 9.06273 495.14 9.26188 494.61 9.36072C492.738 9.97865 486.467 11.8466 481.108 13.5622C476.914 14.8873 473.197 16.1196 472.281 16.2271C474.253 15.521 477.57 14.3472 480.998 13.2265C486.263 11.4868 491.876 9.86799 492.885 9.62384C493.597 9.4467 494.13 9.32136 494.5 9.24222C498.488 7.27679 536.398 -0.813153 559.181 0.985716C567.862 1.28554 574.043 2.03729 575.157 2.16942ZM716.138 72.5155C699.129 53.3916 695.542 50.8898 697.476 51.9365C718.005 70.528 704.082 58.9142 704.737 59.456C706.28 60.6007 719.424 75.4908 716.088 72.4521C716.105 72.4732 716.121 72.4943 716.138 72.5155ZM607.14 7.87719C606.229 7.47175 586.572 3.63161 585.717 3.68484C577.589 2.3352 587.663 3.39551 597.291 5.3365C606.932 7.24581 616.123 9.93671 607.14 7.87719ZM202.798 941.29C203.061 941.571 203.318 941.839 203.57 942.095C208.007 946.51 209.861 947.632 209.322 947.425C208.837 947.173 206.193 945.352 203.219 942.446C199.625 938.975 196.348 934.322 194.291 930.325C194.036 929.838 193.643 928.726 194.301 929.675C195.14 930.606 196.086 933.714 202.798 941.29ZM1071.87 295.612C1071.44 297.098 1064.43 317.213 1051.49 333.612C1038.24 351.477 1021.73 367.473 1024.04 365.891C1026.1 363.781 1040.26 349.673 1051.94 333.955C1069.5 311.921 1075.74 283.25 1071.87 295.612ZM907.335 420.126C891.478 421.884 908.67 418.747 917.297 419.154C920.448 419.225 911.377 419.712 907.335 420.126ZM286.51 646.615C284.41 645.13 282.193 643.846 282.683 643.793C282.902 643.628 285.616 644.753 287 646.307C287.036 646.348 287.071 646.39 287.104 646.431C287.167 646.51 286.9 646.623 286.698 646.644C286.62 646.651 286.55 646.644 286.51 646.615ZM794.545 453.622C805.733 447.459 814.128 444.281 819.103 442.542C826.111 440.187 826.113 440.611 819.424 443.396C811.483 446.918 793.933 453.44 771.211 470.132C772.837 468.745 774.562 467.334 776.237 466.008C715.919 519.667 769.837 466.322 787.869 458.045C794.276 454.247 788.613 456.988 794.499 453.644C794.514 453.637 794.529 453.63 794.545 453.622ZM984.311 426.473C1020.04 435.156 975.583 424.365 941.101 421.735C930.944 420.767 920.779 420.322 914.103 420.658C924.033 420.041 934.215 420.716 941.149 421.183C951.762 421.965 956.104 422.277 941.203 420.558C938.03 420.219 933.987 419.793 928.668 419.429C933.454 419.665 937.555 419.996 941.225 420.31C990.25 425.587 966.939 424.045 969.348 424.174C972.408 424.651 982.325 426.013 984.311 426.473ZM856.429 430.826C853.786 431.555 834.034 437.229 826.969 439.887C836.604 435.479 873.796 425.521 856.429 430.826ZM748.645 233.417C748.52 232.397 748.587 230.513 749.217 225.875C749.691 222.397 750.392 217.508 751.065 210.549C750.934 214.085 750.442 220.138 749.645 225.943C749.29 228.613 748.938 231.214 748.645 233.417ZM98.8761 105.739C103.004 102.642 109.031 98.7524 114.487 95.8123C122.179 91.6093 128.693 88.787 124.437 90.3682C124.116 90.4965 119.386 92.6975 114.321 95.5077C106.85 99.5107 98.7613 105.576 98.8761 105.739ZM904.099 461.177C902.309 462.635 852.914 496.672 870.286 485.354C875.664 482.095 920.078 450.473 904.099 461.177ZM1052.55 203.064C1055.37 207.111 1066.73 225.142 1067.01 225.781C1068.17 226.503 1054.12 204.461 1052.55 203.064ZM156.68 80.4987C157.556 80.303 169.589 78.1547 179.963 78.4769C187.802 78.5892 194.288 79.0959 192.507 78.8387C190.134 78.5209 185.307 78.1683 179.971 78.0767C167.196 77.6181 152.703 81.1988 156.68 80.4987ZM266.086 955.868C269.379 955.199 273.647 954.608 274.725 954.302C276.093 954.055 290.541 949.412 300.885 944.412C311.475 939.431 318.672 935.312 309.671 940.605C309.068 940.937 306.017 942.586 301.105 944.883C291.73 949.148 276.326 955.984 257.478 958.169C236.488 962.072 210.732 949.976 206.889 944.687C204.952 942.318 212.874 950.585 224.885 954.689C236.812 959.059 249.706 958.616 254.296 958.2C255.134 958.127 255.812 957.916 257.415 957.584C259.088 957.238 261.713 956.777 266.059 955.877C266.068 955.874 266.077 955.871 266.086 955.868ZM747.86 145.037C747.404 143.894 744.132 127.089 737.572 111.262C731.258 95.2908 721.826 81.4814 722.368 81.7351C735.115 100.634 743.701 123.103 747.86 145.037ZM751.645 177.717C751.784 188.089 751.352 172.308 749.758 159.956C749.271 155.911 748.718 152.217 748.362 149.895C748.478 149.817 749.363 154.431 750.073 159.918C751.092 167.393 751.632 176.558 751.645 177.717ZM1053.66 327.414C1049.95 333.271 1062.12 315.76 1059.62 319.798C1058.64 321.624 1054.51 328.063 1050.69 333.008C1049 335.234 1047.43 337.28 1046.56 338.497C1046.17 339.037 1048.5 336.402 1051.06 333.291C1053.78 330.002 1056.66 325.97 1057.84 324.058C1061.25 318.45 1057.57 323.653 1061.16 317.466C1071.41 299.273 1076.35 280.199 1077.93 261.917C1078.41 255.803 1077.39 251.536 1076.44 247.941C1076.07 246.622 1077.25 251.046 1077.48 253.633C1077.61 254.875 1077.62 255.34 1077.37 253.73C1077.11 252.154 1076.47 248.546 1074.72 243.736C1073.75 240.175 1067.07 225.262 1057.13 210.426C1053.23 204.889 1049.57 199.755 1046.03 194.704C1030.37 171.858 1008.29 157.768 985.082 145.053C977.17 140.653 968.486 136.487 958.817 132.665C959.923 133.172 974.095 139.302 984.814 145.538C991.016 149.059 996.418 152.241 997.165 152.693C1010.76 160.714 1031.24 173.771 1045.34 195.168C1051.13 203.816 1057.11 212.745 1062.86 222.351C1065.75 227.2 1068.58 232.174 1071.21 237.9C1073.62 243.887 1077.06 249.487 1076.57 261.799C1075.3 277.496 1071.45 292.806 1066.23 304.791C1060.87 316.512 1063.74 310.961 1061.22 315.905C1059 319.662 1061.41 315.148 1053.66 327.414ZM93.7134 110.268C97.0605 107.943 105.492 101.406 114.783 96.3541C119.336 93.8262 124.095 91.4457 128.233 89.6437C126.137 90.2658 120.65 92.7098 114.611 96.0397C107.324 99.9767 99.2377 105.672 93.7134 110.268ZM727.505 180.366C729.344 177.804 733.286 172.65 737.059 168.136C740.668 163.766 744.317 159.758 744.81 159.097C745.448 158.227 740.981 162.873 736.815 167.935C732.255 173.381 727.72 179.681 727.505 180.366ZM495.309 769.752C495.672 769.255 502.766 756.319 502.963 755.815C509.726 744.474 488.288 783.251 495.309 769.752ZM539.724 815.874C542.002 826.385 544.74 837.001 545.137 840.689C543.452 833.898 539.077 814.722 539.724 815.874ZM811.792 791.252C811.458 792.266 811.683 786.654 811.25 779.103C810.903 768.299 807.39 753.546 805.924 749.614C806.808 751.052 811.541 767.228 811.857 779.068C812.231 785.533 811.975 790.594 811.792 791.252ZM746.178 235.363C746.891 231.142 747.346 228.05 747.668 225.627C748.82 216.14 748.247 216.547 749.423 206.119C749.476 203.965 752.727 196.951 749.452 220.219C748.845 223.71 750.022 212.772 747.9 225.664C747.477 227.982 746.927 231.109 746.178 235.363ZM762.43 477.291C758.403 481.227 745.895 493.197 738.788 503.768C739.833 500.73 755.832 482.372 762.43 477.291ZM223.051 83.5776C232.729 85.149 275.383 97.2486 264.96 93.8165C263.626 92.9167 229.381 84.2303 223.051 83.5776ZM229.798 761.533C221.809 777.271 239.351 745.226 244.918 735.137C242.236 739.616 230.283 760.437 229.798 761.533ZM779.674 903.774C780.061 903.007 787.49 885.679 787.775 884.878C794.307 870.835 773.203 919.903 779.674 903.774ZM521.135 707.534C522.754 713.781 529.625 756.619 530.928 766.383C528.712 757.078 519.312 699.53 521.135 707.534ZM723.673 318.839C732.928 302.145 735.466 289.12 738.944 276.009C739.38 278.537 727.701 315.998 723.673 318.839ZM804.021 837.914C804.301 836.882 804.593 835.92 804.851 834.93C804.572 835.959 804.299 836.932 804.021 837.914ZM903.218 116.862C915.114 119.547 912.778 118.494 912.044 118.273C903.105 115.962 889.741 114.06 903.218 116.862ZM106.916 101.727C108.303 101.057 111.315 99.2392 115.213 97.1419C122.735 92.9937 134.399 87.5617 142.908 85.0772C139.943 85.4703 124.945 91.1298 115.053 96.849C111.822 98.6256 108.981 100.381 106.916 101.727ZM1033.57 439.136C1038.97 440.955 1033.91 439.667 1024.76 437.388C1009.74 433.461 983.332 428.43 975.363 427.099C974.703 426.483 1008.69 432.164 1024.92 436.778C1029.79 438.041 1033.09 438.98 1033.57 439.136ZM258.063 714.646C258.149 714.58 258.322 714.359 258.565 714.013C261.217 710.239 271.502 692.927 268.799 696.879C267.266 699.167 260.098 710.746 258.39 713.905C258.101 714.436 257.975 714.713 258.063 714.646ZM944.669 423.02C943.637 422.948 942.366 422.839 941.016 422.713C934.806 422.095 926.03 421.307 930.108 421.31C933.544 421.316 937.975 421.836 941.051 422.309C943.658 422.708 945.353 423.067 944.669 423.02ZM991.423 391.902C990.693 392.488 986.797 395.839 982.64 399.357C975.584 405.341 967.816 411.815 974.816 406.623C979.605 403.044 981.71 401.086 983.014 399.813C983.827 399.021 984.348 398.474 985.003 397.933C987.116 396.653 1028.37 361.262 991.423 391.902ZM1163.92 663.478C1170.37 660.78 1177.62 657.821 1184.92 654.697C1191.71 651.793 1198.47 648.002 1204.3 643.584C1201.97 645.577 1193.95 651.186 1185.03 654.959C1176.12 658.854 1166.67 662.584 1163.92 663.478ZM210.853 800.34C211.663 797.231 251.693 724.184 228.482 765.434C226.907 767.681 206.124 808.406 210.853 800.34ZM746.178 235.363C745.766 237.802 745.264 240.642 744.65 243.906C745.234 240.66 745.746 237.816 746.178 235.363ZM733.464 174.294C732.253 176.108 734.593 173.162 738.095 168.991C742.201 164.009 748.608 157.025 751.562 154.096C752.467 152.725 742.907 162.326 737.835 168.777C735.373 171.772 733.584 174.12 733.464 174.294ZM1205.02 642.466C1212.71 636.777 1223.83 623.729 1228.92 615.074C1228.57 615.858 1224.74 622.332 1219.28 628.9C1213.93 635.523 1206.74 641.403 1205.02 642.466ZM793.366 725.417C791.587 722.255 789.631 719.053 787.651 716.001C780.334 704.999 773.948 696.728 773.614 696.627C773.49 696.352 773.137 695.748 772.534 694.78C772.246 694.307 769.897 691.052 767.587 687.481C766.441 685.709 765.318 683.844 764.618 682.473C764.271 681.801 764.038 681.257 763.985 681.093C763.921 680.952 764.101 681.137 764.299 682.553C764.322 682.735 764.342 682.931 764.356 683.141C764.552 684.724 764.043 688.642 762.033 691.543C760.079 694.462 758.008 695.681 756.916 696.308C755.74 696.94 755.287 697.07 754.959 697.205C754.658 697.319 754.589 697.351 754.691 697.335C754.958 697.19 755.632 697.448 758.769 695.318C760.296 694.23 762.51 691.906 763.653 688.989C764.229 687.559 764.505 686.282 764.63 685.092C764.738 684.022 764.704 683.185 764.633 682.515C764.515 681.483 764.372 681.084 764.345 680.966C764.311 680.846 764.366 681.003 764.49 681.269C764.743 681.825 765.278 682.857 765.982 684.058C767.398 686.487 769.474 689.632 771.826 693.02C776.558 699.874 782.365 707.543 787.83 715.884C796.669 729.115 802.354 743.041 803.161 745.993C803.798 749.335 802.111 739.284 787.067 716.383C785.812 714.5 784.504 712.623 783.138 710.7C784.49 712.485 785.854 714.317 787.238 716.271C789.332 719.222 791.383 722.259 793.366 725.417ZM511.429 649.232C511.156 646.687 510.573 642.692 509.894 639.031C509.563 637.24 509.154 635.385 508.894 634.575C508.839 634.399 508.789 634.279 508.813 634.373C508.846 634.474 508.915 634.771 509.367 635.644C510.163 636.606 509.964 638.437 516.099 642.106C519.021 643.792 524.461 644.452 527.706 643.517C531.382 642.561 532.655 641.503 533.958 640.588C537.873 637.469 538.94 634.672 539.631 633.078C539.71 632.877 539.794 632.648 539.842 632.511C539.882 632.399 539.919 632.291 539.953 632.187C540.022 631.978 540.082 631.785 540.135 631.605C540.24 631.245 540.317 630.939 540.378 630.672C540.5 630.139 540.563 629.759 540.607 629.473C540.638 629.273 540.658 629.118 540.673 628.993C540.731 628.49 540.727 628.495 540.735 628.509C540.744 628.608 540.749 628.919 540.756 629.25C540.764 629.541 540.772 629.88 540.78 630.174C540.788 630.437 540.797 630.681 540.805 630.878C540.838 631.714 540.893 631.544 540.953 630.301C540.969 629.962 540.986 629.435 541.006 628.937C541.011 628.816 541.016 628.71 541.02 628.634C541.025 628.546 541.03 628.489 541.029 628.531C541.028 628.556 541.029 628.73 540.959 629.3C540.931 629.504 540.849 630.214 540.571 631.284C540.498 631.561 540.41 631.872 540.294 632.229C540.265 632.318 540.235 632.41 540.202 632.505C540.186 632.552 540.169 632.6 540.152 632.649C540.128 632.716 540.095 632.808 540.064 632.891C539.938 633.231 539.788 633.605 539.601 634.021C538.837 635.631 537.57 638.188 534.168 640.862C533.285 641.536 532.087 642.335 530.355 643.05C528.294 643.895 525.525 644.556 522.247 644.265C515.175 643.497 511.906 639.671 510.692 638.313C509.926 637.388 509.635 636.91 509.326 636.413C509.182 636.177 509.06 635.959 508.964 635.779C508.88 635.623 508.81 635.483 508.749 635.358C508.501 634.843 508.435 634.647 508.394 634.542C508.303 634.251 508.623 635.367 508.844 636.463C509.334 638.785 509.858 641.853 510.298 644.375C511.173 649.45 511.808 652.811 511.429 649.232ZM606.392 964.625C603.941 962.663 588.486 942.438 588.3 941.89C595.244 954.356 615.267 974.531 606.392 964.625ZM533.661 672.532C532.184 677.957 530.755 685.01 530.978 684.382C533.014 679.095 536.405 663.461 533.661 672.532ZM736.48 275.49C734.771 283.337 727.731 309.321 723.368 316.487C723.075 316.931 722.55 317.779 721.763 318.952C721.293 319.658 720.788 320.438 719.706 321.746C719.112 322.438 718.473 323.201 717.076 324.406C715.558 325.442 713.932 327.718 706.969 328.794C703.6 329.261 698.712 328.213 695.712 326.223C692.607 324.262 691.118 322.245 690.133 320.803C688.248 317.835 687.93 316.284 687.531 314.963C686.88 312.415 686.812 311.001 686.711 309.593C686.713 309.621 686.715 309.649 686.717 309.677C686.654 308.76 686.558 306.379 686.701 303.56C687.268 293.082 688.408 263.427 699.407 236.299C708.801 212.681 721.836 193.143 725.334 187.911C729.428 183.053 720.218 190.146 701.338 229.914C699.999 232.99 701.126 230.816 699.046 236.154C698.254 238.239 697.026 241.408 695.416 246.401C695.032 247.625 694.474 248.128 693.39 251.926C691.005 258.445 686.104 286.773 685.994 303.53C685.936 305.027 685.913 306.534 685.982 308.235C686.101 310.037 686.065 311.622 687.021 315.254C687.296 316.194 687.656 317.363 688.48 319.017C689.37 320.616 690.539 323.204 694.752 326.209C698.916 329.483 707.034 330.014 710.538 328.556C714.351 327.293 715.861 325.935 717.064 325.008C719.279 323.119 719.985 322.051 720.661 321.192C721.299 320.331 721.697 319.704 722.05 319.131C722.339 318.65 722.59 318.215 722.805 317.832C722.911 317.776 723.382 317.124 724.192 315.75C732.443 302.968 738.006 269.353 736.48 275.49ZM653.769 991.397C648.915 990.208 633.072 984.366 631.241 983.495C639.234 988.229 665.145 994.76 653.769 991.397ZM213.128 798.564C217.494 790.001 228.393 768.275 224.757 774.662C222.387 778.472 207.935 808.394 213.128 798.564ZM555.396 869.523C560.849 886.739 564.147 894.074 565.123 896.568C565.814 898.212 565.67 897.781 565.208 896.533C564.147 893.72 561.592 886.568 563.29 890.339C560.436 883.494 557.801 876.525 555.396 869.523ZM666.679 34.238C673.98 38.6339 666.551 34.9076 658.5 30.5118C657.64 30.0417 656.773 29.5639 655.916 29.0846C654.482 28.2884 656.127 28.9207 658.704 30.1165C661.158 31.2508 664.452 32.9359 666.679 34.238ZM386.664 202.99C385.467 199.053 388.534 206.443 391.385 212.484C394.219 218.548 396.437 223.457 393.037 217.257C392.71 216.818 386.78 203.661 386.664 202.99ZM544.86 4.93836C549.032 4.42759 552.273 4.16991 559.091 4.30801C562.669 4.39707 567.218 4.62149 573.324 5.24042C559.919 4.19232 559.548 4.68912 559.079 4.72117C558.597 4.89726 557.942 4.61095 544.86 4.93836ZM773.656 696.787C773.621 696.699 773.589 696.627 773.614 696.627C773.657 696.722 773.667 696.77 773.656 696.787ZM516.17 722.817C515.385 724.371 514.3 726.683 513.108 729.25C509.714 736.621 505.536 745.567 507.725 741.764C507.914 741.444 511.138 734.834 513.497 729.421C514.839 726.366 515.89 723.784 516.17 722.817ZM723.368 316.487C724.012 315.483 723.813 316.009 722.805 317.832C722.698 317.892 722.948 317.367 723.368 316.487ZM510.001 636.486C509.594 634.886 513.994 663.585 514.321 664.845C517.735 681.607 511.844 646.385 510.001 636.486ZM290.869 645.659C290.698 645.507 291.123 647.376 291.423 650.287C291.539 651.427 291.799 650.262 291.77 648.863C291.744 647.447 291.35 646.278 290.869 645.659ZM485.678 16.0753C484.589 16.4188 483.452 16.7843 482.29 17.1649C473.502 19.9854 463.348 24.0782 461.148 24.6429C465.54 22.7636 476.512 18.64 482.228 16.977C484.339 16.3383 485.705 15.9799 485.678 16.0753ZM381.788 188.031C377.05 176.735 373.205 148.066 376.111 130.419C376.483 130.304 374.937 141.819 375.749 155.037C376.344 168.246 379.933 182.655 381.788 188.031ZM741.807 250.521C741.753 251.245 736.884 274.32 737.894 271.27C739.666 266.728 743.253 244.063 741.807 250.521ZM285.053 671.62C281.154 680.174 292.181 660.72 291.763 653.863C291.769 652.154 291.457 655.373 289.808 660.207C288.254 664.952 285.359 670.94 285.053 671.62ZM487.611 777.605C480.257 789.947 499.334 759.863 500.699 755.103C497.745 760.914 490.323 773.28 487.611 777.605ZM582.984 930.051C563.268 889.334 572.56 912.18 576.193 919.347C576.668 920.383 583.466 931.076 582.984 930.051ZM326.055 125.911C331.476 128.883 311.973 116.643 308.971 115.637C307.258 114.934 322.705 123.964 326.055 125.911ZM922.989 717.392C921.118 717.431 919.262 717.457 917.427 717.472C918.802 717.442 920.615 717.419 922.989 717.392ZM400.488 870.141C421.654 854.111 421.73 852.314 422.746 851.153C422.899 850.959 423.069 850.768 423.333 850.525C427.604 846.627 437.704 837.662 445.218 829.608C438.152 837.267 430.841 844.65 423.35 851.806C421.792 853.294 420.214 854.784 418.644 856.252C419.524 855.478 421.205 853.987 423.469 851.935C433.266 843.221 453.454 823.441 467.207 806.463C477.468 794.075 484.288 783.399 484.585 782.79C485.919 780.487 469.824 803.283 469.02 803.682C468.651 804.104 467.637 804.919 466.481 805.87C465.235 806.886 463.828 808.058 462.96 809.058C461.342 811.183 440.888 834.582 422.565 850.957C412.562 860.132 403.652 867.597 400.488 870.141ZM549.034 843.239C550.647 850.105 550.756 852.18 551.747 855.332C552.089 856.395 552.559 856.462 553.746 860.121C552.058 854.487 550.5 848.865 549.034 843.239ZM358.453 905.344C356.406 906.643 357.382 905.826 359.868 903.938C366.376 899.099 382.614 886.595 383.312 886.028C388.363 882.492 368.102 898.933 360.097 904.25C359.456 904.689 358.902 905.058 358.453 905.344ZM539.446 632.704C540.217 634.688 534.917 666.436 534.751 665.99C538.348 658.466 540.698 614.613 539.446 632.704ZM555.142 864.671C558.037 874.964 564.984 894.219 564.809 891.752C564.803 891.737 564.797 891.722 564.791 891.707C561.198 882.837 557.978 873.756 555.142 864.671ZM269.84 701.121C280.473 685.843 274.891 692.546 265.709 706.539C263.407 711.116 268.075 703.628 269.84 701.121ZM293.603 653.018C293.728 652.293 293.98 649.978 293.612 647.931C293.208 645.847 292.574 644.379 290.439 642.463C284.2 636.899 268.87 633.363 273.216 634.874C274.667 635.331 286.732 639.396 290.138 642.799C292.038 644.428 292.447 645.568 292.552 645.759C292.677 646.104 292.251 645.582 292.096 645.619C292.019 645.636 292.023 645.768 292.165 646.205C292.293 646.672 292.608 647.303 292.819 649.204C292.903 648.971 293.215 649.921 293.357 651.119C293.512 652.275 293.499 653.603 293.603 653.018ZM278.392 688.38C288.065 673.15 287.94 669.101 281.973 680.68C279.491 685.222 276.966 690.554 278.392 688.38ZM238.379 754.746C241.847 748.767 251.189 732.949 257.406 721.881C248.531 736.346 240.027 751.036 231.905 765.932C231.222 767.784 235.309 759.958 238.402 754.705C238.394 754.719 238.386 754.732 238.379 754.746ZM472.206 268.995C463.249 266.745 474.443 268.645 481.026 271.127C482.645 271.766 483.059 272.05 484.18 272.851C485.201 273.604 486.129 274.392 486.28 274.537C487.165 275.41 486.426 274.917 485.046 273.933C484.37 273.455 483.573 272.907 482.968 272.567C482.352 272.222 481.911 272.018 480.835 271.608C478.206 270.607 474.406 269.604 472.206 268.995ZM417.005 202.648C417.119 202.74 417.23 202.831 417.34 202.921C420.392 205.442 422.368 207.535 429.61 212.697C425.598 209.34 421.559 206.008 417.509 202.695C414.384 200.138 411.235 197.606 408.068 195.095C401.666 191.644 413.471 199.737 417.005 202.648ZM442.89 226.899C441.843 226.122 446.555 231.622 433.921 220.469C425.417 212.741 474.694 250.754 479.75 261.442C472.213 251.638 451.851 233.654 442.89 226.899ZM502.624 313.531C503.09 314.092 493.421 293.658 491.842 291.485C485.495 279.163 502.684 309.519 502.624 313.531ZM463.828 253.113C471.239 260.788 454.255 244.361 448.624 239.799C448.356 239.066 462.852 251.823 463.828 253.113ZM400.489 145.2C401.808 134.132 401.083 123.847 399.913 141.186C399.874 142.033 400.423 145.67 400.489 145.2ZM491.927 294.23C487.036 284.822 498.673 305.265 500.726 311.917C500.943 312.535 492.91 295.56 491.927 294.23ZM403.232 137.526C405.547 123.106 402.823 127.831 402.35 129.67C400.038 137.258 401.856 163.327 403.889 168.3C400.402 149.287 402.152 143.049 402.239 141.044C402.611 139.007 402.804 140.955 403.232 137.526ZM424.994 76.729C428.658 73.4299 427.434 74.2768 424.278 76.9651C418.792 80.9251 411.347 93.8148 410.535 98.0298C412.439 91.8546 420.819 79.8162 424.488 77.1974C424.68 77.0202 424.85 76.8633 424.994 76.729ZM500.765 39.3651C508.074 37.0086 530.11 33.0849 533.826 32.631C525.654 33.221 503.716 37.854 500.765 39.3651ZM517.644 36.3975C529.231 34.7645 531.802 32.8978 518.54 35.6746C518.025 35.7926 517.217 36.4551 517.644 36.3975ZM582.878 35.6557C590.361 37.4365 599.282 37.8526 586.986 35.437C583.318 34.7921 582.085 35.4704 582.878 35.6557ZM408.578 119.675C411.09 109.098 413.851 95.7738 408.054 117.847C409.631 109.794 411.654 102.137 414.659 95.3348C406.085 115.267 407.581 121.057 406.711 125.439C406.563 126.829 406.393 128.205 406.089 130.173C404.516 141.891 403.816 140.951 403.518 138.523C401.616 148.784 408.241 188.372 422.842 211.386C411.272 190.635 402.226 158.73 405.473 137.838C405.862 133.581 406.284 129.394 406.928 125.479C407.18 123.956 407.444 122.491 407.734 121.094C409.515 112.893 408.431 120.274 408.569 119.718C408.572 119.703 408.575 119.689 408.578 119.675ZM663.005 66.2058C680.341 79.807 670.402 70.0001 659.607 63.3711C659.149 63.0925 662.571 65.8739 663.005 66.2058ZM499.82 323.096C489.735 297.486 500.473 311.462 471.242 269.94C469.519 267.762 467.446 265.398 465.043 262.897C468.407 266.31 470.278 268.52 471.393 269.825C473.967 272.914 473.016 271.512 471.663 269.621C470.385 267.818 468.515 265.552 469.928 267.022C470.442 267.565 471.178 268.424 471.951 269.402C475.623 274.012 480.567 281.359 476.713 275.053C485.074 284.381 505.752 331.044 504.016 333.67C504.012 333.65 504.007 333.629 504.003 333.609C504.175 334.919 502.435 331.968 499.82 323.096ZM501.906 42.975C509.589 42.7355 511.769 38.9676 526.421 37.9541C538.53 34.9783 513.272 37.9726 491.6 45.5409C479.467 49.4641 468.777 54.1395 465.585 54.936C502.944 39.6128 490.666 44.6458 475.165 50.2384C459.875 56.4061 443.002 65.7057 468.694 54.5085C447.55 63.8493 445.02 66.8357 445.95 66.2754C446.989 65.8979 452.286 63.287 449.339 65.2038C444.776 68.0155 432.707 76.0411 427.869 80.9218C426.109 82.6052 425.208 83.8147 425.544 83.7123C425.552 83.704 425.559 83.6957 425.567 83.6873C426.377 82.8087 427.214 81.9737 428.094 81.1691C437.888 72.2919 450.29 64.6942 463.126 58.3864C448.521 64.0329 477.92 49.8004 489.067 47.8987C490.037 47.4969 491.004 47.1029 491.984 46.712C495.279 45.3984 498.585 44.149 501.906 42.975ZM423.56 82.6804C423.764 82.4715 424.872 81.1998 426.643 79.5705C433.202 72.9767 450.702 62.2123 449.149 63.014C446.907 64.0981 433.519 72.3533 426.365 79.2649C420.967 84.511 418.646 88.5197 423.56 82.6804ZM428.204 218.758C426.85 217.066 425.578 215.111 424.64 213.073C418.967 201.536 413.847 190.592 411.792 185.787C414.634 193.779 419.875 204.205 424.349 213.21C425.533 215.633 427.072 217.602 428.204 218.758ZM706.338 276.024C703.062 291.942 714.343 243.07 710.644 257.137C710.553 257.894 706.618 275.326 706.338 276.024ZM537.034 35.9234C552.938 35.3873 545.345 33.9082 533.57 35.5561C532.894 35.6557 536.304 35.9589 537.034 35.9234ZM490.428 301.233C489.991 300.661 480.267 282.715 470.63 270.404C466.738 265.244 462.501 260.958 460.818 259.254C461.883 260.17 466.547 264.565 470.921 270.183C481.01 282.677 491.24 301.78 490.428 301.233ZM443.423 229.452C436.176 224.48 429.257 217.986 426.55 212.174C418.438 196.56 413.42 185.993 412.765 183.714C411.637 180.396 414.088 185.358 413.843 184.591C413.536 183.725 410.144 174.589 408.567 165.194C406.826 155.801 406.957 146.187 406.964 145.308C406.952 144.025 405.905 150.705 405.773 143.065C404.01 154.506 412.202 190.398 425.567 212.637C428.056 217.905 432.077 221.444 432.621 221.979C433.48 222.762 430.941 219.916 430.715 219.316C430.767 218.576 430.802 220.994 443.39 229.431C443.401 229.438 443.412 229.445 443.423 229.452ZM410.318 175.314C412.256 184.355 405.678 159.315 406.366 152.978C406.314 146.059 406.325 151.478 407.116 158.676C407.838 165.874 410.149 174.761 410.318 175.314ZM411.473 113.485C411.878 112.029 413.728 104.694 416.418 98.4644C419.023 92.133 422.644 87.1705 423.094 86.2976C415.111 93.5375 409.579 120.131 411.473 113.485ZM674.74 78.8993C680.409 83.1346 692.018 97.8657 692.622 98.743C689.156 92.8623 676.067 79.1191 674.74 78.8993ZM380.729 200.154C390.996 207.661 366.721 190.967 359.554 186.154C359.336 185.643 379.897 199.466 380.729 200.154ZM540.006 39.282C541.137 39.2423 548.182 38.5773 558.15 38.8284C585.44 38.0051 632.371 53.8528 639.683 58.6878C632.63 53.537 584.971 37.3327 558.167 38.2235C548.843 37.9862 542.34 38.5741 541.338 38.6644C540.219 38.7862 539.472 39.3075 540.006 39.282ZM409.898 137.379C409.795 144.885 409.394 149.662 409.396 150.606C409.077 159.848 413.974 178.297 412.489 174.368C406.61 158.793 410.298 122.325 409.898 137.379ZM677.355 84.724C686.937 94.5819 682.907 89.752 676.553 83.4022C670.182 77.0559 660.262 70.3274 663.053 72.6254C663.575 72.7837 675.515 82.5727 677.355 84.724ZM530.529 40.4633C527.903 40.9741 511.78 43.2949 492.935 49.6118C466.286 57.6569 438.199 75.3565 433.062 80.4889C441.603 72.5411 450.481 67.5184 465.491 60.1561C469.585 58.208 468.358 58.4267 468.797 58.2174C475.993 54.9936 470.75 57.7403 475.223 55.8268C476.175 55.4335 483.493 52.2569 492.79 49.1691C511.169 42.4967 536.398 39.1872 530.529 40.4633ZM409.983 141.656C409.969 143.933 409.595 157.694 412.918 170.645C415.936 183.579 422.24 196.028 422.663 197.109C426.217 204.699 418.661 191.721 414.115 176.765C409.183 161.746 409.682 143.622 409.983 141.656ZM538.387 40.3192C529.36 40.9495 487.613 51.159 516.044 43.6126C518.776 42.9076 530.421 41.1386 538.387 40.3192ZM674.585 83.3659C675.465 83.9358 686.346 95.1631 690.66 102.267C692.441 104.932 693.587 106.761 693.734 106.843C693.355 106.178 692.33 104.453 690.836 102.151C685.173 91.7554 665.231 74.7425 674.585 83.3659ZM662.293 74.7371C662.818 75.1931 657.816 70.5056 668.584 78.8673C669.277 79.7253 671.345 80.9046 682.594 93.002C684.837 95.4835 688.241 99.3949 688.036 99.0892C680.987 82.4634 631.759 55.6688 662.293 74.7371ZM410.476 142.61C410.902 139.931 411.285 146.435 411.196 152.25C411.201 154.753 410.186 150.133 410.476 142.61ZM712.427 165.78C712.36 165.317 712.298 164.907 712.241 164.546C711.721 161.343 711.7 161.874 711.97 164.579C713.47 173.242 713.389 204.547 712.761 206.532C714.057 204.925 713.478 167.496 712.427 165.78ZM353.868 186.705C353.881 186.713 353.893 186.722 353.906 186.73C340.574 177.867 349.098 182.949 348.479 182.523C320.123 163.537 327.15 169.377 322.597 166.604C316.557 163.049 315.034 161.687 310.896 158.956C308.298 157.252 304.659 154.986 298.263 151.53C307.231 156.422 310.61 158.386 311.118 158.586C311.197 158.619 311.199 158.607 311.136 158.557C310.373 157.936 300.695 152.247 300.337 151.775C299.499 150.567 304.409 153.307 311.578 157.821C323.401 165.212 341.173 177.53 349.552 182.774C351.444 183.93 337.992 174.599 342.842 177.549C358.791 187.012 404.457 221.419 353.868 186.705ZM411.59 156.704C412 159.872 413.994 173.264 418.225 184.122C422.251 194.946 427.019 204.135 423.569 197.748C423.003 196.638 416.814 184.277 414.048 173.193C411.063 162.071 410.938 152.065 411.59 156.704ZM740.344 713.704C731.64 701.906 750.709 729.954 753.716 733.628C755.622 735.914 744.316 719.153 740.344 713.704ZM736.445 901.25C734.292 905.848 732.194 910.525 730.623 914.091C727.399 921.293 726.453 924.542 731.613 914.606C731.828 914.184 732.055 913.732 732.295 913.249C733.232 911.477 737.461 899.748 736.445 901.25ZM954.335 462.993C970.386 465.738 969.591 464.523 957.74 462.889C953.552 462.36 953.824 462.915 954.335 462.993ZM918.621 680.064C917.029 680.141 898.101 679.899 898.753 680.118C905.857 680.677 929.138 680.24 918.621 680.064ZM949.175 462.565C956.904 463.296 947.847 461.551 937.696 460.892C935.224 460.728 932.735 460.628 930.477 460.639C932.406 460.746 934.993 460.968 937.666 461.238C943.057 461.773 948.504 462.503 949.175 462.565ZM570.038 43.0646C577.706 43.0467 599.296 47.0445 611.181 51.0166C612.459 51.4751 579.03 42.952 570.038 43.0646ZM762.158 839.912C758.166 853.797 767.827 824.422 766.194 826.972C766.143 827.344 762.391 839.361 762.158 839.912ZM992.337 339.033C985.179 346.828 1008.98 323.231 1002.07 329.375C1001.79 329.726 992.801 338.633 992.337 339.033ZM1021.66 229.796C1023.86 233.274 1029.74 242.43 1033.18 248.762C1036.65 255.14 1037.78 258.295 1036.01 253.633C1036.22 252.591 1022.57 230.202 1021.66 229.796ZM321.558 166.493C323.61 168.211 316.815 164.103 310.193 160.125C305.517 157.308 300.999 154.615 299.695 153.811C299 153.378 304.651 156.181 310.551 159.53C315.007 162.049 319.587 164.848 321.558 166.493ZM1057.6 488.127C1065.8 490.761 1086.78 498.645 1090.54 499.799C1080.71 495.963 1055.14 486.512 1057.6 488.127ZM771.494 778.732C771.513 779.568 771.529 780.45 771.537 781.378C771.921 792.453 769.31 809.276 770.824 804.814C772.73 783.604 771.074 805.474 771.634 781.373C771.602 780.539 771.557 779.663 771.494 778.732ZM898.661 463.162C904.831 462.073 909.137 460.842 908.494 460.853C902.115 461.042 892.393 464.043 898.661 463.162ZM1091.01 648.467C1090.53 648.319 1069.57 654.916 1072.44 654.256C1073.4 654.131 1091.42 648.714 1091.01 648.467ZM708.166 225.647C707.231 230.31 707.775 226.151 708.773 219.403C709.853 212.49 710.634 202.253 710.957 197.712C711.537 194.659 710.884 210.825 709.223 219.475C708.658 222.874 708.23 225.319 708.166 225.647ZM761.171 503.074C761.388 502.771 758.462 504.024 755.295 505.169C753.76 505.733 752.117 506.21 751.695 506.299C751.531 506.358 751.628 506.261 753.023 506.299C754.28 506.571 757.861 505.848 764.175 511.228C767.145 513.906 769.249 518.177 769.819 521.205C770.458 524.299 770.235 526.284 770.067 527.615C769.648 530.208 769.252 530.784 769.213 530.897C769.143 530.874 769.435 530.515 769.855 527.71C769.99 526.243 770.353 523.87 769.126 519.733C768.065 515.587 763.692 510.428 760.104 508.77C757.114 507.156 754.354 506.824 753.17 506.789C751.879 506.754 751.622 506.869 751.746 506.833C752.055 506.794 753.803 506.296 755.467 505.638C758.343 504.53 761.095 503.196 761.171 503.074ZM1020.17 305.283C1014.41 313.303 1025.26 301.338 1030.77 287.323C1036.52 273.477 1037.37 257.431 1035.58 268.427C1035.43 269.213 1033.72 278.969 1029.95 287.73C1026.37 296.574 1020.65 304.579 1020.17 305.283ZM990.135 195.577C992.771 197.691 991.082 198.06 978.267 189.46C976.588 188.323 984.962 192.833 983.588 191.879C983.207 191.543 974.341 186.072 965.163 180.978C958.538 177.218 952.08 174.252 951.448 173.984C949.916 173.344 951.447 174.695 949.889 174.066C948.251 173.203 929.2 165 918.45 162.16C898.355 156.596 895.783 157.171 894.136 156.708C891.052 156.079 886.656 155.084 881.287 154.071C878.481 153.533 875.352 153.074 871.972 152.807C855.778 151.4 835.678 154.179 815.192 161.125C796.358 167.263 781.514 179.071 768.981 194.497C758.918 206.504 751.106 218.472 745.433 228.181C752.298 216.053 760.05 204.707 768.656 194.229C781.65 178.07 795.506 167.07 813.766 160.685C812.051 161.52 812.854 161.314 815.02 160.607C824.205 157.014 855.391 149.97 828.369 156.744C834.053 155.288 856.497 149.088 881.413 153.326C911.734 158.023 945.101 168.892 965.363 180.617C979.467 188.322 987.87 193.868 990.103 195.554C990.113 195.562 990.124 195.569 990.135 195.577ZM705.836 949.182C708.148 946.249 703.243 951.849 698.157 954.94C693.14 958.19 687.93 958.285 684.957 958.06C684.248 957.995 683.73 957.961 683.436 957.966C683.824 958.037 684.326 958.124 684.931 958.224C687.723 958.739 692.325 958.759 696.621 956.449C700.994 954.31 705.561 949.505 705.836 949.182ZM762.195 754.739C760.714 751.965 759.165 749.797 752.318 739.104C750.758 736.708 748.629 733.567 745.973 729.643C745.96 729.625 745.947 729.607 745.934 729.589C741.867 723.593 746.925 730.13 746.238 728.986C746.114 728.77 732.932 709.167 744.335 725.014C760.148 747.112 746.136 728.902 752.822 738.774C752.976 739.013 753.14 739.266 753.314 739.535C753.773 740.24 757.656 745.924 760.508 751.154C763.433 756.385 765.32 761.232 765.179 760.603C765.222 760.471 762.469 754.195 761.93 753.108C760.164 749.014 761.456 750.775 761.194 750.203C760.857 749.511 758.199 744.517 753.876 738.086C746.664 727.592 733.648 710.311 731.318 704.975C730.557 704.394 744.23 723.596 754.283 737.819C763.706 751.464 767.724 764.367 767.869 765.475C768.188 766.869 766.989 766.569 767.241 768.001C767.321 768.4 768.962 774.617 769.38 781.502C769.85 787.768 769.462 794.4 769.282 795.981C769.177 796.962 769.079 797.688 769.001 798.24C770.061 794.243 766.481 818.116 765.859 817.378C766.009 816.879 768.867 800.444 768.726 799.919C768.765 799.665 768.803 799.446 768.834 799.242C768.466 800.7 769.648 791.108 768.949 781.526C768.38 769.188 763.15 757.461 764.886 763.067C759.511 749.929 766.721 764.659 762.195 754.739ZM766.737 657.294C764.322 656.922 761.907 656.592 758.86 656.358C784.152 660.275 800.944 667.869 818.79 670.446C832.887 672.497 848.441 673.845 863.839 674.858C873.177 675.438 862.472 674.1 874.709 675.003C884.518 675.71 895.37 676.778 890.023 676.702C888.718 676.711 868.706 675.309 858.747 674.61C829.397 672.507 836.882 673.465 835.139 673.394C833.972 673.285 826.269 672.383 818.684 671.19C814.845 670.582 810.529 669.63 807.152 668.853C797.208 666.548 789.095 664.19 780.087 661.803C775.483 660.599 770.863 659.338 764.504 658.119C761.221 657.56 757.878 656.832 751.789 656.894C748.515 657.194 744.555 656.634 736.407 661.116C732.528 663.3 727.552 668.422 725.531 674.019C724.485 676.725 724.007 679.181 723.805 681.534C723.636 683.565 723.702 685.443 723.893 687.157C725.151 695.443 726.974 697.817 728.408 701.042C729.915 704.018 731.401 706.529 732.924 709C727.77 700.794 724.798 696.592 723.157 687.24C722.905 685.349 722.81 683.424 722.96 681.275C723.157 678.808 723.59 676.316 724.792 673.235C726.938 667.029 733.777 660.314 739.841 658.099C752.047 653.776 758.195 655.838 766.737 657.294ZM882.753 423.805C883.548 422.799 900.87 410.677 906.987 406.044C906.254 407.085 888.99 419.306 882.753 423.805ZM72.0081 492.334C74.7507 489.48 60.6598 500.855 57.1937 506.198C55.4321 508.654 54.638 510.44 56.1813 508.193C56.3941 507.906 56.8628 507.225 57.4948 506.424C59.8258 503.098 68.6571 494.925 72.0081 492.334ZM145.543 582.247C151.771 582.702 126.704 579.781 126.944 580.077C126.789 580.334 144.613 582.273 145.543 582.247ZM1164.35 617.792C1164.67 617.653 1166.19 617.016 1168.2 616.158C1172.26 614.559 1177.6 611.21 1177.78 611.028C1181.1 608.937 1175.31 613.795 1168.38 616.586C1159.47 620.355 1151.92 623.23 1164.35 617.792ZM292.314 739.654C293.337 737.92 293.989 736.804 294.326 736.199C294.75 735.438 294.672 735.493 294.231 736.14C290.969 740.557 271.154 774.547 279.748 760.58C280.228 759.674 291.712 740.548 292.314 739.654ZM247.483 821.701C249.669 816.865 260.642 795.782 260.689 795.436C260.548 794.85 248.062 819.01 247.483 821.701ZM894.921 466.267C895.228 466.292 895.063 466.394 894.508 466.563C890.8 467.486 866.77 473.348 857.823 476.382C855.135 476.377 884.25 468.266 894.467 466.365C894.623 466.332 894.774 466.299 894.921 466.267ZM1079.87 499.964C1048.91 488.626 1026.98 482.145 1013.69 478.507C990.253 472.482 992.404 472.702 1013.83 478.016C1029.15 482.028 1054.83 489.826 1087.36 502.428C1087.34 502.907 1087.71 502.86 1079.87 499.964ZM919.306 463.948C922.087 463.608 929.356 463.867 937.372 464.62C940.926 464.938 944.455 465.302 947.5 465.64C946.722 465.691 942.518 465.296 937.35 464.875C930.488 464.282 922.78 463.864 919.306 463.948ZM116.981 465.003C115.103 466.068 111.279 468.015 106.776 470.521C95.6169 476.547 82.514 485.206 85.9518 482.652C86.5683 482.139 97.3704 474.982 106.534 470.085C112.947 466.566 117.927 464.429 116.981 465.003ZM1172.47 613.418C1171.35 613.591 1177.13 610.716 1181.85 606.229C1186.65 601.945 1191.57 594.523 1192.39 593.375C1195.53 588.808 1191.26 596.487 1186.07 602.515C1181.04 608.641 1173.6 612.792 1172.47 613.418ZM760.917 499.739C766.2 496.951 783.219 488.025 794.064 481.334C789.422 484.776 769.591 496.041 760.917 499.739ZM810.842 496.501C810.117 496.707 797.27 505.445 796.859 506.019C791.804 509.794 797.602 504.687 803.966 500.428C810.294 496.153 816.989 492.726 810.842 496.501ZM369.41 203.258C368.919 202.92 357.655 195.277 357.257 195.009C347.465 187.789 381.261 210.762 369.41 203.258Z" fill="#FA3A2B"/>
</svg>
