<svg width="14" height="14" viewBox="0 0 14 14" fill="none" xmlns="http://www.w3.org/2000/svg">
<g clip-path="url(#clip0_1_19)">
<path fill-rule="evenodd" clip-rule="evenodd" d="M5.54547 2.75892C5.50797 2.53642 5.47972 2.31645 5.46147 2.09645C5.43397 1.76645 5.45097 1.43392 5.44122 1.10392C5.43697 0.963923 5.42022 0.598928 5.42697 0.546428C5.48822 0.0889278 5.85747 0.0189193 5.96547 0.00641926C6.01772 -0.00108074 6.55422 -0.0610539 6.66997 0.533946C6.81197 1.26145 6.85747 1.99394 6.80722 2.71144C6.92447 3.32144 7.12497 3.92892 7.38972 4.47892C8.44322 6.66642 10.4507 6.87893 12.6257 6.85893C12.9602 6.85393 13.238 7.11642 13.2555 7.44892C13.273 7.78392 13.024 8.07392 12.691 8.10392C11.4752 8.22142 9.31821 9.19644 8.57246 10.2114C8.41646 10.4239 8.32572 10.9364 8.20572 11.4389C8.03822 12.1364 7.83897 12.8264 7.61572 13.1164C7.58222 13.1614 7.17497 13.6214 7.05347 13.6889C6.76147 13.8489 6.52772 13.7564 6.39497 13.6714C6.26222 13.5864 6.11197 13.4189 6.05197 13.1414C5.98922 12.8514 6.04222 12.2564 6.03247 12.1289C5.99697 11.6664 5.90448 10.7589 5.71573 9.97892C5.61398 9.55892 5.50547 9.17142 5.32597 8.97892C4.66147 8.26642 3.59897 8.37143 2.70422 8.48893C2.60147 8.50143 2.49872 8.51644 2.39622 8.52894C2.03197 8.63644 1.64521 8.71643 1.23646 8.76393C0.619214 8.83643 0.517721 8.26893 0.512221 8.23143C0.500721 8.14892 0.457967 7.72394 0.923217 7.55394C0.973967 7.53644 1.34847 7.45393 1.49272 7.42143C1.69372 7.37643 1.89697 7.34144 2.10097 7.30894C4.20822 6.65394 5.35272 4.81392 5.54547 2.75892ZM6.26872 5.03144C7.06422 6.67644 8.27147 7.47143 9.70247 7.83143H9.70222C8.80872 8.29893 7.99597 8.88395 7.56522 9.47145C7.40172 9.69395 7.25172 10.1414 7.11647 10.6439C7.04322 10.1764 6.94423 9.67892 6.81348 9.25392C6.66473 8.76892 6.46447 8.36644 6.24097 8.12644C5.80947 7.66394 5.26796 7.40644 4.68571 7.27894C5.38271 6.66144 5.91122 5.89144 6.26872 5.03144Z" fill="black"/>
</g>
<defs>
<clipPath id="clip0_1_19">
<rect width="14" height="14" fill="white"/>
</clipPath>
</defs>
</svg>
