<svg width="21" height="21" viewBox="0 0 21 21" fill="none" xmlns="http://www.w3.org/2000/svg">
<g clip-path="url(#clip0_1_7)">
<path fill-rule="evenodd" clip-rule="evenodd" d="M9.34693 7.8898C7.39758 6.28741 5.81804 4.37915 4.63108 2.15589C4.39369 1.71307 3.84132 1.54415 3.39393 1.78154C2.9511 2.01893 2.78216 2.57133 3.01955 3.01872C4.3252 5.45199 6.05088 7.54286 8.18741 9.30047C8.57545 9.62003 9.15521 9.56524 9.47477 9.1772C9.79434 8.78459 9.73498 8.20937 9.34693 7.8898Z" fill="black"/>
<path fill-rule="evenodd" clip-rule="evenodd" d="M8.30746 1.64917C8.40789 3.49352 8.49922 5.33786 8.61335 7.18221C8.64531 7.68439 9.079 8.06786 9.58117 8.0359C10.0833 8.00395 10.4668 7.57026 10.4349 7.06808C10.3207 5.2283 10.2294 3.38853 10.129 1.54418C10.1016 1.04337 9.6679 0.657611 9.16572 0.685915C8.66355 0.71422 8.2755 1.14563 8.30746 1.64917Z" fill="black"/>
<path fill-rule="evenodd" clip-rule="evenodd" d="M15.085 2.02355C13.9163 3.78572 12.5924 5.41092 11.2594 7.0544C10.9398 7.44701 10.9991 8.02225 11.3918 8.33725C11.7844 8.65681 12.3596 8.59745 12.6746 8.20484C14.0442 6.52028 15.4046 4.84483 16.6098 3.03244C16.8883 2.61244 16.7696 2.04637 16.3496 1.7679C15.9341 1.48942 15.3635 1.60355 15.085 2.02355Z" fill="black"/>
<path fill-rule="evenodd" clip-rule="evenodd" d="M19.6121 8.57461C16.4439 8.71613 13.0793 8.7207 9.91103 8.51983C9.40886 8.49244 8.97517 8.87136 8.94321 9.37809C8.91125 9.88027 9.29473 10.314 9.7969 10.3459C13.0291 10.5468 16.4621 10.5422 19.6943 10.4007C20.1965 10.3779 20.5891 9.94876 20.5662 9.44658C20.5434 8.94441 20.1143 8.55179 19.6121 8.57461Z" fill="black"/>
<path fill-rule="evenodd" clip-rule="evenodd" d="M8.18501 9.15434C10.1389 11.5465 12.1613 13.8931 13.9737 16.3948C14.2705 16.8011 14.8411 16.8924 15.252 16.5956C15.6583 16.2989 15.7496 15.7282 15.4529 15.3219C13.6176 12.7928 11.5724 10.4189 9.5957 7.99932C9.27614 7.61128 8.7009 7.55195 8.31285 7.87151C7.92024 8.19108 7.86545 8.76629 8.18501 9.15434Z" fill="black"/>
<path fill-rule="evenodd" clip-rule="evenodd" d="M8.77672 9.84846C9.28803 12.3411 9.42955 14.7241 9.46607 17.2487C9.47064 17.7509 9.88608 18.1526 10.3883 18.148C10.895 18.1389 11.2967 17.728 11.2876 17.2213C11.2511 14.578 11.1004 12.09 10.5663 9.47868C10.4613 8.98564 9.98196 8.66605 9.48435 8.77105C8.99131 8.87148 8.67172 9.35542 8.77672 9.84846Z" fill="black"/>
<path fill-rule="evenodd" clip-rule="evenodd" d="M8.85915 9.64768C7.38002 12.6059 6.61762 15.8929 5.03349 18.7873C4.79154 19.2255 4.95585 19.7825 5.39868 20.0244C5.8415 20.2664 6.39393 20.102 6.63589 19.6637C8.22915 16.7511 9.00065 13.4459 10.4935 10.4648C10.7172 10.0129 10.5346 9.46506 10.0872 9.2368C9.63521 9.0131 9.08741 9.19572 8.85915 9.64768Z" fill="black"/>
<path fill-rule="evenodd" clip-rule="evenodd" d="M9.67316 8.97634C6.7286 9.49678 3.7886 9.73417 0.825771 10.0857C0.323597 10.145 -0.0324902 10.597 0.0268576 11.0992C0.0862054 11.6014 0.538204 11.9574 1.04038 11.8981C4.03516 11.5466 7.01168 11.3 9.99276 10.775C10.4858 10.6837 10.8191 10.209 10.7323 9.71591C10.641 9.2183 10.1708 8.88504 9.67316 8.97634Z" fill="black"/>
<path fill-rule="evenodd" clip-rule="evenodd" d="M11.7221 7.58877C11.1149 7.56138 10.5397 7.52028 9.9462 7.43354C9.44403 7.3605 8.98293 7.70745 8.90989 8.20506C8.83685 8.70267 9.18378 9.16833 9.68138 9.24138C10.3388 9.33725 10.9734 9.3829 11.6399 9.41029C12.1421 9.43311 12.5712 9.04505 12.5894 8.53832C12.6123 8.03614 12.2243 7.6116 11.7221 7.58877Z" fill="black"/>
</g>
<defs>
<clipPath id="clip0_1_7">
<rect width="21" height="21" fill="white"/>
</clipPath>
</defs>
</svg>
