<svg width="7681" height="933" viewBox="0 0 7681 933" fill="none" xmlns="http://www.w3.org/2000/svg">
<path d="M766.642 509.89C772.513 506.163 796.405 491.64 806.728 485.221C795.503 493.195 745.475 523.328 766.642 509.89ZM1482.25 757.745C1479.98 748.16 1477.78 738.452 1475.58 728.632C1479.89 750.194 1485.64 779.777 1491.44 798.225C1493.01 803.114 1494.83 807.022 1495.31 807.711C1495.4 807.887 1495.21 807.905 1494.96 807.824C1494.84 807.788 1494.73 807.762 1494.73 807.886C1494.73 807.943 1494.76 808.041 1494.79 808.123C1494.81 808.203 1494.86 808.276 1494.76 808.152C1494.43 807.727 1493.17 806.468 1492.03 805.704C1490.89 804.895 1489.53 804.187 1488.15 803.788C1487.47 803.546 1484.65 803.285 1483.38 803.429C1482.04 803.535 1482.04 803.62 1482.96 803.312C1491.49 801.618 1562.97 765.324 1585.6 753.453C1617.03 737.036 1648.31 720.445 1680.05 703.573C1736.33 673.643 1793.04 643.357 1849.61 613.62C1759.01 662.412 1850.92 614.38 1876.21 600.667C1881.74 597.673 1880.09 596.668 1971.42 548.839C2029.49 518.483 1977 548.719 2073.23 496.765C1998.07 534.51 2071.29 496.027 2129.65 465.409C2139.71 460.104 2221.18 417.821 2257.17 399.142C2269.52 392.716 2287.89 382.266 2304.25 373.816C2315.45 368.028 2324.28 364 2340.95 355.419C2391.95 329.195 2442.57 303.444 2493.44 278.129C2520.61 264.611 2547.85 251.233 2575.34 237.935C2529.89 262.464 2612.07 221.102 2615.88 219.516C2634.98 210.933 2549.72 252.297 2583.56 236.341C2630.82 213.364 2678.06 190.927 2725.82 169.013C2686.59 186.653 2776.85 143.678 2794.3 137.045C2788.63 138.064 2894.22 92.7686 2974.33 63.8269C3011.09 50.21 3042.72 40.0817 3054.43 36.3677C3062.39 35.0787 3010.19 44.4493 3129.96 16.8207C3132.8 16.2484 3134.74 15.8902 3136.16 15.6516C3144.09 14.2774 3147.36 15.0613 3150.32 15.4525C3153.19 16.0662 3157.01 16.3382 3164.83 20.4351C3167.81 21.9672 3174.11 26.2961 3178.62 31.7716C3183.32 37.2798 3186.89 43.624 3189.7 50.0641C3195.21 62.8154 3198.39 76.7857 3200.27 90.7929C3200.97 95.896 3198.18 82.2049 3198.39 85.1285C3198.42 88.0398 3203.28 108.154 3207.97 175.663C3206.89 144.488 3212 211.425 3214.16 281.427C3215.94 333.466 3216.05 387.246 3216.07 405.905C3216.24 397.119 3216.39 388.334 3216.53 379.556C3216.36 423.021 3216.98 430.817 3217.04 440.594C3217.18 479.991 3216.76 534.009 3217.09 570.574C3217.53 613.331 3218.6 613.458 3218.98 663.177C3219.01 651.371 3219.09 639.604 3219.19 627.79C3219.43 649.199 3219.75 670.77 3220.27 692.025C3220.59 704.896 3220.93 717.538 3221.68 729.673C3217.09 652.397 3221.55 747.346 3223.64 751.044C3224.99 759.711 3222.34 747.58 3224.86 761.639C3225.01 762.337 3225.11 762.14 3225.75 764.348C3226.44 766.434 3227.48 771.55 3230.72 778.898C3234.24 786.276 3236.74 787.991 3239 789.777C3241.28 791.405 3243.36 792.328 3245.26 793.074C3249.04 794.412 3251.16 795.301 3259.37 795.945C3260.16 795.987 3259.2 795.816 3261.75 795.78C3264.22 795.618 3270.28 796.153 3287.6 793.803C3401.38 767.861 3286.26 796.874 3282.81 794.895C3280.03 795.275 3288.22 794.874 3285.29 795.708C3283.79 796.095 3279.61 797.01 3270.33 797.519C3261.69 797.951 3245.41 797.68 3236.92 790.632C3242.71 795.242 3249.85 796.595 3253.82 797.481C3257.86 798.285 3259.46 798.562 3261.06 798.663C3262.22 801.073 3318.4 792.337 3321.7 790.239C3349.76 782.563 3324.8 788.434 3330.27 786.871C3334.33 786.241 3388.05 770.158 3412 759.437C3415.26 758.041 3417.99 756.79 3419.9 755.795C3438.41 749.775 3431.02 753.15 3412.36 760.387C3395.96 766.685 3371.29 775.62 3345.82 783.269C3337.69 786.571 3399.42 766.843 3402.33 765.258C3406 763.921 3409.47 762.636 3412.74 761.412C3476.93 736.601 3437.72 750.069 3453.86 742.752C3462.42 738.808 3495.18 726.42 3464.9 737.372C3536.02 707.675 3493.23 726.272 3497.8 724.553C3504.96 721.749 3529.45 710.793 3532.62 709.446C3537.15 707.562 3521.7 714.805 3539.52 707.233C3542.49 705.969 3571.12 692.527 3533.71 708.465C3583.48 686.802 3579.25 687.686 3596.51 681.521C3629.78 663.514 3621.88 671.737 3635.5 665.678C3671.37 649.6 3660.13 652.423 3661.97 651.472C3674.71 645.019 3773.65 599.082 3797.82 586.985C3788.82 593.048 3719.74 624.29 3704.59 631.655C3653.82 656.627 3776.88 598.374 3740.6 617.594C3755.87 609.776 3771.23 601.867 3786.51 593.969C3815.57 581.345 3775.35 601.388 3851.69 563.996C3863.74 557.011 3797.67 590.285 3810.68 583.074C3818.37 578.852 3862.64 557.303 3863.42 556.623C3864.15 555.938 3824.24 575.667 3830.36 572.17C3843.74 564.707 3990.13 494.284 3879.24 549.036C3910.25 533.913 3927.11 527.935 3953.69 514.185C3970.86 505.264 3871.95 550.798 4018.71 479.151C4022.28 478.48 3960.27 508.263 3958.69 509.102C3956.48 510.306 3968.61 506.771 3970.6 505.916C3977.62 502.949 4126.62 427.988 4158.76 413.256C4145.7 418.302 4271.78 357.077 4285.38 350.038C4288.99 348.142 4274.97 354.18 4278.85 352.181C4293.56 344.612 4324.3 329.955 4352.77 316.52C4371.17 307.825 4388.43 299.737 4400.22 294.082C4434.76 277.558 4430 279.146 4431.98 278.195C4447.19 270.996 4435.28 277.162 4444.48 272.79C4458.3 266.011 4555.23 221.149 4560.14 219.073C4561.57 218.395 4545.43 224.856 4566.5 215.174C4570.36 213.516 4567.83 215.15 4631.25 187.13C4707.74 153.948 4577.56 209.046 4609.05 194.523C4658.66 174.406 4656.59 174.163 4670.17 168.562C4674.91 166.675 4709.83 153.258 4748.44 139.144C4720.83 149.385 4693.57 160.42 4666.73 171.778C4693.23 160.76 4745.36 140.339 4768.14 132.891C4776.84 129.955 4773.12 131.88 4783.15 128.685C4785.78 127.845 4789.24 126.701 4794.1 125.053C4798.26 123.657 4811.92 117.393 4782.68 127.328C4776.26 129.529 4767.73 132.534 4756.54 136.733C4752.56 137.506 4768.69 131.876 4782.62 127.152C4787.17 125.599 4791.33 124.172 4794.74 122.966C4796.88 122.273 4804.22 118.071 4823.49 113.213C4825.46 112.724 4817.83 115.758 4818.15 116.34C4818.32 116.628 4820.29 116.262 4826.73 114.606C4830.06 113.788 4834.22 112.598 4841.43 111.296C4845.16 110.734 4849.42 109.792 4857.53 110.332C4861.56 110.685 4867.21 111.606 4873.46 114.92C4879.74 118.176 4884.85 123.624 4887.57 127.646C4901.16 150.826 4899.87 165.399 4902.28 186.232C4902.64 190.537 4902.2 175.533 4902.57 179.746C4903.18 182.887 4903.77 216.066 4903.63 219.56C4903.72 223.278 4904.22 207.43 4904.34 211.842C4904.96 234.518 4902.18 263.56 4902.93 217.555C4902.66 233.012 4902 248.277 4901.2 263.472C4903.39 247.386 4900.84 287.324 4899.72 308.157C4892.33 441.499 4898.53 352.31 4897.73 375.278C4896.27 412.048 4895.33 383.885 4892.6 438.347C4892.34 443.355 4897.86 377.734 4888.7 506.114C4889.91 487.055 4891.11 468.339 4892.33 449.223C4890.04 460.178 4887.91 517.575 4887.64 522.14C4887.63 522.354 4887.62 522.568 4887.6 522.78C4884.16 572.91 4886.68 539.055 4880.49 614.444C4879.89 621.174 4877.98 635.854 4876.5 650.314C4870.5 710.078 4885.69 571.468 4885.75 567.57C4887.22 565.902 4870.67 715.141 4868.54 720.22C4864.96 741.841 4877.5 652.623 4874.3 669.536C4874.3 674.926 4851.17 838.379 4829.2 906.504C4829.13 906.742 4829.13 906.818 4829.22 906.263C4829.25 905.623 4829.63 904.694 4829.14 900.653C4828.8 898.639 4828.31 895.451 4825.58 890.771C4823.06 886.129 4816.59 880.422 4810.59 878.542C4798.26 875.065 4795.32 878.001 4793.27 878.246C4791.4 878.917 4790.99 879.227 4790.73 879.358C4790.51 879.49 4790.61 879.444 4790.77 879.341C4791.11 879.117 4791.78 878.636 4792.39 878.153C4792.91 877.754 4793.44 877.325 4794.03 876.831C4826.47 847.165 4846.2 832.85 4844.36 831.357C4856.56 823.857 4865.01 814.682 4869.83 810.67C4929.21 762.027 4929.3 762.57 4980.95 722.325C4981.23 722.105 4981.51 721.886 4981.8 721.669C4992.73 713.284 5002.51 706.714 5006.43 703.601C5008.75 701.76 5003.96 704.421 5015.29 695.574C5031.15 682.923 5128.87 611.767 5136.5 606.921C5143.96 601.965 5095.36 637.246 5104.48 631.431C5139.52 605.783 5173.15 581.172 5208.75 555.688C5223.49 545.151 5216.21 550.969 5222.6 546.404C5225.29 544.432 5276.16 507.697 5273.9 509.124C5268.39 512.085 5111.46 625.653 5152.33 595.144C5160.14 589.246 5189.01 569.757 5183.74 571.905C5302.14 486.912 5421.54 403.489 5543.61 323.313C5566.55 308.282 5589.62 293.399 5612.83 278.701C5590.45 293.254 5567.36 308.347 5543.94 323.814C5479.88 366.122 5413.07 411.247 5350.54 454.92C5338.81 463.079 5299.25 490.717 5304.45 487.908C5376.92 437.026 5467.5 374.27 5538.95 327.786C5541.23 326.303 5533.24 332.303 5541.78 326.789C5542.65 326.232 5543.61 325.606 5544.66 324.918C5563.22 312.678 5610.04 281.516 5618.59 276.469C5620.1 275.549 5590.69 295.293 5600.05 289.923C5624.03 276.163 5628.43 269.948 5648.62 257.361C5663.98 247.289 5770.76 184.806 5797.47 169.37C5825.42 152.176 5718.05 214.405 5725.79 209.401C5788.66 171.157 5854.48 135.348 5917.44 103.357C5926.19 98.9017 5935.03 94.3667 5944.51 89.9513C5945.93 89.3236 5933.49 94.2746 5951.22 86.1772C5981.45 72.1054 6010.57 71.908 6031.51 89.4684C6058.76 110.175 6073.27 167.32 6075.85 174.679C6076.15 175.738 6071.67 164.461 6071.05 162.771C6062.54 138.362 6058.52 128.277 6057.54 126.008C6053.29 117.075 6047.94 108.09 6040.27 99.1216C6028.61 85.0674 6008.14 73.0297 5981.99 77.6931C5965.81 81.1648 5980.9 78.2046 5966.77 82.2468C5961.01 83.2467 5926.68 98.1861 5917.79 104.038C5916.57 104.796 5915.72 105.41 5915.39 105.814C5915.34 105.874 5916.28 105.428 5918.06 104.553C5926.96 101.708 5941.01 87.5609 5986.73 78.2474C5998.79 76.4287 6018.45 80.2567 6030.43 90.713C6042.56 100.703 6048.79 111.713 6054.11 121.851C6064.38 142.434 6070.58 162.548 6076.86 183.25C6103.83 276.993 6123.88 375.559 6128.41 393.396C6121.93 363.095 6115.31 332.819 6108.36 302.438C6122.39 364.032 6139.64 437.573 6138.76 443.244C6152.45 506.456 6165.66 569.836 6179.44 632.578C6191.64 684.375 6203.62 751.239 6221.67 782.506C6222.15 783.123 6221.72 782.381 6219.98 781.112C6218.25 779.821 6215.6 778.789 6214.06 778.53C6212.54 778.244 6211.95 778.334 6211.95 778.325C6211.96 778.328 6212.43 778.286 6213.16 778.141C6216.13 777.583 6221.31 775.89 6226.34 773.95C6236.49 770.05 6247.52 765.023 6258.27 759.958C6279.87 749.729 6301.5 738.737 6323.31 727.511C6366.94 705.001 6409.57 682.305 6453.25 658.958C6465.02 652.664 6477.69 645.874 6489.6 639.475C6526.3 619.906 6506.92 631.906 6566.8 599.094C6551.4 606.946 6535.36 615.123 6519.59 623.144C6550.66 606.804 6687.45 533.234 6709.36 520.95C6712.17 519.376 6715.42 516.233 6749.54 497.529C6779.72 480.976 6784.97 479.147 6801.24 470.474C6815.1 463.077 6829.91 454.725 6834.04 452.527C6837.16 450.87 6838.64 450.695 6846.18 446.688C6869.75 434.16 6849.96 443.185 6874.12 432.037C6868.46 435.204 6862.84 438.356 6857.24 441.491C6885.68 426.259 6924.69 405.87 6883.25 428.967C6876.07 432.972 6882.01 429.115 6876.63 432.053C6667.27 546.405 6835.01 456.121 6907.97 415.285C6927.28 405.652 7032.59 347.488 7036.2 345.684C7041.21 343.198 7023.35 353.701 7047.43 341.147C7052.33 338.613 7193.39 260.837 7143.05 289.615C7132.79 295.488 7064.74 332.497 7048.62 341.355C7087.79 321.84 7176.66 270.397 7186.75 264.933C7227.66 242.815 7109.1 309.155 7201.09 258.968C7271.86 220.35 7204.98 255.723 7231.91 240.413C7247.13 231.763 7327.68 189.014 7324.73 188.796C7352.15 173.562 7336.47 183.134 7339.89 181.327C7343.24 179.55 7397.02 149.504 7414.67 140.209C7416.81 139.08 7410.52 143.485 7412.75 142.339C7417.11 140.086 7469.07 111.389 7471.15 110.165C7472.46 109.392 7459.68 115.568 7464.7 112.609C7470.6 109.141 7520.71 81.8393 7523.42 80.1155C7527.13 77.7188 7465.44 111.804 7475.32 105.448C7503.91 90.002 7550.1 64.0314 7568.63 53.109C7564.1 55.8138 7536.45 71.0137 7526.85 76.205C7530.75 72.698 7590.17 40.1131 7570.33 52.0838C7582.96 44.5698 7574.04 49.158 7581.06 44.7544C7582.9 43.6047 7601.22 33.5259 7604.66 31.4021C7605.09 31.1151 7585.96 41.098 7589.63 38.8062C7596.29 34.6533 7651.89 4.25333 7656.51 1.85046C7669.47 -4.88894 7624.33 20.3332 7620.81 22.8411C7620.3 23.2082 7659.32 2.92955 7659.95 2.68138C7662.65 2.2719 7619.44 25.2114 7624.76 23.2589C7635.44 17.6008 7646.13 11.9376 7656.83 6.27021C7616.35 29.4581 7540.42 70.6263 7521.41 82.1662C7581.92 48.635 7645.39 13.8413 7646.31 15.8355C7646.71 16.671 7620.82 31.4972 7621.95 31.1461C7626.2 29.7731 7662.08 9.03838 7663.45 8.33979C7664.58 7.77813 7665.11 7.54501 7665.13 7.58745C7665.13 7.58747 7665.13 7.58749 7665.13 7.58751C7665.34 8.03206 7613.78 36.7327 7611.27 38.3654C7607.11 41.1057 7630.95 29.8965 7631.08 30.2382C7630.33 30.7334 7593.61 51.3242 7606.37 45.0482C7619.29 38.6859 7651.53 21.0105 7652.71 20.4417C7659.05 17.398 7602.78 48.6754 7601.2 49.803C7600.36 50.3935 7631.04 34.3583 7632 34.06C7632.86 33.8182 7610.02 46.8572 7601.25 52.4009C7594.71 56.5328 7614.6 46.0335 7611.17 48.0006C7608.71 49.4075 7555.38 78.6653 7552.79 80.1803C7548.94 82.4314 7561.71 76.0745 7559.96 77.1969C7557.47 78.7937 7540.16 88.058 7542.5 87.0127C7544.25 86.2355 7611.98 51.3043 7611.8 51.9988C7611.44 53.2114 7539.81 90.1789 7607.25 57.1856C7607.72 56.9546 7623.63 47.9394 7624.09 47.7123C7634.28 42.8572 7583.41 71.9099 7646.11 37.3064C7529.87 102.379 7632.21 46.4614 7615.66 57.2577C7609.26 61.4309 7564.11 86.4751 7563.93 86.6729C7568.68 84.904 7582.87 76.4692 7587.93 74.103C7590.75 72.7853 7550.56 95.7211 7559.93 91.1521C7564.78 88.7909 7607.73 65.114 7609.53 64.1854C7626.78 55.2625 7606.15 67.1681 7610.06 65.4127C7612.64 64.2511 7638.63 50.0141 7639.31 49.6869C7640.46 49.1517 7605.63 69.3117 7598.46 73.6124C7593 76.8902 7614.12 65.7444 7610.29 67.9741C7587.19 81.3878 7536.41 107.37 7585.66 82.9797C7588.67 81.4923 7606.81 71.4725 7607.36 71.2017C7618.9 65.6157 7585.49 84.0129 7579.73 87.7901C7569.88 94.2459 7617.79 67.3722 7578.05 89.9172C7608.37 73.9711 7625.12 64.7502 7660.15 45.3337C7563.08 99.1367 7529.89 120.082 7637.9 60.7451C7603.49 79.5835 7607.97 78.6676 7597.73 84.3101C7591.38 87.812 7540.88 113.989 7565.18 104.096C7568.21 102.859 7598.29 85.8091 7589.17 91.693C7516.41 131.393 7587.84 92.9817 7587.99 93.0183C7587.88 95.1036 7409.68 191.218 7379.27 208.121C7343.97 227.75 7313.24 246.195 7305.5 250.442C7280.2 264.317 7300.85 252.182 7295.07 255.055C7289.31 257.92 7217.88 298.628 7214.23 300.539C7200.15 307.911 7213.89 299.425 7212.42 300.181C7194.98 309.154 7098.52 362.748 7071.39 377.368C7072.37 377.452 7126.94 347.626 7093.3 367.042C7054.44 389.484 7050.79 388.734 7049.76 389.178C6868.76 488.208 6687.55 587.384 6505.65 685.344C6508.75 685.202 6626.97 620.223 6629.69 618.891C6641.21 613.445 6543.13 666.897 6476.54 702.422C6449.31 716.967 6427.42 728.495 6420.18 732.188C6439.4 722.297 6457.56 712.913 6476.81 702.913C6476.88 702.876 6476.95 702.839 6477.02 702.802C6476.95 702.843 6476.88 702.884 6476.81 702.925C6444.99 721.627 6373.89 757.474 6326.98 782.035C6312 789.89 6341.42 775.552 6340.72 775.919C6323.89 785.265 6296.38 798.478 6316.42 787.587C6274.43 809.136 6281.02 805.598 6246.02 820.283C6243.74 820.913 6261.38 815.772 6230.04 826.657C6227.74 827.262 6223.77 828.6 6216.39 829.346C6212.75 829.592 6207.43 830.066 6199.7 827.635C6191.76 825.367 6184.29 818.072 6182.13 815.137C6158.67 782.133 6155.44 748.422 6151.86 741.235C6150.49 737.452 6158.23 773.746 6162.16 777.97C6167.45 794.409 6174.07 807.853 6181.08 816.006C6183.85 819.866 6191.88 826.518 6197.5 828.262C6203.12 830.319 6206.14 830.389 6207.96 830.563C6211.4 830.712 6210.35 830.456 6209.44 830.278C6209 830.181 6208.37 830.057 6208.31 829.985C6208.22 829.907 6208.78 829.909 6210.03 829.919C6212.7 829.976 6218.96 829.807 6226.83 827.831C6230.82 825.745 6227.49 833.192 6295.76 799.657C6291.39 802.576 6278.17 809.443 6261.49 816.86C6253.14 820.52 6243.97 824.425 6233.33 827.688C6227.63 829.283 6222.27 831.089 6212.4 831.322C6207.74 831.355 6200.6 830.603 6193.68 826.958C6186.7 823.318 6182.65 818.347 6180.85 816.191C6169.14 801.124 6166.74 790.675 6164.7 786.443C6162.06 779.638 6162.17 780.239 6164 785.588C6166.21 790.937 6168.74 801.623 6180.39 816.569C6182.22 818.774 6186.49 823.965 6193.71 827.637C6200.84 831.307 6208.16 831.97 6212.79 831.895C6222.65 831.581 6228.07 829.743 6233.81 828.1C6244.5 824.761 6253.75 820.772 6262.21 817.033C6279.12 809.453 6292.73 802.428 6298.81 798.962C6289.49 805.237 6307.08 795.281 6332.32 782.44C6359.97 768.327 6347.92 775.025 6362.98 767.219C6403.37 746.116 6386.09 753.925 6419.83 737.206C6393.55 748.413 6442.65 723.685 6478.28 705.666C6487.89 700.829 6496.89 696.298 6502.74 693.355C6494.54 697.792 6486.45 702.168 6478.66 706.375C6444.42 724.863 6410.44 743.117 6376.07 761.259C6378.59 760.117 6381.24 758.911 6383.62 757.846C6372.35 763.734 6361.01 769.622 6350.02 775.276C6351.7 774.235 6353.38 773.194 6355.09 772.133C6297.63 803.004 6282.01 808.563 6277.09 810.945C6266.73 815.741 6256.02 820.609 6243.94 825.162C6237.73 827.415 6231.64 829.717 6222.3 831.485C6217.67 832.176 6212.06 833.353 6202.48 831.388C6192.47 829.754 6182.09 820.198 6179.93 816.95C6144.35 756.516 6144.43 713.166 6131.35 665.922C6129.99 659.852 6129.63 660.045 6126.04 644.39C6123.78 634.512 6120.15 617.815 6114.26 588.997C6109.44 565.363 6114.99 587.498 6109.16 560.841C6099.95 527.975 6101.74 528.241 6099.62 518.344C6093.54 489.968 6089.27 472.701 6088.7 470.104C6081.06 435.07 6069.92 383.805 6061.03 345.567C6060.86 344.85 6064.8 364.938 6059.28 340.026C6057.34 332.04 6044.34 261.141 6025.45 198.668C6024.14 194.416 6022.96 190.715 6021.59 186.606C6022.87 190.773 6023.97 194.495 6025.2 198.743C6028.96 211.787 6032.46 225.023 6035.85 238.372C6034.4 232.656 6030.24 216.852 6024.8 198.863C6018.01 176.026 6007.71 147.673 5999.78 137.837C5995.88 132.87 5995.07 133.465 5995.06 133.452C5995 133.495 5994.98 133.557 5994.96 133.621C5994.97 133.694 5994.89 133.721 5995.02 133.868C5994.97 132.841 6004.35 143.958 6010.07 158.683C6016.11 172.94 6020.42 187.223 6020.53 190.326C6017.33 180.404 6010.23 155.045 5999.11 138.531C5997.84 136.768 5996.59 135.391 5995.8 134.712C5994.97 133.992 5994.79 133.992 5994.84 134.001C5994.87 134.029 5994.76 133.899 5993.5 133.941C5992.28 133.982 5990.07 134.324 5987.36 135.087C5976.13 138.223 5959.7 146.706 5943.8 154.838C5869.14 192.769 5795.91 235.445 5785.87 241.087C5783.26 242.531 5798.79 232.879 5795.21 234.876C5792.38 236.296 5738.03 268.525 5730.81 272.795C5726.48 275.247 5750.23 260.563 5748.18 261.574C5746.31 262.314 5678.79 303.29 5675.44 306.413C5691.7 295.814 5738.42 267.67 5714.25 283.094C5711.21 285.022 5694.69 294.647 5690.97 297.071C5656.09 319.544 5761.47 254.465 5778.2 245.272C5723.2 278.15 5643.54 326.92 5575.56 371.904C5561.38 381.256 5547.48 390.548 5534.54 399.322C5503.85 419.119 5579.09 368.567 5544.44 391.065C5472.67 437.944 5525.95 404.405 5523.73 405.967C5506.33 418.246 5444.65 456.509 5445.98 458.581C5420.15 475.927 5428.25 469.926 5392.36 495.229C5397.2 492.061 5402.05 488.9 5406.88 485.749C5367.54 514.563 5281.33 571.352 5287.48 566.717C5304 554.043 5348.59 523.98 5352.34 521.344C5357.91 517.442 5371.79 504.481 5434.22 464.044C5458.27 445.326 5336.77 530.317 5391.53 490.891C5354 516.734 5200.63 624.753 5179.41 641.499C5176.87 643.479 5189.92 635.931 5152.06 662.563C5134.04 675.249 5176.88 643.907 5168.53 649.557C5157.77 656.881 5090.85 705.103 5014.04 763.786C4949.36 813.213 4880.36 868.869 4829.21 917.883C4827.08 919.702 4824.86 921.517 4822.16 923.433C4819.2 925.358 4816.91 927.459 4809.47 929.907C4807.41 930.479 4805.06 931.111 4800.99 931.105C4797.15 931.108 4790.93 929.96 4785.63 925.891C4780.32 921.872 4777.8 916.698 4776.69 913.365C4775.57 909.926 4775.36 907.518 4775.24 905.534C4775.07 898.107 4776.21 895.157 4777.03 891.791C4785.69 861.474 4790.96 836.917 4793.97 823.095C4795.05 818.037 4795.16 819.955 4796.17 815.105C4799.59 799.888 4808.98 744.413 4813.09 716.825C4803.48 773.542 4820.38 663.145 4822.86 634.663C4827.63 591.77 4828.03 594.401 4829.93 575.827C4831.59 558.689 4833.08 539.694 4834.36 519.292C4838.51 453.382 4842.74 377.999 4846.69 335.087C4844.45 338.151 4853.93 237.546 4851.73 193.819C4851.63 177.894 4846.96 154.929 4845.86 156.449C4845.88 156.818 4848.1 159.143 4849.68 159.91C4851.27 160.783 4851.88 160.93 4851.98 161.078C4852.06 161.177 4851.81 161.311 4850.31 160.836C4849.56 160.584 4848.4 160.07 4847.23 159.229C4846.07 158.413 4845.13 157.341 4844.93 157.096C4844.4 156.415 4845.07 157.476 4845.76 160.267C4845.19 158.05 4844.24 156.354 4844.75 157.221C4844.91 157.464 4845.86 158.761 4847.66 159.979C4849.45 161.218 4851.51 161.837 4852.38 161.974C4854.22 162.195 4852.68 161.969 4850.83 162.33C4846.82 162.966 4841.09 164.528 4835.42 166.238C4823.98 169.712 4811.96 173.859 4800.01 177.973C4768.49 188.77 4738.05 200.424 4709.47 212.068C4700.6 215.689 4712.44 210.233 4697.55 216.374C4696.13 216.976 4694.6 218.185 4681.63 223.664C4575.82 269.566 4626.97 246.573 4607.02 254.815C4595.8 259.596 4587.59 263.194 4581.66 265.838C4642.99 237.703 4714.65 207.842 4733.85 200.655C4716.77 205 4596.33 258.321 4561.44 274.54C4560.23 275.081 4564.15 272.53 4562.92 273.086C4562.9 273.097 4562.87 273.109 4562.84 273.121C4549.66 278.893 4466.1 318.349 4483.74 311.015C4488.21 309.165 4526.95 290.798 4572.58 269.975C4560.15 275.801 4569.78 272.271 4567.59 273.301C4541.39 285.551 4476.24 315.248 4453.33 326.139C4448.01 328.651 4448.59 328.925 4447.75 329.325C4427.23 339.013 4434.54 333.933 4414.23 345.329C4375.77 361.833 4484.67 311.26 4476.61 313.976C4473.74 314.904 4427.21 336.762 4375.02 362.277C4307.39 395.3 4231.15 433.681 4231.81 434.209C4230.92 434.482 4227.58 435.929 4220.73 439.081C4205.47 446.104 4138.83 479.276 4127.51 485.167C4125.59 486.174 4126.96 487 4124.56 488.205C4118.5 491.249 4036.53 530.612 4006.34 546.329C4022.89 538.396 4039.43 530.451 4055.99 522.487C3956.57 571.522 3972.06 564.254 4005.41 548.33C4007.07 547.519 4008.71 546.771 4010.29 545.998C4036.13 533.617 4069.16 517.619 4069.7 517.47C4071.79 517.007 3903.05 600.131 3934.96 583.033C3939.44 580.687 4017.82 542.832 3978.73 561.025C3971.91 564.216 3921.78 589.027 3919.11 590.202C3901.18 598.279 4010.44 543.797 3996.61 549.502C3970.41 563.376 3936.07 579.686 3905.61 594.772C3891.74 601.637 3888.64 603.893 3886.93 604.738C3861.31 617.364 3875.42 609.727 3866.86 613.898C3862.31 616.138 3812.29 641.906 3820.98 635.401C3654.21 716.39 3775.59 659.271 3877.75 609.568C3845.84 625.931 3782.13 656.091 3753.67 669.701C3743.4 674.623 3749.76 672.399 3732.53 680.666C3697.2 698.199 3525.15 775.455 3478.73 792.738C3506.63 781.094 3498.01 783.83 3476.6 792.569C3454.54 801.447 3473.45 794.984 3469.18 796.803C3467.46 797.527 3451.35 803.964 3431.35 811.353C3398.22 823.918 3353.42 837.532 3341.68 840.342C3422.59 815.689 3404.59 821.298 3335.2 840.755C3345.28 838.025 3355.43 834.949 3365.15 831.788C3345.04 837.914 3313.52 846.825 3280.87 849.346C3248.78 853.498 3210.35 840.733 3198.84 826.629C3196.94 824.768 3199.19 827.382 3201.96 829.976C3204.69 832.57 3207.96 835.017 3206.71 834.159C3192.84 826.484 3175.35 797.057 3172.13 774.22C3167.58 751.131 3167.38 732.251 3167.01 730.556C3166.44 727.509 3168.66 759.378 3167.33 747.527C3166.9 745.258 3165.78 719.459 3165.25 693.467C3165.19 691.058 3165.11 688.615 3165.04 686.154C3164.71 675.471 3164.26 681.933 3164.16 679.256C3163.43 656.946 3164.62 670.102 3163.87 629.397C3163.38 599.574 3162.21 577.452 3162.3 536.36C3162.04 671.338 3161.61 557.819 3160.99 501.48C3160.87 492.455 3159.85 500.172 3160.04 446.271C3162.67 561.013 3161.01 413.5 3160.53 383.461C3160.52 381.814 3161.24 381.235 3161.04 366.495C3161.02 365.273 3160.57 367 3160.31 353.351C3159.49 311.276 3158.7 291.662 3158.46 283.482C3158.15 274.005 3158.47 279.279 3158.79 283.47C3159.03 286.664 3159.26 289.202 3159.19 283.455C3159.19 283.017 3159.18 282.533 3159.17 282.001C3159.06 271.42 3155.68 208.348 3154.5 191.567C3154.26 187.748 3154.91 189.367 3153.89 174.427C3152.06 147.982 3149.24 124.622 3146.72 107.987C3146.16 106.555 3148.2 104.289 3140.76 76.5347C3138.37 69.0638 3135.54 64.6939 3138.59 71.9996C3150.12 104.96 3155.11 192.896 3156.68 242.085C3158.2 287.638 3151.24 143.867 3149.23 137.31C3148.98 134.562 3151.96 162.055 3149.38 134.113C3148.26 123.072 3146.27 107.648 3142.95 92.2359C3141.31 84.6291 3139.14 76.6399 3136.83 71.347C3135.76 68.7218 3134.27 66.8112 3134.96 67.7265C3135.34 68.1418 3136.7 69.5249 3139.48 70.5806C3142.24 71.6852 3145.76 71.7132 3147.53 71.2816C3145.15 71.7629 3142.82 72.2272 3140.52 72.6795C3137.67 73.1512 3109.74 78.0913 3111.07 77.8291C3111.89 77.4657 3138.73 71.4631 3147.19 69.5799C3146.36 69.7211 3145.54 69.7333 3145.22 69.7089C3144.88 69.6809 3145.02 69.6579 3145.68 69.583C3145.77 69.5705 3146.41 69.5268 3147.14 69.3718C3140.8 70.6063 3120.04 74.9602 3117.03 75.4941C3112.66 76.1491 3100.43 76.0276 3094.69 77.4997C3080.06 81.2772 3089.73 79.3362 3080.29 81.9619C3062.82 86.44 3008.39 104.862 2992.39 111.682C2989.89 112.709 2988.3 113.428 2988.03 113.682C2989.55 113.115 2991.04 112.559 2992.52 112.012C3002.55 108.282 3012.58 104.634 3022.65 101.092C3008.78 106.084 2999.26 109.712 2992.61 112.266C2968.82 121.487 2984.1 116.014 2977.03 118.872C2967.41 122.812 2969.66 120.899 2948.21 129.245C2943.32 130.772 2853.98 168.017 2855.82 167.948C2904.95 146.413 2887.05 155.343 2889.32 154.366C2898.18 150.747 2908.76 145.688 2920.56 140.911C3002.85 108.203 2920.24 142.13 2939.77 134.645C2946.45 132.063 2959.63 126.307 2962.43 125.252C2971.71 121.742 2972.2 122.322 2978.24 119.94C2992.71 114.27 2975.39 119.811 2976.57 119.307C2980 117.811 2986.28 115.337 2992.84 112.879C3010.74 106.151 3031.6 99.3651 3008.92 108.447C3027.95 101.919 3029.65 99.9322 3044.84 95.3068C3074.92 86.4387 3030.27 100.861 3018.27 105.623C3008.92 109.154 3001.02 112.187 2993.65 115.017C2967.35 125.203 2948.89 131.859 2901.4 151.543C2879.71 160.552 2854 172.26 2844.05 176.616C2837.67 179.265 2777.03 203.677 2776.69 207.789C2753.44 217.864 2716.15 232.496 2692.46 243.755C2671.33 253.797 2678.52 251.801 2676.57 252.767C2673.47 254.299 2647.8 266.389 2639.22 270.712C2629.03 275.832 2634.41 273.761 2618.37 281.712C2578.45 301.572 2579.03 299.981 2574.85 301.914C2526.72 324.511 2548.28 315.95 2537.86 321.246C2535.99 322.206 2529.37 325.477 2519.47 330.384C2478.86 350.377 2384.52 397.976 2361.49 410.287C2373.16 404.013 2384.75 397.791 2396.42 391.544C2375.05 401.57 2353.3 414.198 2352.28 413.127C2349.04 417.349 2304.94 438.359 2291.98 445.149C2286.86 447.829 2287.43 447.971 2281.01 451.316C2255.97 464.35 2199.33 493.517 2185.84 500.804C2127.48 532.24 2278.37 455.054 2290.31 449.101C2266.52 461.28 2132.86 531.684 2194.92 500.505C2204.51 495.684 2220.91 485.978 2226.23 483.162C2262.33 464.076 2234.27 479.714 2237.15 478.313C2242.04 475.923 2265.46 462.752 2271.8 459.584C2273.93 458.526 2260.77 466.27 2295.35 448.38C2278.7 457.839 2181.36 507.803 2168.76 514.665C2164.26 517.11 2193.43 503.712 2109.73 545.748C2110.77 545.383 2111.81 545.019 2112.85 544.654C2066.67 568.987 2020.69 593.316 1974.54 617.801C1979.47 614.776 2004.9 600.491 1972.38 617.866C1953.65 627.876 1967.92 621.256 1966.22 622.183C1954.97 628.247 1816.19 701.848 1709.13 758.531C1656.83 786.196 1612.15 809.569 1593.02 819.47C1573.24 829.903 1517.9 858.417 1510.62 860.468C1508.29 861.39 1505.35 862.563 1501.01 863.882C1498.88 864.51 1496.15 865.293 1492.25 865.898C1488.61 866.552 1481.65 866.722 1476.72 865.681C1463.53 864.031 1448.41 852.049 1443.05 842.771C1436.9 833.332 1434.24 825.557 1431.7 818.144C1419.2 775.43 1412.84 733.283 1409.77 720.205C1407.3 708.057 1408.93 719.772 1406.79 708.819C1404.81 698.72 1407.54 709.06 1406.97 706.054C1402.76 680.682 1362.41 492.663 1351.49 448.283C1358.26 475.342 1389.31 611.274 1388.86 608.446C1388.84 607.963 1382.29 574.491 1380.58 567.832C1378.74 556.431 1368.5 518.042 1363.99 496.963C1363.45 494.547 1366.67 503.768 1358.09 466.225C1356.82 460.729 1354.61 451.873 1351.82 440.571C1348 425.149 1343.08 405.646 1338.41 386.028C1331.32 361.152 1310.05 276.201 1281.18 208.484C1279.52 204.796 1277.95 201.61 1276.83 199.787C1276.28 198.877 1275.87 198.349 1275.82 198.297C1275.77 198.229 1276.15 198.676 1276.97 199.218C1277.78 199.767 1278.98 200.283 1279.78 200.478C1280.61 200.693 1280.99 200.667 1280.86 200.666C1280.55 200.638 1278.63 200.833 1276.12 201.512C1265.77 204.312 1252.19 211.06 1241.41 216.691C1219.44 228.321 1203.69 237.949 1200.1 240.273C1199.68 240.495 1231.9 222.502 1210.48 235.238C1182.14 252.417 1206.66 235.724 1173.23 255.408C1168.66 257.939 1091.26 305.442 1074.82 315.763C1073.22 316.762 1072.21 317.396 1071.94 317.574C1062.16 324.047 1066.25 321.886 1075.32 316.586C1092.26 306.664 1125.65 286.438 1125.01 286.94C1123.31 288.203 1096.77 304.642 1075.92 317.551C1063.61 325.168 1052.67 331.915 1051.81 332.407C1049.1 333.987 1103.81 298.627 1037.56 340.039C1045.45 335.386 1052.67 331.144 1060.68 326.419C1029.66 345.9 1026.11 346.921 1018.53 351.519C994.931 365.83 970.153 382.877 931.542 404.502C921.416 410.166 937.466 399.619 936.269 400.269C924.074 407.009 909.576 418.05 890.98 427.964C889.573 428.717 931.067 402.164 857.813 447.383C862.948 444.362 868.058 441.358 873.141 438.37C862.908 445.017 788.909 490.921 778.963 496.991C749.694 514.847 774.669 498.336 745.439 516.53C764.843 506.009 675.987 561.131 680.518 557.063C668.808 565.896 592.691 611.748 557.136 633.719C534.809 647.513 489.22 676.436 482.184 680.712C473.472 686.007 475.542 683.636 459.811 693.136C455.334 695.839 409.185 725.22 367.636 749.848C359.501 754.673 342.227 763.534 356.632 754.142C381.514 737.926 429.994 709.379 428.835 709.006C427.606 708.598 363.549 748.984 346.317 759.518C265.92 808.667 311.679 779.052 309.369 780.106C303.902 782.582 259.863 809.934 258.207 810.882C250.43 815.344 281.245 795.496 281.277 794.92C281.746 793.901 238.867 819.205 248.344 813.078C261.685 804.447 301.27 780.98 303.421 779.595C335.046 759.278 290.598 785.166 278.12 792.086C274.367 794.161 288.676 784.867 285.633 786.68C238.885 814.56 276.954 794.421 246.099 813.339C218.669 830.162 253.33 807.539 252.398 808.059C251.711 808.448 241.083 815.011 231.462 820.897C223.015 826.069 215.216 830.806 212.899 832.069C212.118 832.493 219.618 827.576 231.001 820.154C254.893 804.553 293.058 779.668 290.527 780.582C270.328 793.27 249.987 806.051 230.035 818.599C222.855 823.111 216.144 827.334 209.22 831.69C207.94 831.803 218.444 825.239 229.824 818.258C238.761 812.781 248.232 807.062 250.091 805.849C258.127 800.601 234.914 814.377 235.798 813.433C236.06 813.017 262.793 795.523 238.197 810.421C235.759 811.897 232.602 813.906 228.676 816.41C218.579 822.838 204.056 832.11 182.367 844.96C205.392 830.392 219.535 821.38 228.264 815.747C245.188 804.807 237.617 809.157 227.786 814.976C220.124 819.523 211.575 824.659 210.525 825.164C207.077 826.862 256.967 794.826 196.133 832.802C192.398 832.685 197.174 831.382 214.165 820.399C229.901 810.231 205.947 824.558 226.004 812.107C232.346 808.17 244.055 800.963 263.493 789.054C260.873 790.084 242.619 801.149 225.66 811.552C209.569 821.426 194.663 830.686 193.103 831.612C190.223 833.319 203.747 824.353 198.738 827.275C139.75 861.738 179.953 837.753 162.462 847.22C161.09 847.94 105.615 881.965 147.444 855.712C180.665 834.873 204.947 820.003 223.687 808.377C247.779 793.433 261.297 784.721 267.645 778.816C252.846 787.611 237.223 797.169 222.435 806.36C178.763 833.497 138.77 859.629 125.924 867.667C99.7463 884.041 126.407 866.713 123.188 868.523C121.899 869.259 99.6388 883.204 99.0998 883.487C83.6382 890.751 176.118 834.926 222.402 806.307C227.722 803.014 232.535 800.011 236.479 797.513C231.596 800.355 226.809 803.138 222.123 805.858C216.735 808.999 211.48 812.057 206.355 815.035C211.385 811.905 216.545 808.694 221.839 805.4C229.767 800.467 238.471 795.054 246.519 790.049C233.536 797.946 225.573 802.783 221.666 805.121C216.188 808.408 217.23 807.682 221.526 804.896C229.673 799.598 251.048 785.938 259.129 779.786C262.378 777.289 220.863 803.876 268.114 773.22C236.059 792.832 241.89 788.831 220.161 802.697C217.765 804.225 215.074 805.944 212.036 807.888C212.129 807.659 215.023 805.687 219.993 802.427C239.405 789.668 289.496 757.899 312.149 743.503C231.181 792.948 253.231 781.157 219.663 801.897C211.208 807.124 199.727 814.113 182.83 824.29C167.014 835.18 208.652 809.096 205.091 811.486C193.164 819.526 164.572 836.285 131.292 859.22C125.907 862.939 149.879 849.114 115.12 870.723C111.241 873.131 88.6309 886.293 88.9668 886.017C91.3937 883.749 113.733 870.088 114.38 869.376C115.282 868.515 90.5089 884.153 90.6031 884.016C89.3068 883.887 110.803 871.047 107.608 872.75C100.724 876.399 11.6578 930.024 126.919 858.65C31.9378 918.987 115.051 867.035 152.247 843.507C161.455 837.677 163.916 835.587 177.21 827.128C191.86 817.808 208.509 807.624 219.123 801.026C220.96 799.884 222.596 798.861 223.967 797.994C227.274 795.902 222.789 798.502 218.919 800.698C214.442 803.251 210.636 805.36 218.648 800.261C224.063 796.809 235.898 789.438 257.824 775.94C246.365 782.69 232.689 791.022 218.39 799.846C179.734 823.703 134.68 852.275 105.552 869.783C24.5035 918.525 160.571 833.175 174.573 824.366C178.333 821.979 165.332 829.308 167.84 827.703C169.98 826.333 194.147 811.394 216.812 797.305C235.437 785.727 253.385 774.508 256.864 772.065C264.135 766.929 228.533 789.676 225.739 790.762C224.072 791.35 317.088 732.867 266.267 764.097C252.537 772.533 233.477 784.595 215.838 795.736C188.907 812.738 163.426 828.761 156.317 832.051C175.973 819.764 195.596 807.511 215.454 795.119C246.766 775.578 278.278 755.933 309.75 736.321C281.361 753.206 253.01 770.074 224.644 786.966C281.999 751.132 332.252 720.791 386.298 686.274C253.965 765.982 428.165 658.485 429.933 657.124C430.465 656.626 377.91 687.313 369.515 692.175C414.896 663.323 553.939 576.896 471.492 625.631C486.536 616.837 521.719 593.772 521.194 594.001C516.26 596.032 438.433 644.879 450.806 636.298C464.988 626.447 486.325 614.686 509.026 600.518C625.161 528.045 590.874 543.931 708.024 472.344C705.622 473.64 703.218 474.936 700.813 476.233C815.116 405.858 929.522 335.465 1043.85 265.407C1056.94 257.389 1069.75 249.548 1082.34 241.86C1102.93 228.625 1137.82 206.438 1177.61 182.939C1197.58 171.356 1218.23 159.088 1243.01 148.631C1255.82 144.448 1268.71 135.523 1297.17 141.969C1311.59 146.034 1322.17 157.392 1326.86 164.631C1331.94 172.224 1334.47 178.041 1336.89 183.216C1344.17 199.339 1349.44 213.65 1353.85 225.925C1359.82 240.917 1381.77 314.436 1382.91 320.077C1385.77 330.425 1368.9 274.012 1376.08 299.625C1378.5 304.857 1411.27 429.953 1409.18 420.94C1405.97 406.81 1394.21 363 1392.35 355.812C1387.94 338.37 1398.06 372.615 1411.05 426.351C1436.24 527.691 1469.55 698.454 1472.3 710.81C1470.85 702.259 1469.4 693.664 1467.94 685.003C1472.69 709.481 1477.3 733.821 1482.25 757.745ZM851.209 455.073C839.005 463.52 806.795 482.73 788.164 494.498C762.318 510.824 719.819 540.608 737.218 526.332C775.212 502.57 813.213 478.813 851.209 455.073ZM1311.37 299.415C1302.87 271.219 1311.52 292.383 1317.84 315.829C1318.51 318.458 1322.5 337.825 1311.37 299.415ZM1140.77 277.219C1141.73 276.596 1163.92 263.189 1164.65 262.793C1184.86 251.329 1118.21 291.597 1140.77 277.219ZM2064.56 568.61C2035.26 584.136 2057.3 574.234 2075.13 564.141C2076.25 563.504 2066.48 567.597 2064.56 568.61ZM2043.71 579.557C2020.33 590.338 1975.83 616.98 2012.12 597.49C2015.59 595.624 2044.82 579.041 2043.71 579.557ZM1277.03 203.639C1277.43 204.126 1278.4 205.861 1279.9 209.062C1284.1 217.777 1290.68 235.211 1293.76 244.117C1293.32 244.003 1285.39 221.638 1279.66 209.172C1278.57 206.743 1277.69 204.923 1277.03 203.639ZM1597.97 816.158C1598.37 815.718 1577.23 826.661 1553.73 838.463C1541.88 844.395 1529.54 850.516 1518.22 855.585C1512.43 858.147 1507.29 860.374 1500.86 862.412C1497.7 863.385 1494.18 864.341 1489.63 864.844C1485.15 865.403 1479.6 864.932 1476.96 864.411C1474.56 863.994 1472.75 863.511 1471.7 863.229C1473.24 863.683 1475.01 864.12 1476.95 864.472C1499.64 867.12 1508.38 859.318 1520.07 855.068C1531.28 850.047 1543.4 844.083 1554.7 838.441C1577.44 827.057 1597.43 816.627 1597.97 816.158ZM1842.22 686.549C1839.86 687.721 1806.95 705.31 1808.15 705.082C1824.27 697.067 1853.26 681.056 1842.22 686.549ZM2328.18 431.363C2329.94 430.365 2304.11 441.035 2363.45 412.231C2372.14 408.013 2341.72 424.32 2344.78 422.84C2351.29 419.675 2356.38 417.143 2360.44 415.071C2333.16 429.291 2304.89 444.014 2302.1 445.301C2288.92 451.371 2327.39 431.798 2328.18 431.363ZM2584.27 300.285C2589.69 297.189 2626.26 279.681 2634.46 275.944C2635.88 275.295 2630.16 279.127 2646.52 271.211C2659.6 264.9 2639.39 273.404 2665.26 261.271C2691.1 249.207 2657 266.161 2659.2 265.185C2662.3 263.747 2702.09 244.485 2701.21 245.581C2700.28 246.457 2657.38 266.374 2646.79 271.588C2633.29 278.189 2649.98 270.977 2627.29 281.714C2613.02 288.487 2620.34 283.541 2617.3 284.935C2614.68 286.097 2565.44 310.94 2584.35 300.251C2584.32 300.262 2584.29 300.274 2584.27 300.285ZM2367.79 411.237C2365.73 412.341 2363.37 413.582 2360.44 415.071C2362.91 413.784 2365.34 412.517 2367.79 411.237ZM924.833 408.972C938.305 401.122 899.197 425.844 883.876 434.697C883.485 434.448 922.662 410.238 924.833 408.972ZM2392.66 397.335C2433.55 376.837 2403.7 392.509 2367.79 411.237C2379.19 405.124 2379.04 404.178 2392.66 397.335ZM1380.58 567.832C1380.89 569.734 1381 570.95 1380.79 571.152C1379.99 566.169 1380.03 565.679 1380.58 567.832ZM1401.68 671.858C1409.57 707.473 1394.99 634.88 1394.5 635.418C1394.38 635.759 1401.37 670.392 1401.68 671.858ZM2102.14 548.917C2099.15 550.41 2144.06 524.261 2078.13 560.832C2113.88 542.325 2076.42 562.309 2077.06 562.195C2078.82 561.893 2138.3 530.019 2151.69 523.295C2161.59 516.963 2112.05 543.968 2102.22 548.877C2102.2 548.891 2102.17 548.904 2102.14 548.917ZM3057.56 96.8772C3049.25 100.118 3022.43 109.186 3004.29 115.985C3012.59 112.228 3039.39 102.672 3057.56 96.8772ZM6053.47 315.956C6021.29 186.785 6018.14 170.175 6047.69 287.903C6048.3 290.322 6055.58 323.746 6053.47 315.956ZM5229.37 611.069C5218.5 617.6 5252.33 593.013 5274.94 577.442C5280.08 573.899 5299.37 561.471 5278.15 576.839C5278.06 575.328 5244.81 598.478 5229.37 611.069ZM2415.34 385.009C2426.93 378.308 2463.5 360.322 2482.87 350.722C2471.22 357.205 2432.52 376.485 2415.34 385.009ZM5819.95 220.226C5807.64 227.113 5799.92 232.634 5802.05 231.495C5811.68 226.332 5834.07 212.838 5819.95 220.226ZM2297.86 445.22C2296.01 445.692 2343.89 420.525 2347.8 419.696C2337.42 424.939 2299.17 444.83 2297.86 445.22ZM3023.29 108.306C3015.47 110.814 3055.62 96.1999 3067.87 92.8621C3067.03 93.3748 3028.49 106.401 3023.29 108.306ZM5626.48 337.87C5615.91 344.524 5589.28 361.809 5586.69 363.969C5583.2 366.754 5622.01 341.346 5626.48 337.87ZM7260.11 279.824C7261.62 279.186 7219.09 303.865 7199.91 314.028C7163.33 333.412 7258.58 280.534 7260.11 279.824ZM5936.66 156.708C5939.23 155.454 5941.36 154.419 5943.14 153.56C5957.74 146.532 5950.64 150.017 5943.29 153.841C5938.76 156.199 5934.03 158.749 5934.76 158.741C5937.24 157.47 5940.37 155.865 5943.5 154.266C5971.96 138.356 6005.2 128.366 5975.41 137.887C5969.58 140.063 5954.65 147.466 5943.08 153.433C5940.77 154.61 5938.59 155.726 5936.66 156.708ZM5904.07 173.316C5900.37 175.579 5875.7 189.805 5897.43 178.146C5907.5 172.764 5923.33 163.312 5904.07 173.316ZM6993.7 426.183C6961.84 442.694 7106.1 364.254 7110.45 362.022C7112.69 360.882 7114.13 360.174 7114.97 359.78C7120.07 356.693 7147.29 341.731 7150.81 340.546C7142.55 345.012 7120.31 357.253 7117.72 358.589C7116.6 359.17 7115.76 359.598 7115.17 359.884C7105.75 365.695 6999.7 423.084 6993.7 426.183ZM6754.21 555.962C6789.72 535.261 6797.03 533.584 6793.97 535.331C6755.17 557.421 6780.02 542.173 6778.76 542.781C6776.08 544.11 6748.39 559.982 6754.33 555.9C6754.29 555.921 6754.25 555.942 6754.21 555.962ZM6944.54 452.677C6946.16 451.764 6976.14 435.446 6977.48 434.746C7002.59 421.799 6916.98 468.401 6944.54 452.677ZM2779.4 206.842C2802.01 196.922 2780.22 207.477 2765.27 213.971C2763.96 214.544 2759.77 215.503 2779.4 206.842ZM5886.93 182.649C5881.46 184.493 5755.11 255.707 5763.49 252.784C5773.59 245.468 5917.98 166.342 5886.93 182.649ZM4985.58 790.4C5005.88 774.649 4984.42 792.608 4973.42 800.766C4969.32 803.803 4980.62 794.248 4985.58 790.4ZM2232.55 478.027C2209.1 490.904 2213.09 486.609 2233.98 476.49C2234.8 476.093 2233.47 477.522 2232.55 478.027ZM5150.01 667.613C5078.96 720.801 5093.68 705.302 5187.57 638.254C5184.74 640.489 5181.87 642.761 5179.05 645.004C5287.26 567.353 5186.5 639.715 5160.31 659.192C5150.37 666.548 5159.1 660.857 5150.08 667.565C5150.05 667.581 5150.03 667.597 5150.01 667.613ZM4881.59 875.077C4816.88 928.718 4938.49 823.992 4976.34 796.075C4941.5 824.589 4895.9 861.64 4958.69 812.352C4868.17 885.78 4905.69 854.919 4901.89 857.566C4897.56 861.055 4884.4 872.744 4881.59 875.077ZM5056.97 735.74C5060.73 732.799 5090.89 710.854 5101.62 702.823C5087.01 714.573 5030.96 755.905 5056.97 735.74ZM6503.48 692.427C6505.74 690.479 6512.5 686.322 6538.36 672.655C6530.71 677.147 6513.88 686.527 6503.48 692.427ZM825.326 467.09C808.159 477.638 773.614 498.698 784.517 492.754C785.658 492.116 825.547 467.397 825.326 467.09ZM5526.54 401.815C5522.85 403.98 5430.93 466.534 5463.05 445.498C5472.65 439.005 5556.53 382.504 5526.54 401.815ZM5996.68 132.729C5996.45 132.548 5996.17 132.351 5995.95 132.234C5995.73 132.113 5995.6 132.064 5995.43 132.018C5995.17 131.951 5994.07 131.703 5991.36 132.132C5986.01 132.912 5977.67 136.449 5977.57 136.563C5976.45 137.322 5986.14 133.257 5991.77 132.523C5994.6 132.126 5995.22 132.387 5995.44 132.348C5995.58 132.352 5995.78 132.389 5996.03 132.483C5996.28 132.576 5996.54 132.699 5996.68 132.729ZM738.001 520.274C735.731 521.597 683.1 554.275 689.057 550.958C700.352 544.665 745.918 515.65 738.001 520.274ZM2860.51 169.579C2865.13 167.577 2871.8 165.505 2873.4 164.835C2877.11 162.953 2964.13 127.343 2931.2 141.644C2925.55 143.421 2800.78 196.231 2784.87 203.869C2778.25 205.732 2831.5 183.041 2844.45 177.45C2846.78 176.427 2847.71 175.136 2860.47 169.599C2860.49 169.593 2860.5 169.586 2860.51 169.579ZM6638.19 618.883C6641.31 616.524 6739.2 562.864 6738.44 564.1C6704.9 582.461 6671.53 600.699 6638.19 618.883ZM6588.25 645.82C6567.25 656.693 6616.04 630.139 6630.58 622.459C6630.86 622.779 6591.31 644.246 6588.25 645.82ZM5834.69 208.157C5825.02 213.713 5855.36 197.838 5848.75 201.719C5844.44 204.199 5822.65 216.009 5815.96 220.162C5814.04 221.335 5836.5 209.604 5842.85 206.064C5851.96 200.957 5842.84 205.253 5852.7 199.8C5884.26 182.393 5912.72 167.864 5942.64 152.585C5944.1 151.84 5945.54 151.107 5946.95 150.388C5948.11 149.792 5944.99 151.294 5942.56 152.429C5940.4 153.44 5938.94 154.073 5942.45 152.214C5944.27 151.254 5947.08 149.794 5951.74 147.44C5953.52 146.563 5960.23 143.267 5969.4 139.234C5978.01 135.228 5992.25 130.644 5995.01 131.645C5995.75 131.647 5995.77 131.498 5996.68 131.949C5997.53 132.395 5999.02 133.631 6000.67 135.639C6003.98 139.613 6007.52 146.007 6010.57 152.744C6016.72 166.399 6021.7 181.884 6026.57 198.331C6035.51 228.913 6043.92 263.07 6054.54 305.954C6054.1 302.534 6038.13 236.144 6036.89 232.461C6034.11 221.903 6030.97 210.354 6027.34 198.101C6020.43 174.954 6009.91 142.213 5998.69 131.627C6000.37 124.426 5966.64 137.237 5941.82 150.967C5915.52 164.397 5891.15 177.268 5870.96 188.227C5852.93 198.039 5862 193.623 5854.21 197.913C5848.09 201.311 5854.97 196.497 5834.69 208.157ZM834.29 461.009C825.533 465.433 797.041 483.655 778.63 494.981C785.51 491.617 816.162 471.986 834.29 461.009ZM6148.89 730.685C6145.99 719.87 6138.44 686.897 6137.59 684.16C6136.37 680.747 6147.56 728.467 6148.89 730.685ZM3156.86 258.372C3156.92 259.209 3157.57 276.353 3157.8 283.507C3157.85 285.115 3157.89 286.189 3157.89 286.373C3157.93 294.086 3157.68 290.521 3157.37 283.523C3156.74 269.185 3155.74 240.68 3156.86 258.372ZM3277.91 852.544C3300.63 850.935 3320.87 845.826 3327.92 844.948C3315.2 848.521 3275.95 853.778 3277.91 852.544ZM4077.9 513.18C4073.83 514.204 4127.57 488.264 4137.65 483.355C4134.13 485.543 4080.89 512.424 4077.9 513.18ZM6498.36 692.009C6530.28 674.909 6523.03 677.266 6543.66 666.844C6547.18 665.057 6558.94 661.916 6523.41 679.865C6517 683.098 6541.35 669.252 6498.36 692.009ZM5202.79 627.25C5209.89 621.379 5233.47 604.578 5249.36 593.263C5246.09 596.126 5213.96 619.095 5202.79 627.25ZM642.538 578.51C627.594 586.774 560.752 628.859 577.662 619.041C580.077 617.629 633.106 584.306 642.538 578.51ZM2496.62 340.93C2525.43 325.775 2465.16 355.712 2446.59 365.886C2455.21 361.452 2494.71 341.913 2496.62 340.93ZM3891.76 603.997C3893.14 603.307 3924.2 588.247 3925.58 587.603C3951.27 575.848 3863.51 618.39 3891.76 603.997ZM3163.63 676.946C3163.81 679.603 3164.01 685.689 3164.25 693.493C3164.59 721.501 3167.76 778.097 3176.64 796.647C3167.57 781.188 3163.16 721.964 3163.46 693.514C3163.26 679.92 3163.32 672.011 3163.63 676.946ZM6365.89 762.802C6388.92 750.76 6411.03 739.241 6432.16 728.268C6427.81 731.155 6368.6 761.853 6365.89 762.802ZM4005.41 548.33C4007.07 547.519 4008.71 546.771 4010.29 545.998C4008.63 546.793 4007 547.57 4005.41 548.33ZM6078.17 404.908C6073.64 383.665 6073.79 388.246 6074.06 389.557C6077.36 405.565 6083.27 428.984 6078.17 404.908ZM812.475 473.034C805.649 476.369 774.774 496.127 756.778 507.04C762.252 504.352 798.023 482.053 812.475 473.034ZM4774.39 894.626C4774.72 893.234 4775.03 892.176 4775.3 891.302C4775.53 890.595 4775.75 889.974 4775.9 889.556C4776.04 889.191 4776.11 889.085 4776.13 889.105C4776.16 889.15 4776.16 889.27 4776.07 889.718C4775.97 890.161 4775.84 890.763 4775.69 891.412C4775.27 893.153 4774.68 895.315 4774.21 899.304C4774.03 901.392 4773.71 903.747 4774.31 908.39C4774.68 910.706 4775.21 913.845 4777.54 918.208C4779.68 922.487 4785.29 928.284 4791.59 930.466C4804.54 934.426 4809.16 930.867 4812.77 929.899C4816.2 928.489 4818.34 927.161 4820.28 925.914C4824.12 923.391 4826.95 921.034 4829.79 918.568C4852.24 897.287 4880.8 871.355 4891.5 862.907C4892.08 862.625 4855.45 895.404 4830.37 919.242C4827.22 921.95 4824.16 924.471 4819.82 927.183C4817.57 928.533 4815.16 929.984 4810.84 931.431C4808.55 932.137 4805.9 932.908 4801.45 932.976C4797.23 933.065 4790.39 931.825 4784.74 927.567C4773.35 918.04 4774.21 910.361 4773.46 907.062C4773.15 903.356 4773.38 901.356 4773.54 899.706C4773.9 896.568 4774.28 895.185 4774.39 894.626ZM2406.31 385.337C2404.08 385.798 2362.86 407.687 2371.81 403.423C2377.49 400.7 2407.64 385.063 2406.31 385.337ZM4934.34 827.855C4942.28 821.16 4961.58 806.565 4955.12 812.153C4946.93 819.225 4932.25 829.602 4934.34 827.855ZM5697.67 288.216C5693.78 290.391 5642.23 323.433 5663.96 310.502C5679.03 301.539 5680.95 299.377 5684.43 297.202C5688.25 294.638 5772.7 244.466 5697.67 288.216ZM4847.33 281.089C4846.55 304.095 4844.72 331.898 4843.25 356.133C4843.56 346.208 4846.53 290.846 4847.33 281.089ZM2566.99 304.587C2564.91 305.494 2541.02 317.141 2518.47 328.372C2485.84 344.617 2456.61 359.486 2502.91 336.741C2504.14 336.138 2510.52 332.98 2518.74 328.918C2541.43 317.668 2578.38 299.578 2566.99 304.587ZM6498.36 692.009C6494.21 694.229 6489.47 696.743 6484.08 699.569C6489.41 696.732 6494.17 694.224 6498.36 692.009ZM6146.67 715.875C6149.04 723.978 6139.15 682.432 6136.26 670.307C6134.78 666.499 6146.21 714.78 6146.67 715.875ZM4843.74 357.98C4843.14 371.963 4841.27 397.165 4840.16 414.437C4839.96 411.642 4843 363.919 4843.74 357.98ZM4176.25 462.193C4201.34 450.031 4231.91 434.787 4232.11 434.146C4232.66 433.96 4233.89 433.44 4235.92 432.53C4238.14 431.52 4264.4 418.288 4276.29 412.613C4345.95 379.21 4008.6 545.721 4203.46 447.726C4194.46 452.512 4185.39 457.336 4176.25 462.193ZM3163.37 566.192C3163.84 550.403 3162.87 506.22 3162.7 517.689C3162.57 525.67 3162.88 581.994 3163.37 566.192ZM3560.63 756.336C3556.49 758.094 3516.63 775.623 3515.59 776.331C3538.8 766.998 3580.57 748.141 3560.63 756.336ZM3163.35 444.966C3163.37 435.061 3162.31 422.474 3162.28 423.632C3162.02 433.687 3162.93 461.554 3163.35 444.966ZM6430.52 725.375C6417.3 732.133 6376.28 754.561 6367.22 759.96C6365.55 760.694 6360.84 762.976 6352.37 767.156C6352.39 767.143 6352.42 767.13 6352.44 767.116C6350 768.287 6329.65 778.895 6302.32 792.431C6288.63 799.17 6273.56 806.528 6257.04 813.695C6248.71 817.247 6240.56 820.671 6230.57 823.666C6225.53 825.044 6220.41 826.663 6211.8 826.757C6207.65 826.736 6201.62 826.032 6195.68 822.905C6189.71 819.799 6186.04 815.432 6184.3 813.345C6168.38 792.086 6166.21 776.459 6161.75 764.1C6158.03 751.849 6155.82 743.511 6154.99 740.698C6154.21 737.965 6154.87 740.987 6157.75 751.728C6162.19 763.113 6160.73 779.286 6183.67 813.862C6185.65 816.617 6193.43 824.406 6202.31 826.386C6210.86 828.497 6216.44 827.518 6221.07 826.846C6226.87 825.757 6225.74 825.76 6228.62 824.907C6231.46 823.966 6238.13 822.137 6253.93 815.529C6256.17 814.58 6257.11 814.712 6263.57 811.867C6278.43 805.93 6351.5 769.058 6365.61 761.074C6365.77 761.086 6366.72 760.684 6368.73 759.718C6386.85 751.073 6440.63 720.255 6430.52 725.375ZM3639.05 721.221C3631.02 724.711 3606.04 736.15 3603.54 737.698C3616.03 732.379 3657.57 713.221 3639.05 721.221ZM2562.01 305.171C2550.14 310.71 2524.99 323.498 2517.95 327.346C2515.76 328.549 2515.45 328.814 2518.08 327.594C2518.21 327.533 2518.35 327.469 2518.49 327.401C2526.2 323.734 2580.3 296.589 2562.01 305.171ZM3382.13 826.746C3411.79 817.154 3425.17 811.929 3430.81 809.884C3435.13 808.259 3433.79 808.701 3430.75 809.745C3424.9 811.777 3413.67 815.571 3420.22 812.908C3407.91 817.617 3395.16 822.29 3382.13 826.746ZM6844.04 503.277C6829.93 510.82 6845.79 500.823 6861.81 492.809C6866.83 490.299 6851.94 499.053 6844.04 503.277ZM7484.14 152.331C7471.54 158.05 7530.92 126.173 7508.25 139.429C7507.22 140.021 7485.02 151.895 7484.14 152.331ZM7036.63 397.121C7027.49 402.935 7020.99 406.586 6993.93 421.19C7033.88 399.105 6996.45 418.866 7036.63 397.121ZM4231.81 434.209C4231.98 434.156 4232.13 434.109 4232.11 434.146C4231.92 434.21 4231.84 434.225 4231.81 434.209ZM3162.11 349.891C3162.54 337.233 3161.6 301.882 3161.26 312.43C3161.26 313.478 3161.6 344.716 3162.11 349.891ZM6367.22 759.96C6368.75 759.28 6368.02 759.743 6365.61 761.074C6365.46 761.062 6366.05 760.667 6367.22 759.96ZM3164.21 540.594C3163.74 539.328 3163.94 593.543 3164.04 595.708C3165.11 626.849 3164.33 562.959 3164.21 540.594ZM2243.16 466.653C2240.71 467.981 2257.2 460.716 2266.79 455.227C2274.22 450.974 2252.32 461.686 2243.16 466.653ZM7128.55 346.47C7143.62 338.215 7164.77 326.63 7168.92 324.983C7158.88 330.387 7128.41 347.008 7128.55 346.47ZM7460.67 164.344C7443.19 174.676 7402.62 196.927 7376.67 211.036C7375.76 210.564 7444.06 173.687 7460.67 164.344ZM6471.7 703.749C6470.32 704.465 6432.31 724.47 6437.81 722.175C6445.73 718.924 6482.59 698.275 6471.7 703.749ZM2317.51 428.827C2334.4 419.67 2294.58 438.851 2276.99 449.032C2267.97 454.237 2314.6 430.386 2317.51 428.827ZM3159.42 239.495C3158.06 215.746 3159.9 269.444 3160.77 283.397C3160.83 284.29 3160.89 285.019 3160.95 285.548C3160.92 284.872 3160.9 284.152 3160.88 283.393C3160.51 270.919 3159.91 247.834 3159.42 239.495ZM3493.99 782.97C3418.55 811.479 3460.24 798.062 3473.71 792.454C3475.63 791.673 3495.75 782.312 3493.99 782.97ZM472.058 679.97C462.585 686.117 498.826 664.696 503.248 661.287C505.883 659.235 478.176 676.001 472.058 679.97ZM4581.66 265.838C4578.65 267.207 4575.62 268.588 4572.58 269.975C4574.85 268.913 4577.82 267.551 4581.66 265.838ZM3122.77 69.8354C3132.28 68.1953 3140.07 66.9269 3146.42 65.8228C3145.58 66.0729 3143.94 66.1723 3142.5 65.8431C3141.04 65.5288 3139.99 64.9636 3139.44 64.6076C3138.4 63.8787 3138.8 64.0986 3139.09 64.5896C3139.84 65.6766 3140.7 67.2988 3141.23 68.2479C3142.38 70.3854 3142.68 70.3841 3143.23 71.8873C3146.23 79.3206 3150.06 102.146 3152.29 121.357C3149.56 100.542 3144.95 74.7337 3138.6 65.1386C3149.53 64.3796 3158.99 227.347 3158.61 228.97C3159.45 233.543 3156.73 184.815 3156.57 183.376C3156.51 181.384 3157.57 173.596 3157.3 169.16C3157.08 166.172 3155.77 143.834 3152.54 117.397C3150.9 104.282 3148.72 90.041 3145.45 78.1135C3143.86 72.2615 3141.74 66.8592 3140.17 64.4404C3139.8 63.8513 3139.52 63.5162 3139.49 63.4698C3139.45 63.4191 3139.67 63.6861 3140.4 64.1186C3141.78 65.1085 3145.3 65.4941 3146.27 65.1169C3135.2 67.3173 3126.84 69.0188 3122.77 69.8354ZM3333.31 839.374C3346.4 836.295 3350.15 835.783 3356.1 833.948C3358.06 833.323 3358.16 832.709 3364.99 830.497C3354.69 833.657 3344.07 836.682 3333.31 839.374ZM3029.22 99.4086C3014.22 103.631 3080.62 81.5632 3082.82 81.7367C3094.27 78.6797 3041.51 95.2115 3029.22 99.4086ZM3164.58 513.557C3164.61 510.949 3164.53 456.108 3164.12 456.572C3163.92 471.046 3164.22 544.403 3164.58 513.557ZM3373.49 827.836C3392.69 822.047 3427.18 810.089 3423.02 810.626C3423 810.636 3422.97 810.646 3422.94 810.656C3406.91 816.616 3390.08 822.547 3373.49 827.836ZM2375.13 397.094C2342.66 412.152 2358.61 405.962 2386.88 392.011C2395.05 387.119 2380.45 394.623 2375.13 397.094ZM2273.14 448.479C2264.17 452.786 2173.59 500.321 2187.78 493.781C2192.81 491.438 2244.69 463.644 2247.11 462.46C2250.8 460.633 2234.51 470.026 2262.3 455.408C2260.54 456.001 2276.19 446.989 2273.14 448.479ZM2348.44 409.768C2316.37 425.054 2310.29 430.439 2333.92 418.263C2343.22 413.479 2353.01 407.594 2348.44 409.768ZM2477.55 344.251C2465.92 349.883 2435.73 364.825 2415.02 376.119C2443.02 361.93 2471.02 347.838 2499.03 333.889C2502.09 331.939 2487.56 339.4 2477.48 344.289C2477.5 344.276 2477.53 344.264 2477.55 344.251ZM7645.15 57.3135C7620.18 70.3746 7676.99 38.955 7679.49 37.7432C7686.86 34.2188 7656.31 51.4783 7645.15 57.3135ZM275.305 780.691C268.672 784.542 263.696 786.76 249.38 796.101C264.353 787.449 279.403 778.753 294.456 770.057C305.184 761.933 282.77 776.351 275.305 780.691ZM216.62 811.747C218.352 810.642 210.17 814.199 222.661 806.724C225.276 805.162 228.868 803.081 233.857 800.256C239.743 796.92 233.95 800.831 223.275 807.713C198.881 823.413 148.546 854.97 135.918 862.153C155.648 849.392 198.779 823.114 216.62 811.747ZM39.4242 912.5C38.1785 913.073 75.4979 889.368 79.9263 886.747C102.92 873.034 45.9903 909.261 39.4242 912.5ZM159.127 838.122C141.329 848.754 180.325 824.212 191.912 817.269C193.167 816.909 162.186 836.28 159.127 838.122ZM7381.45 170.266C7361.15 179.914 7344.97 191.992 7374.9 174.928C7376.33 174.114 7382.32 169.862 7381.45 170.266ZM74.9951 887.865C92.7953 877.17 53.964 901.735 42.2658 908.886C41.0924 909.183 72.3933 889.414 74.9951 887.865ZM7366.11 175.131C7339.61 188.597 7350.31 186.323 7353.62 184.654C7367.23 177.763 7412.78 151.366 7422.02 145.943C7353.31 184.175 7378.6 168.786 7366.11 175.131ZM7246.59 242.831C7222.52 256.409 7284.74 223.036 7296.15 215.775C7284.08 222.442 7253.5 238.934 7246.59 242.831ZM7099.08 322.501C7085.95 329.562 7047.25 350.441 7040.84 354.516C7055.08 346.622 7093.87 325.936 7099.08 322.501ZM7068.84 337.367C7048.2 347.895 7044.3 352.269 7067.41 338.952C7068.31 338.434 7069.6 336.991 7068.84 337.367ZM6953.99 399.398C6940.23 406.032 6926.01 415.974 6947.59 404.234C6954.02 400.731 6955.45 398.7 6953.99 399.398ZM7331.8 190.083C7312.5 200.283 7288.59 214.947 7329.43 192.724C7315.18 200.774 7300.99 208.791 7286.7 216.866C7340.57 188.199 7335.73 188.695 7351.15 180.329C7372.6 168.69 7371.69 170.968 7367.61 173.763C7384.82 163.238 7459.47 122.271 7502.6 98.3956C7464.43 118.882 7402.56 152.032 7364.91 172.394C7354.19 178.186 7344.03 184.246 7334.86 189.224C7320.18 197.183 7332.88 189.514 7331.87 190.041C7331.85 190.055 7331.82 190.069 7331.8 190.083ZM6803.39 481.614C6763.89 502.149 6789.34 490.449 6811.52 477.963C6812.46 477.42 6804.38 481.102 6803.39 481.614ZM21.5839 914.654C72.6475 883.331 36.4807 907.21 141.7 839.709C97.6729 868.465 139.697 841.918 131.26 847.713C124.288 852.478 98.2077 868.385 113.652 859.618C92.7141 871.906 8.37019 923.981 1.15387 930.488C1.21524 930.432 1.28015 930.373 1.34797 930.313C0.81246 930.781 0.627327 930.916 0.567438 930.894C0.515712 930.866 0.474827 930.798 0.811064 930.367C1.55675 929.41 3.3402 927.731 4.87474 926.414C8.13421 923.614 13.4738 919.687 21.5839 914.654ZM7096.49 318.222C7082.39 323.302 7078.78 329.477 7052.26 341.803C7019.29 363.033 7147.01 289.928 7163.66 283.478C7023.43 359.991 7257.39 234.79 7157.85 285.304C7238.99 242.301 7184.03 270.461 7196.24 263.255C7209.4 255.498 7255.08 231.055 7252.41 231.532C7252.38 231.546 7252.36 231.56 7252.33 231.574C7224.47 246.915 7196.61 262.254 7168.85 277.534C7197.06 264.203 7139.79 294.946 7119.74 304.194C7111.96 308.888 7104.21 313.564 7096.49 318.222ZM7255.03 233.35C7252.2 234.853 7191.78 268.267 7195.85 266.462C7204.12 262.201 7289.99 214.804 7255.03 233.35ZM7521.47 86.7421C7499.69 98.6884 7465.9 116.814 7454.38 123.934C7476.16 111.99 7509.93 93.8741 7521.47 86.7421ZM6399.83 698.08C6372.34 713.354 6458.25 667.825 6433.03 680.477C6431.63 681.198 6401.13 697.375 6399.83 698.08ZM7033.53 353.09C7005.03 367.883 7019.36 362.61 7040.03 350.626C7041.23 349.931 7034.85 352.405 7033.53 353.09ZM62.5198 888.506C64.0505 886.848 138.104 841.107 150.945 833.14C143.844 838.13 60.887 890.221 62.5198 888.506ZM7558.75 63.9287C7514.56 85.9122 7456.85 120.188 7450.41 123.663C7444 127.127 7453.61 120.862 7452.14 121.641C7448.82 123.407 7380.67 160.874 7377.34 162.771C7375 164.109 7387.94 158.401 7374.03 166.469C7401.17 150.795 7526.05 82.7739 7532.49 79.0867C7537.45 76.2393 7499.07 95.8408 7558.67 63.97C7558.7 63.9561 7558.72 63.9425 7558.75 63.9287ZM7434.21 132.248C7451.54 123.326 7403.67 149.663 7392.1 155.791C7366.19 169.522 7431.94 133.425 7434.21 132.248ZM7319.03 194.891C7313.59 197.742 7264.16 224.727 7260.34 227.469C7283.9 215.395 7331.56 188.324 7319.03 194.891ZM6770.74 494.976C6757.96 502.029 6722.48 520.854 6720.75 522.357C6733.52 515.326 6768.92 496.536 6770.74 494.976ZM311.7 728.419C290.906 740.823 338.489 711.119 352.599 702.611C353.634 702.359 313.538 727.321 311.7 728.419ZM7026.47 351.535C7018.89 355.527 6864.4 440.43 6842.82 452.445C6864.22 441.221 7017.5 357.448 7024.31 353.49C7026.31 352.332 7027.45 351.026 7026.47 351.535ZM7360.59 168.181C7374.39 159.777 7384.09 155.458 7385.89 154.485C7403.42 144.997 7439.72 124.896 7432.08 129.888C7400.98 146.626 7333.12 184.909 7360.59 168.181ZM6758.14 498.068C6705.98 526.795 6807.02 472.619 6793.41 479.158C6792.59 479.553 6763.55 495.09 6758.14 498.068ZM7043.7 341.861C7054.89 335.071 7209.79 250.8 7234.59 237.196C7212.99 250.28 7194.53 259.454 7164.77 275.824C7156.69 280.269 7159.07 279.483 7158.2 279.96C7144.25 287.631 7154.44 281.446 7145.84 286.15C7140.51 289.076 7027.75 351.545 7043.7 341.861ZM7368.43 163.303C7376.97 158.139 7473.23 105.132 7477.25 103.052C7506.65 87.8657 7376.07 159.28 7368.43 163.303ZM7028.99 348.806C7045.08 338.554 7122.33 297.222 7069.95 326.626C7064.92 329.445 7043.56 340.514 7028.99 348.806ZM6763.17 493.95C6760.59 495.319 6705.76 524.889 6704.94 525.787C6712.82 521.693 6792.84 478.253 6763.17 493.95ZM6790.92 477.269C6789.62 477.986 6802.72 471.73 6777.19 485.54C6775.04 486.695 6770.43 488.222 6738.46 505.998C6731.86 509.67 6722 515.695 6722.76 515.326C6756.95 498.288 6857.26 440.563 6790.92 477.269ZM7369.86 161.712C7364.48 164.241 7376.49 156.403 7388.11 150.661C7393.09 148.203 7384.32 153.766 7369.86 161.712ZM6589.28 588.061C6620.75 570.271 6520.77 624.244 6515.6 627.183C6519.42 625.614 6585.96 589.954 6589.28 588.061ZM357.25 694.146C357.225 694.161 357.201 694.176 357.177 694.191C383.346 678.152 367.487 688.63 368.701 687.898C424.447 654.313 408.967 662.434 417.597 656.913C435.99 645.145 433.794 648.296 464.686 628.424C413.481 661.229 460.432 631.694 462.088 631.307C469.146 629.536 392.752 673.027 367.267 689.369C363.785 691.602 390.505 675.876 381.461 681.717C351.957 700.759 257.46 755.326 357.25 694.146ZM7396.77 145.801C7408.82 138.452 7503.31 87.3265 7478.6 101.495C7474.57 103.807 7378.98 156.639 7396.77 145.801ZM4218.91 386.113C4241.86 374.141 4187.9 400.079 4178.13 405.408C4173.24 408.071 4208.89 391.339 4218.91 386.113ZM3841.84 569.017C3814.34 582.458 3786.29 598.522 3820.42 581.692C3824.08 579.889 3845.14 567.785 3841.84 569.017ZM4881.79 804.795C4856.38 824.853 4858.81 824.944 4877.06 809.614C4883.48 804.277 4882.64 804.128 4881.79 804.795ZM4554.72 223.866C4551.49 225.241 4518.08 240.675 4519.41 240.479C4531.81 234.932 4573.86 215.592 4554.72 223.866ZM4889.59 798.09C4874.87 810.564 4901.08 790.352 4918.71 774.949C4909.46 782.411 4891 796.865 4889.59 798.09ZM6969.36 377.508C6955.69 385.714 6916.11 407.135 6893.56 419.579C6890.65 420.228 6953.17 386.537 6969.36 377.508ZM3959.1 512.865C3933.33 526.172 3989.32 499.204 3983.85 501.021C3983.13 501.332 3960.12 512.341 3959.1 512.865ZM5729.87 209.195C5711.8 220.426 5770.28 186.749 5753.84 195.424C5752.93 195.886 5730.87 208.547 5729.87 209.195ZM6013.12 81.5513C6005.96 78.6343 5991.45 77.1349 5980 79.6987C5968.18 82.0292 5958.38 86.1631 5950.35 89.6935C5934.66 96.8487 5925.59 101.873 5937.95 95.9562C5940.11 95.0886 5952.68 88.2809 5969.29 82.8979C5977.58 80.2604 5987.59 78.2921 5996.76 78.7047C6005.88 79.0156 6012.61 81.5242 6013.12 81.5513ZM418.824 655.452C411.065 659.257 453.782 633.038 459.875 629.441C462.342 627.986 428.957 650.477 418.824 655.452ZM4842.41 837.293C4846.08 820.788 4854.37 777.962 4855.13 770.247C4851.93 790.699 4840.51 842.538 4842.41 837.293ZM4077.74 454.353C4054.62 464.765 4016.01 483.923 4026.1 480.291C4068.87 459.075 4020.32 481.949 4077.74 454.353ZM4973.24 730.63C4962.55 738.758 4955.28 745.895 4956.46 745.045C4968.17 736.593 4984 722.933 4973.24 730.63ZM4897.22 158.673C4897.27 158.332 4896.92 155.314 4895.74 150.155C4894.41 145.177 4893.23 138.252 4886.68 128.265C4883.57 123.257 4875.3 115.829 4867.66 113.515C4860.09 110.987 4855.33 111.229 4852.04 111.246C4845.66 111.544 4843.67 112.175 4845.8 111.92C4846.54 111.931 4849.46 111.249 4856.6 111.65C4860.16 111.938 4865.53 112.598 4871.84 115.743C4878.25 118.843 4883.62 124.526 4886.28 128.543C4892.89 138.69 4894.06 145.826 4895.43 150.756C4896.64 155.843 4897.12 158.839 4897.22 158.673ZM6479.5 643.565C6462.28 652.314 6514.08 623.957 6530.09 615.899C6538.18 612.406 6481.43 642.606 6479.5 643.565ZM5271.25 512.299C5272.44 510.509 5218.34 549.586 5240.1 534.817C5245.56 531.092 5270.83 512.892 5271.25 512.299ZM5807.19 162.842C5768.03 184.903 5934.6 95.662 5890.4 118.292C5887.11 119.592 5810.48 160.578 5807.19 162.842ZM6079.01 186.845C6076.79 179.329 6080.65 182.337 6088.35 214.027C6089.36 218.133 6083.46 199.153 6084.22 202.497C6085.05 204.574 6102.14 272.563 6102.73 275.667C6103.62 279.03 6103.42 274.861 6104.34 278.274C6105.41 282.054 6114.65 324.084 6119.55 345.925C6128.88 387.202 6130.41 391.465 6131.18 394.856C6133.37 404.717 6136.55 421.363 6140.88 441.333C6152.82 496.098 6167.78 566.668 6182.09 631.992C6194.18 686.291 6205.83 739.165 6216.75 769.215C6202.15 727.925 6192.06 678.753 6181.21 632.186C6176.36 610.65 6171.5 588.622 6166.69 566.472C6172.47 586.922 6143.42 462.892 6160.57 535.394C6153.63 501.963 6089.57 212.029 6079.03 186.929C6079.02 186.901 6079.02 186.873 6079.01 186.845ZM3732.65 620.557C3749.2 611.864 3662.31 652.957 3655.07 657.233C3666.87 652.011 3730.46 621.763 3732.65 620.557ZM4132 423.374C4139.98 419.264 4146.9 413.99 4189.44 393.865C4189.48 393.846 4189.52 393.827 4189.56 393.808C4202.04 387.906 4188.12 395.24 4190.45 394.248C4191.38 393.852 4229.99 375.669 4198.25 391.514C4149.55 415.844 4193.07 392.71 4167.12 405.533C4163.91 407.122 4115.16 432.26 4118.08 431.032C4118.35 430.926 4133.16 423.381 4135.61 422.255C4144.97 417.965 4140.71 420.65 4142.02 420.029C4146.27 417.986 4223.64 378.709 4235.34 373.802C4239.07 372.197 4111.72 435.884 4106.71 438.227C4103.53 439.71 4104.22 437.773 4100.9 439.259C4099.15 440.053 4048.07 465.917 4041.39 469.067C4039.44 469.988 4037.94 470.682 4036.84 471.188C4044.79 467.757 3998.3 490.662 3999.5 489.509C4000.24 488.93 4032.24 473.271 4033.43 472.718C4033.94 472.483 4034.38 472.285 4034.8 472.096C4027.92 474.915 4136.27 421.332 4112.51 432.191C4143.73 416.242 4108.53 435.476 4132 423.374ZM4282.71 347.917C4279.52 349.652 4276.31 351.396 4273.09 353.148C4297.82 340.796 4324.45 327.791 4351.83 314.597C4385.55 298.349 4420.94 281.571 4456.26 264.875C4472.52 257.203 4453.32 265.229 4474.84 255.38C4491.89 247.592 4511.4 239.492 4502.15 243.997C4499.81 245.116 4464.89 260.819 4447.33 269.238C4396.28 293.709 4409.48 288.374 4406.5 289.799C4403.09 291.447 4370.97 306.3 4353.17 314.997C4352.86 315.148 4352.55 315.299 4352.25 315.45C4308.92 336.63 4288.76 347.056 4229.01 375.851C4263.35 358.322 4243.9 366.645 4282.71 347.917ZM5501.95 350.265C5503.3 348.841 5528.48 332.371 5543.23 322.737C5545.73 321.1 5547.93 319.656 5549.68 318.497C5549.27 318.912 5546.9 320.542 5543.35 322.916C5532.68 330.024 5511.04 344.11 5501.95 350.265ZM1572.06 760.712C1561.65 767.121 1643.24 724.64 1621.44 735.284C1616.62 737.665 1582.31 755.426 1572.06 760.712ZM1939.04 567.241C1949.88 561.252 1905.55 584.045 1905.98 584.538C1906.08 584.709 1937.69 567.989 1939.04 567.241ZM4901.13 317.416C4901.06 319.784 4898.91 353.861 4898.78 354.943C4896.7 377.502 4903.39 265.121 4901.13 317.416ZM2386.5 332.795C2348.28 352.811 2464.25 294.199 2428.53 311.557C2426.68 312.436 2388.28 331.84 2386.5 332.795ZM2548.05 251.721C2538.67 256.312 2497.48 276.409 2496.94 276.98C2496.41 277.654 2543.52 254.661 2548.05 251.721ZM4978.52 722.692C4977.69 723.12 4978.63 722.254 4980.86 720.448C4990.63 712.494 5025.84 686.43 5039.66 676.03C5044.04 673.819 4999.5 706.47 4981.07 720.721C4980.15 721.428 4979.3 722.086 4978.52 722.692ZM4856.79 790.333C4847.49 841.238 4838.01 879.923 4830.22 906.792C4830.15 907.005 4830.18 907.051 4830.29 906.312C4830.29 905.431 4830.92 904.352 4829.85 898.629C4829.17 895.808 4827.87 890.723 4822.49 884.977C4817.14 879.084 4808.29 876.133 4803.63 875.97C4793.97 875.688 4792.76 877.531 4791.32 877.864C4790.17 878.393 4790.03 878.539 4790.04 878.524C4790.07 878.506 4790.34 878.329 4790.68 878.08C4791.38 877.576 4792.33 876.816 4793.31 875.988C4804.85 865.691 4812.43 858.506 4812.02 859.119C4812.02 859.194 4804.15 866.975 4793.7 876.452C4792.71 877.313 4791.75 878.103 4791.05 878.629C4790.7 878.887 4790.43 879.074 4790.4 879.098C4790.39 879.118 4790.53 878.978 4791.73 878.446C4793.24 878.14 4794.42 876.167 4804.55 876.779C4809.45 877.105 4818.14 880.682 4822.83 886.421C4827.61 892.022 4828.63 896.587 4829.23 899.212C4830.12 904.468 4829.56 905.448 4829.54 906.239C4829.44 906.896 4829.42 906.821 4829.49 906.586C4838.44 875.436 4849.11 830.507 4859.11 775.027C4859.73 774.825 4859.71 774.174 4856.79 790.333ZM4934.25 756.332C4927.19 762.612 4904.22 780.618 4888.91 793.123C4891.45 790.429 4923.07 765.164 4934.25 756.332ZM1483.13 802.782C1479.68 803.339 1485.9 801.708 1492.77 798.496C1499.98 795.311 1508.6 791.214 1516.59 787.372C1532.51 779.704 1545.64 773.265 1540.14 776.256C1538.32 778.169 1465.92 811.17 1483.13 802.782ZM4900.71 338.91C4902.02 333.06 4896.9 409.656 4896.27 415.481C4893.96 439.046 4900.66 345.275 4900.71 338.91ZM5270.88 507.47C5281.54 499.041 5313.19 477.147 5333.5 462.968C5324.59 469.907 5288.02 495.308 5270.88 507.47ZM5125.46 611.422C5126.71 610.465 5154.7 590.163 5155.94 589.313C5179.21 573.217 5100.14 630.59 5125.46 611.422ZM317.833 710.677C318.701 710.112 340.931 696.385 341.792 695.882C361.905 684.205 295.28 725.343 317.833 710.677Z" fill="black"/>
</svg>
